<svg width="20" height="20" viewBox="0 0 20 20" fill="none" xmlns="http://www.w3.org/2000/svg">
<path d="M2.68281 10.4422L8.30781 16.0672C8.42509 16.1845 8.58415 16.2504 8.75 16.2504C8.91585 16.2504 9.07491 16.1845 9.19219 16.0672C9.30946 15.9499 9.37535 15.7909 9.37535 15.625C9.37535 15.4592 9.30946 15.3001 9.19219 15.1828L4.63359 10.625H16.875C17.0408 10.625 17.1997 10.5592 17.3169 10.442C17.4342 10.3247 17.5 10.1658 17.5 10C17.5 9.83425 17.4342 9.67528 17.3169 9.55807C17.1997 9.44086 17.0408 9.37501 16.875 9.37501H4.63359L9.19219 4.8172C9.30946 4.69992 9.37535 4.54086 9.37535 4.37501C9.37535 4.20916 9.30946 4.0501 9.19219 3.93282C9.07491 3.81555 8.91585 3.74966 8.75 3.74966C8.58415 3.74966 8.42509 3.81555 8.30781 3.93282L2.68281 9.55782C2.6247 9.61587 2.5786 9.6848 2.54715 9.76067C2.5157 9.83655 2.49951 9.91788 2.49951 10C2.49951 10.0821 2.5157 10.1635 2.54715 10.2393C2.5786 10.3152 2.6247 10.3842 2.68281 10.4422Z" fill="#3A2544"/>
</svg>
