<svg width="40" height="40" viewBox="0 0 40 40" fill="none" xmlns="http://www.w3.org/2000/svg">
<path d="M27.0511 16.3981C27.0511 16.3981 26.6806 13.9176 25.8869 12.1648C25.0932 10.4119 24.3391 9.03614 22.2952 8.884C20.2513 8.73186 18.0355 10.4186 17.3939 12.6675C16.7523 14.9098 17.6518 20.2808 18.9351 23.4756C20.2116 26.6638 22.196 30.9036 22.6061 31.8761C23.0096 32.8483 24.3325 36.6847 24.3325 36.6847C24.3325 36.6847 29.4721 28.0461 30.8412 25.6518C32.2104 23.2573 34.8298 17.6284 36.6621 14.3344C38.4943 11.0403 39.8634 7.8323 38.1501 6.23819C36.4371 4.65072 30.6032 2.92433 28.5987 7.25022C26.588 11.5695 27.0511 16.3981 27.0511 16.3981Z" fill="#906CA0"/>
<path d="M11.5658 38.5039C11.5658 38.5039 8.29818 37.2206 3.68126 30.6592C-0.93566 24.0975 1.59108 21.703 3.01321 21.068C4.43532 20.4331 6.92898 23.0127 7.50446 24.2232C7.50446 24.2232 7.72935 20.1817 9.73354 18.6207C11.7311 17.0596 14.4232 16.8281 15.0913 19.4673C15.766 22.0999 13.1797 32.0878 12.9019 33.5364C12.6307 34.9917 11.5658 38.5039 11.5658 38.5039Z" fill="#3A2544"/>
<path d="M9.25167 6.40364C8.38517 4.664 6.85062 3.87028 5.80554 4.24069C5.07131 4.49864 4.60167 5.32547 4.50248 6.05967C4.31726 7.37597 5.30942 8.48058 7.16151 10.4782C8.27273 11.682 9.23845 12.4956 9.56917 12.7668C11.4741 14.3542 13.6636 15.6838 13.6636 15.6838C13.7495 14.7908 13.8421 13.5341 13.8488 12.0259C13.862 10.3194 13.862 8.50703 13.3791 6.31103C12.9095 4.16792 12.4796 2.32909 11.0575 1.73379C10.9913 1.70733 9.95281 1.284 9.23184 1.77347C8.33887 2.39524 8.19998 4.28697 9.25167 6.40364Z" fill="#F2E5F9"/>
</svg>
