<svg width="48" height="48" viewBox="0 0 48 48" fill="none" xmlns="http://www.w3.org/2000/svg">
<mask id="mask0_197_2584" style="mask-type:luminance" maskUnits="userSpaceOnUse" x="0" y="0" width="48" height="48">
<path d="M0 0H47.9396V47.9396H0V0Z" fill="white"/>
</mask>
<g mask="url(#mask0_197_2584)">
<path d="M43.62 22.1256C43.62 22.1256 42.9765 24.9764 42.2921 27.7054C41.3882 27.9739 40.0848 28.5362 39.5064 29.5868C38.578 31.2728 40.3781 31.729 39.5064 32.8696C38.7733 33.8225 38.4152 35.1746 39.1969 36.1766C37.0547 40.3714 33.585 45.796 30.3186 46.3663C25.521 47.2051 17.0985 44.0123 13.474 42.5787C11.6493 41.862 8.54609 39.6869 5.80069 37.4635C5.64629 36.5347 5.29585 35.5573 4.57115 34.9873C2.91767 33.6839 4.22878 30.1732 3.50374 28.6664C2.96668 27.5503 1.10106 28.3408 0.180664 28.8211C0.612328 26.4426 1.73647 23.4451 2.86061 21.1888C4.62788 17.662 5.80908 15.7316 5.80908 15.7316C5.4751 12.5303 10.354 4.27904 12.7164 2.0066C15.0785 -0.265851 14.5652 3.85577 14.9888 5.95737C15.4124 8.05862 16.6749 14.2899 16.6749 14.2899C18.1411 14.4443 19.4851 14.64 20.6908 14.8518C20.9106 16.269 21.3832 18.3058 22.4013 19.3806C24.0709 21.1321 25.521 19.9428 27.1906 19.3806C28.8605 18.8187 30.6117 20.301 31.5079 18.6555C31.622 18.4441 31.7113 18.2158 31.7764 17.9795C32.3793 18.2239 32.9331 18.4602 33.4302 18.6801C33.4302 18.6801 43.0336 8.9139 46.8209 8.82428C50.6085 8.74271 43.62 22.1256 43.62 22.1256Z" fill="#E3B3FA"/>
<path d="M18.5158 22.6224C18.2795 24.4387 16.3491 25.9865 14.3372 25.7421C14.0907 25.7121 13.8478 25.6576 13.6121 25.5793C12.3252 25.1473 11.2339 24.0235 11.0872 22.5654C10.9406 21.0421 11.8935 19.7471 12.9606 19.1362C13.8649 18.6149 14.7688 18.6394 15.176 18.6801C15.4693 18.7126 16.2676 18.8267 17.0332 19.3886C17.1963 19.5108 17.3672 19.6495 17.5219 19.8203C17.6525 19.9509 18.7115 21.1072 18.5158 22.6224Z" fill="#51A8A3"/>
<path d="M16.4803 23.4613C15.9264 24.3326 15.1769 24.7808 14.7288 25.0496C14.3771 25.2606 14.0062 25.4379 13.6211 25.579C13.6943 24.4468 13.8896 23.0541 14.4032 22.1337C14.9977 21.0747 16.1789 20.0482 17.0422 19.3886C17.0992 19.6491 17.1563 20.0321 17.1724 20.4963C17.1805 21.0908 17.2134 22.3046 16.4803 23.4613Z" fill="#3A2544"/>
<path d="M35.3195 27.9004C35.0835 29.717 33.1531 31.2648 31.1411 31.0204C30.8946 30.9903 30.6517 30.9357 30.4161 30.8573C29.1292 30.4256 28.0376 29.3015 27.8909 27.8437C27.7445 26.3204 28.6975 25.0255 29.7646 24.4145C30.6685 23.8933 31.5728 23.9178 31.98 23.958C32.2733 23.9909 33.0715 24.1047 33.8372 24.667C34 24.7891 34.1712 24.9274 34.3259 25.0986C34.4562 25.2208 35.5152 26.3852 35.3195 27.9004Z" fill="#51A8A3"/>
<path d="M33.2752 28.7315C32.7214 29.6032 31.9718 30.051 31.5237 30.3199C31.172 30.5309 30.8011 30.7082 30.416 30.8492C30.4895 29.717 30.6849 28.3244 31.1981 27.404C31.7926 26.3449 32.9738 25.3185 33.8371 24.6589C33.8942 24.9194 33.9512 25.3024 33.9673 25.7666C33.9838 26.3695 34.0164 27.5829 33.2752 28.7315Z" fill="#3A2544"/>
<path d="M26.7105 37.6343C26.5883 37.8136 25.3343 39.5812 23.2408 39.5812C21.2368 39.5731 19.4937 37.9522 19.3064 36.4045C19.2574 35.9728 19.339 35.6227 20.0476 33.9283C21.7259 33.4721 25.4726 31.3789 25.3665 30.1084C25.2443 28.6093 23.0941 28.7315 21.0005 28.2186C18.9073 27.7051 16.9279 28.5523 17.2048 29.8718C17.4166 30.8821 18.5814 32.7635 19.1191 33.5943C18.5569 34.6614 17.8893 35.5982 16.7896 35.9892C14.965 36.6408 12.5864 35.5492 11.5439 33.7165C11.1854 33.0894 10.9981 32.2993 11.0877 31.2893L9.89844 31.0449C9.89844 31.0449 10.0857 34.2297 11.0877 34.9792C12.0897 35.7284 16.6836 38.9132 18.337 36.7059C19.1923 38.8971 20.9029 40.5096 22.8333 40.7214C24.3975 40.8926 25.9613 40.127 26.352 39.9232C26.887 39.6482 27.3829 39.3032 27.8266 38.8971C27.4517 38.4735 27.0771 38.0579 26.7105 37.6343Z" fill="#3A2544"/>
<path d="M15.682 31.4279C15.682 31.4279 10.8599 26.7279 10.3953 26.2553C9.93142 25.7911 8.07419 24.3494 8.07419 24.3494L7.49584 25.0906L15.3967 31.8837L15.682 31.4279ZM14.81 32.3644C14.81 32.3644 9.1171 28.7641 8.56325 28.4056C8.00941 28.0474 5.89136 27.021 5.89136 27.021L5.47581 27.8682L14.6233 32.8696L14.8106 32.3644H14.81ZM14.7452 33.4969C14.7452 33.4969 8.3105 31.5175 7.68281 31.3138C7.05578 31.1104 4.74239 30.6787 4.74239 30.6787L4.56348 31.6072L14.6962 34.0343L14.7452 33.4969ZM22.8253 34.4331C22.8253 34.4331 30.3925 33.3009 31.1582 33.1136C31.9235 32.9344 33.7075 32.4782 33.7075 32.4782L33.7891 33.6591C33.7891 33.6591 26.7351 34.653 25.3831 34.8158C24.5473 34.9152 23.7073 34.975 22.8659 34.995L22.8253 34.4331ZM22.8008 35.9564C22.8008 35.9564 30.4492 35.8909 31.2313 35.8177C32.0134 35.7446 33.8378 35.5489 33.8378 35.5489L33.7562 36.7301C33.7562 36.7301 26.629 36.722 25.2689 36.6975C24.4276 36.676 23.5877 36.6162 22.7518 36.5183L22.8008 35.9564ZM22.6215 37.3007C22.6215 37.3007 29.8793 39.7279 30.6369 39.9071C31.4022 40.0944 33.1946 40.5019 33.1946 40.5019L32.7301 41.5932C32.7301 41.5932 25.994 39.2801 24.7151 38.8075C23.4443 38.3352 22.3936 37.822 22.3936 37.822L22.6215 37.3007ZM12.3747 16.0082L19.7872 16.9531L19.5348 18.3054L17.0666 17.8573L12.1142 17.4176L12.3747 16.0082ZM30.8403 20.4151L37.7315 23.2985L37.1367 24.5371L34.8803 23.4535L30.2133 21.7104L30.8403 20.4151Z" fill="#3A2544"/>
<path d="M15.4536 20.8877C15.4861 21.5557 14.8997 22.0199 14.3949 22.1257C14.2888 22.1502 13.841 22.2317 13.4336 21.9384C13.1241 21.7185 12.9287 21.36 12.9287 20.9935C12.9368 20.3339 13.6047 19.6985 14.3294 19.7636C14.8833 19.8287 15.4291 20.2768 15.4539 20.8877H15.4536ZM32.7299 25.9052C32.7624 26.5242 32.2734 26.972 31.8092 27.1187C31.736 27.1432 31.1331 27.3144 30.6689 26.9152C30.2372 26.5403 30.2863 25.9865 30.2863 25.9297C30.3433 25.3269 30.9052 24.7321 31.6054 24.7891C32.1841 24.8382 32.697 25.3104 32.7299 25.9052Z" fill="#F2E5F9"/>
<path d="M7.96777 14.0539C7.96777 14.0539 8.75793 10.3233 10.1509 7.81459C11.5439 5.30583 12.2119 2.79708 12.9366 3.32642C13.6697 3.85576 12.5862 8.11568 12.9366 9.94035C13.2867 11.765 13.1971 14.0455 13.1971 14.0455C12.5946 14.2983 11.7554 14.5591 11.3318 14.1842C10.835 13.7444 11.169 12.6367 10.9491 12.5797C10.7048 12.5226 10.2241 13.9724 9.99586 13.9156C9.74344 13.8586 10.1509 12.05 9.76794 11.8953C9.54808 11.8137 9.05935 12.2541 7.96777 14.0539ZM41.1519 21.6124C41.1519 21.6124 43.5385 18.6475 44.6055 15.9837C45.583 13.5484 46.9431 11.5854 46.4953 11.0883C46.4463 11.0313 46.3893 11.0151 46.3241 10.991C45.5504 10.6812 44.581 11.7157 43.1719 12.913C42.1783 13.7602 43.0011 12.962 40.6632 14.8679C39.5651 15.7685 38.479 16.6836 37.4052 17.613C37.8939 17.4988 38.521 17.4173 38.7818 17.7351C39.1238 18.1423 38.7247 19.014 38.912 19.0872C39.0503 19.1443 39.246 18.68 39.8243 18.4437C39.9707 18.3867 40.2805 18.2564 40.3943 18.3706C40.6306 18.6149 39.7022 19.6575 39.9626 19.9505C40.1013 20.1053 40.5004 19.9831 40.7202 19.8854C41.3963 19.5679 41.5916 18.8267 41.6812 18.8509C41.7547 18.8754 41.7138 19.3477 41.1519 21.6124Z" fill="#3A2544"/>
<path d="M31.7767 17.9795C31.7128 18.2142 31.6227 18.4409 31.5082 18.6555C30.6039 20.3094 28.8528 18.8187 27.1909 19.3806C25.5213 19.9428 24.0712 21.1321 22.4013 19.3806C21.3832 18.3054 20.9029 16.269 20.6911 14.8518C21.695 15.0282 22.6945 15.2292 23.6886 15.4546C25.4152 15.8457 26.6941 16.22 27.0932 16.3425C28.6805 16.8103 30.2436 17.3566 31.7767 17.9795ZM5.80102 37.4719C3.08886 35.2726 0.718396 33.0243 0.254172 32.0633C-0.0798137 31.3544 -0.0637018 30.1896 0.180662 28.8295C1.10139 28.3489 2.95828 27.559 3.50407 28.6748C4.22911 30.1735 2.91767 33.6842 4.57149 34.9957C5.29619 35.5656 5.63823 36.5515 5.80102 37.4719ZM42.2924 27.7057C41.9014 29.2773 41.4862 30.8005 41.1847 31.7209C40.9159 32.5275 40.2073 34.2216 39.2053 36.1846C38.4152 35.1746 38.7817 33.8306 39.5148 32.8776C40.3865 31.7374 38.5864 31.2812 39.5148 29.5948C40.0851 28.5442 41.3882 27.9826 42.2924 27.7057Z" fill="#3A2544"/>
</g>
</svg>
