<svg width="120" height="120" viewBox="0 0 120 120" fill="none" xmlns="http://www.w3.org/2000/svg">
<rect width="120" height="120" rx="8" fill="#FCECC2"/>
<mask id="mask0_227_3587" style="mask-type:luminance" maskUnits="userSpaceOnUse" x="15" y="15" width="90" height="90">
<path d="M15 15H104.887V104.887H15V15Z" fill="white"/>
</mask>
<g mask="url(#mask0_227_3587)">
<path d="M103.386 84.1061C102.793 84.1974 101.135 84.6077 98.9135 85.1861C98.9286 83.2237 98.9896 80.9265 99.1111 78.2492C99.5825 67.037 94.8207 55.3382 91.2307 44.3545C87.6553 33.3701 76.9151 30.9973 64.2578 30.9973C51.6005 30.9973 42.7919 38.8771 38.5021 42.6961C34.2117 46.5145 28.9633 55.1098 24.4149 70.1404C21.0377 81.3526 20.1704 88.3198 19.957 91.1343C18.2231 91.2715 16.717 91.3168 15.7277 91.1954C12.8986 90.8454 18.3899 60.7389 30.9565 44.2632C43.5226 27.7863 74.526 20.1344 85.8603 30.2509C97.194 40.3674 103.918 57.9086 104.283 70.2914C104.633 82.6907 105.865 83.7562 103.386 84.1061Z" fill="#E3B3FA"/>
<path d="M99.1262 78.2486C99.0199 80.9108 98.9588 83.2231 98.928 85.1861C97.605 85.5203 96.0832 85.9162 94.501 86.3272C93.6948 79.253 91.4435 64.8153 90.6064 60.297C89.4962 54.2884 87.4426 41.8137 79.0751 36.1386C70.7076 30.4491 52.0719 37.4018 44.4805 43.2436C36.9041 49.0854 32.0063 63.9329 29.4807 71.6767C27.3049 78.3096 25.8448 87.9849 25.464 90.6019C23.6389 90.7995 21.6916 91.0279 19.957 91.1494C20.1698 88.3349 21.037 81.3677 24.4142 70.1555C28.9482 55.1249 34.1965 46.5289 38.5021 42.7112C42.7919 38.8921 51.6308 31.0118 64.2729 31.0118C76.9151 31.0118 87.6553 33.4002 91.2459 44.3689C94.8207 55.3376 99.5976 67.0363 99.1262 78.2486Z" fill="#DB8EFF"/>
<path d="M86.9103 79.846C87.8386 67.9496 83.6703 57.5895 83.1983 52.1889C82.742 46.7732 76.7025 40.4448 68.8222 38.4359C60.9418 36.4282 55.2215 42.9239 47.1895 49.1006C39.1568 55.2772 35.7488 70.8856 33.8927 76.4537C32.4326 80.8353 31.352 87.4072 30.9725 90.0084C30.5458 90.0544 30.1354 90.0846 29.7244 90.1305C28.5381 90.2369 27.0471 90.4043 25.4648 90.5868C25.845 87.9699 27.3058 78.2946 29.4809 71.6616C32.0065 63.9178 36.9049 49.0704 44.4813 43.2285C52.0576 37.3867 70.6933 30.4341 79.0759 36.1236C87.4428 41.8131 89.497 54.2885 90.6072 60.282C91.4443 64.8008 93.6956 79.238 94.5018 86.3121C91.7634 87.0113 88.8123 87.742 86.2413 88.3047C86.4238 86.0075 86.6365 83.2081 86.9103 79.846Z" fill="#CB60FF"/>
<path d="M86.9101 79.846C86.6515 83.193 86.4236 86.0075 86.2411 88.3198C82.2855 89.1713 79.2582 89.6283 79.3187 88.8825C79.5012 86.9352 83.5631 58.2434 72.7619 46.9097C61.9606 35.576 44.6026 58.7759 41.423 74.0041L38.2283 89.2324C38.2283 89.2324 34.5465 89.6585 30.9717 90.0084C31.3669 87.4072 32.4318 80.8196 33.8926 76.4537C35.7486 70.8856 39.1415 55.2766 47.1887 49.1006C55.2213 42.9239 60.9417 36.4276 68.822 38.4359C76.7017 40.4436 82.7267 46.7876 83.1981 52.1889C83.6544 57.6046 87.8385 67.9496 86.9101 79.846Z" fill="#8D4AAD"/>
<path d="M73.9939 65.7902C73.9939 65.7902 73.4923 58.8073 68.0306 59.7042C62.584 60.5878 60.5455 67.8294 60.5455 67.8294C60.5455 67.8294 59.4044 63.0524 54.963 63.7366C50.5202 64.4213 47.5993 74.5535 51.9199 76.3334C56.2248 78.1133 96.0533 79.878 96.57 70.1115C96.7072 67.616 96.0073 64.2394 93.7253 63.0675C91.1694 61.7591 87.1534 63.2803 83.6239 66.9319C83.6547 66.5668 83.8372 64.0261 81.9655 62.2915C81.7225 62.0637 80.8093 61.2266 79.5619 61.0894C77.4629 60.8616 75.1047 62.7321 73.9939 65.7902ZM48.3753 84.7909C48.223 84.3956 47.2343 81.87 44.572 80.9272C44.3587 80.851 40.7688 79.6489 38.6843 81.9921C37.1329 83.726 37.5892 86.0993 37.6502 86.4191C37.6502 86.4191 37.4218 85.4605 36.7521 84.5782C35.5355 82.9808 33.4668 83.1331 33.1924 83.1482C30.9562 83.2697 29.678 85.0804 29.4351 85.4146C28.0958 87.3014 27.883 90.1613 29.2066 91.7738C30.6516 93.5234 33.543 93.2949 34.9112 93.1886C58.0966 91.3785 65.2311 92.2458 66.4175 88.2442C67.0267 86.2208 65.9612 83.3918 64.1511 82.6309C62.4927 81.931 60.1502 82.9198 58.2332 85.0345C58.203 84.7607 57.9896 82.707 56.1644 81.52C54.445 80.4098 52.6198 80.9272 52.1786 81.0638C49.4553 81.8096 48.4817 84.4869 48.3753 84.7909Z" fill="#F8D478"/>
</g>
<rect x="8" y="8" width="97" height="25" rx="8" fill="#FDFDFD"/>
<path d="M16.84 25V16.36H22.36V17.542H18.094V19.966H21.64V21.148H18.094V23.818H22.36V25H16.84ZM28.3489 25V21.814C28.3489 21.562 28.3269 21.304 28.2829 21.04C28.2429 20.772 28.1629 20.524 28.0429 20.296C27.9269 20.068 27.7609 19.884 27.5449 19.744C27.3329 19.604 27.0549 19.534 26.7109 19.534C26.4869 19.534 26.2749 19.572 26.0749 19.648C25.8749 19.72 25.6989 19.838 25.5469 20.002C25.3989 20.166 25.2809 20.382 25.1929 20.65C25.1089 20.918 25.0669 21.244 25.0669 21.628L24.2869 21.334C24.2869 20.746 24.3969 20.228 24.6169 19.78C24.8369 19.328 25.1529 18.976 25.5649 18.724C25.9769 18.472 26.4749 18.346 27.0589 18.346C27.5069 18.346 27.8829 18.418 28.1869 18.562C28.4909 18.706 28.7369 18.896 28.9249 19.132C29.1169 19.364 29.2629 19.618 29.3629 19.894C29.4629 20.17 29.5309 20.44 29.5669 20.704C29.6029 20.968 29.6209 21.2 29.6209 21.4V25H28.3489ZM23.7949 25V18.52H24.9169V20.392H25.0669V25H23.7949ZM33.6757 25.18C33.0717 25.18 32.5497 25.03 32.1097 24.73C31.6737 24.43 31.3357 24.022 31.0957 23.506C30.8597 22.986 30.7417 22.402 30.7417 21.754C30.7417 21.102 30.8617 20.52 31.1017 20.008C31.3417 19.492 31.6817 19.086 32.1217 18.79C32.5657 18.49 33.0917 18.34 33.6997 18.34C34.3117 18.34 34.8257 18.49 35.2417 18.79C35.6617 19.086 35.9777 19.492 36.1897 20.008C36.4057 20.524 36.5137 21.106 36.5137 21.754C36.5137 22.402 36.4057 22.984 36.1897 23.5C35.9737 24.016 35.6557 24.426 35.2357 24.73C34.8157 25.03 34.2957 25.18 33.6757 25.18ZM33.8497 24.046C34.2617 24.046 34.5977 23.948 34.8577 23.752C35.1177 23.556 35.3077 23.286 35.4277 22.942C35.5477 22.598 35.6077 22.202 35.6077 21.754C35.6077 21.306 35.5457 20.91 35.4217 20.566C35.3017 20.222 35.1137 19.954 34.8577 19.762C34.6057 19.57 34.2837 19.474 33.8917 19.474C33.4757 19.474 33.1337 19.576 32.8657 19.78C32.5977 19.984 32.3977 20.258 32.2657 20.602C32.1377 20.946 32.0737 21.33 32.0737 21.754C32.0737 22.182 32.1377 22.57 32.2657 22.918C32.3977 23.262 32.5937 23.536 32.8537 23.74C33.1177 23.944 33.4497 24.046 33.8497 24.046ZM35.6077 25V20.338H35.4637V16.36H36.7237V25H35.6077ZM41.2165 25.18C40.5685 25.18 40.0065 25.034 39.5305 24.742C39.0545 24.45 38.6865 24.048 38.4265 23.536C38.1705 23.02 38.0425 22.426 38.0425 21.754C38.0425 21.078 38.1745 20.484 38.4385 19.972C38.7025 19.456 39.0725 19.056 39.5485 18.772C40.0245 18.484 40.5805 18.34 41.2165 18.34C41.8645 18.34 42.4265 18.486 42.9025 18.778C43.3785 19.07 43.7465 19.472 44.0065 19.984C44.2665 20.496 44.3965 21.086 44.3965 21.754C44.3965 22.43 44.2645 23.026 44.0005 23.542C43.7405 24.054 43.3725 24.456 42.8965 24.748C42.4205 25.036 41.8605 25.18 41.2165 25.18ZM41.2165 23.998C41.8365 23.998 42.2985 23.79 42.6025 23.374C42.9105 22.954 43.0645 22.414 43.0645 21.754C43.0645 21.078 42.9085 20.538 42.5965 20.134C42.2885 19.726 41.8285 19.522 41.2165 19.522C40.7965 19.522 40.4505 19.618 40.1785 19.81C39.9065 19.998 39.7045 20.26 39.5725 20.596C39.4405 20.928 39.3745 21.314 39.3745 21.754C39.3745 22.434 39.5305 22.978 39.8425 23.386C40.1545 23.794 40.6125 23.998 41.2165 23.998ZM53.479 25L53.485 20.962C53.485 20.494 53.365 20.13 53.125 19.87C52.885 19.606 52.569 19.474 52.177 19.474C51.937 19.474 51.717 19.53 51.517 19.642C51.321 19.75 51.161 19.914 51.037 20.134C50.917 20.35 50.857 20.622 50.857 20.95L50.251 20.644C50.243 20.188 50.339 19.788 50.539 19.444C50.743 19.1 51.019 18.834 51.367 18.646C51.715 18.454 52.105 18.358 52.537 18.358C53.237 18.358 53.779 18.568 54.163 18.988C54.547 19.408 54.739 19.966 54.739 20.662L54.733 25H53.479ZM45.709 25V18.52H46.825V20.392H46.969V25H45.709ZM49.597 25L49.603 20.986C49.603 20.514 49.483 20.144 49.243 19.876C49.007 19.608 48.689 19.474 48.289 19.474C47.893 19.474 47.573 19.61 47.329 19.882C47.089 20.154 46.969 20.51 46.969 20.95L46.369 20.566C46.369 20.142 46.471 19.764 46.675 19.432C46.879 19.1 47.155 18.838 47.503 18.646C47.851 18.454 48.245 18.358 48.685 18.358C49.145 18.358 49.537 18.456 49.861 18.652C50.185 18.844 50.431 19.114 50.599 19.462C50.771 19.81 50.857 20.214 50.857 20.674L50.851 25H49.597ZM59.729 17.56H58.745L59.603 15.46H60.587L59.729 17.56ZM59.171 25.18C58.527 25.18 57.961 25.04 57.473 24.76C56.989 24.476 56.611 24.082 56.339 23.578C56.071 23.07 55.937 22.482 55.937 21.814C55.937 21.106 56.069 20.492 56.333 19.972C56.601 19.452 56.973 19.05 57.449 18.766C57.925 18.482 58.479 18.34 59.111 18.34C59.771 18.34 60.333 18.494 60.797 18.802C61.261 19.106 61.607 19.54 61.835 20.104C62.067 20.668 62.159 21.338 62.111 22.114H60.857V21.658C60.849 20.906 60.705 20.35 60.425 19.99C60.149 19.63 59.727 19.45 59.159 19.45C58.531 19.45 58.059 19.648 57.743 20.044C57.427 20.44 57.269 21.012 57.269 21.76C57.269 22.472 57.427 23.024 57.743 23.416C58.059 23.804 58.515 23.998 59.111 23.998C59.503 23.998 59.841 23.91 60.125 23.734C60.413 23.554 60.637 23.298 60.797 22.966L62.027 23.356C61.775 23.936 61.393 24.386 60.881 24.706C60.369 25.022 59.799 25.18 59.171 25.18ZM56.861 22.114V21.136H61.487V22.114H56.861ZM67.1652 25C66.7572 25.08 66.3572 25.114 65.9652 25.102C65.5732 25.09 65.2232 25.014 64.9152 24.874C64.6072 24.734 64.3752 24.514 64.2192 24.214C64.0792 23.946 64.0032 23.674 63.9912 23.398C63.9832 23.118 63.9792 22.802 63.9792 22.45V16.72H65.2392V22.39C65.2392 22.65 65.2412 22.876 65.2452 23.068C65.2532 23.26 65.2952 23.422 65.3712 23.554C65.5152 23.802 65.7432 23.944 66.0552 23.98C66.3712 24.012 66.7412 23.998 67.1652 23.938V25ZM62.7372 19.528V18.52H67.1652V19.528H62.7372ZM68.5314 25V18.52H69.6474V20.092L69.4914 19.888C69.5714 19.68 69.6754 19.49 69.8034 19.318C69.9314 19.142 70.0794 18.998 70.2474 18.886C70.4114 18.766 70.5934 18.674 70.7934 18.61C70.9974 18.542 71.2054 18.502 71.4174 18.49C71.6294 18.474 71.8334 18.484 72.0294 18.52V19.696C71.8174 19.64 71.5814 19.624 71.3214 19.648C71.0654 19.672 70.8294 19.754 70.6134 19.894C70.4094 20.026 70.2474 20.186 70.1274 20.374C70.0114 20.562 69.9274 20.772 69.8754 21.004C69.8234 21.232 69.7974 21.474 69.7974 21.73V25H68.5314ZM73.292 17.458V16.24H74.546V17.458H73.292ZM73.292 25V18.52H74.546V25H73.292ZM79.1618 25.18C78.5138 25.18 77.9518 25.034 77.4758 24.742C76.9998 24.45 76.6318 24.048 76.3718 23.536C76.1158 23.02 75.9878 22.426 75.9878 21.754C75.9878 21.078 76.1198 20.484 76.3838 19.972C76.6478 19.456 77.0178 19.056 77.4938 18.772C77.9698 18.484 78.5258 18.34 79.1618 18.34C79.8098 18.34 80.3718 18.486 80.8478 18.778C81.3238 19.07 81.6918 19.472 81.9518 19.984C82.2118 20.496 82.3418 21.086 82.3418 21.754C82.3418 22.43 82.2098 23.026 81.9458 23.542C81.6858 24.054 81.3178 24.456 80.8418 24.748C80.3658 25.036 79.8058 25.18 79.1618 25.18ZM79.1618 23.998C79.7818 23.998 80.2438 23.79 80.5478 23.374C80.8558 22.954 81.0098 22.414 81.0098 21.754C81.0098 21.078 80.8538 20.538 80.5418 20.134C80.2338 19.726 79.7738 19.522 79.1618 19.522C78.7418 19.522 78.3958 19.618 78.1238 19.81C77.8518 19.998 77.6498 20.26 77.5178 20.596C77.3858 20.928 77.3198 21.314 77.3198 21.754C77.3198 22.434 77.4758 22.978 77.7878 23.386C78.0998 23.794 78.5578 23.998 79.1618 23.998ZM86.0211 25.174C85.2331 25.174 84.5911 25 84.0951 24.652C83.5991 24.304 83.2951 23.814 83.1831 23.182L84.4671 22.984C84.5471 23.32 84.7311 23.586 85.0191 23.782C85.3111 23.974 85.6731 24.07 86.1051 24.07C86.4971 24.07 86.8031 23.99 87.0231 23.83C87.2471 23.67 87.3591 23.45 87.3591 23.17C87.3591 23.006 87.3191 22.874 87.2391 22.774C87.1631 22.67 87.0011 22.572 86.7531 22.48C86.5051 22.388 86.1271 22.274 85.6191 22.138C85.0631 21.994 84.6211 21.84 84.2931 21.676C83.9691 21.508 83.7371 21.314 83.5971 21.094C83.4611 20.87 83.3931 20.6 83.3931 20.284C83.3931 19.892 83.4971 19.55 83.7051 19.258C83.9131 18.966 84.2051 18.74 84.5811 18.58C84.9611 18.42 85.4051 18.34 85.9131 18.34C86.4091 18.34 86.8511 18.418 87.2391 18.574C87.6271 18.73 87.9411 18.952 88.1811 19.24C88.4211 19.524 88.5651 19.858 88.6131 20.242L87.3291 20.476C87.2851 20.164 87.1391 19.918 86.8911 19.738C86.6431 19.558 86.3211 19.46 85.9251 19.444C85.5451 19.428 85.2371 19.492 85.0011 19.636C84.7651 19.776 84.6471 19.97 84.6471 20.218C84.6471 20.362 84.6911 20.484 84.7791 20.584C84.8711 20.684 85.0471 20.78 85.3071 20.872C85.5671 20.964 85.9511 21.074 86.4591 21.202C87.0031 21.342 87.4351 21.498 87.7551 21.67C88.0751 21.838 88.3031 22.04 88.4391 22.276C88.5791 22.508 88.6491 22.79 88.6491 23.122C88.6491 23.762 88.4151 24.264 87.9471 24.628C87.4831 24.992 86.8411 25.174 86.0211 25.174ZM92.8507 25.18C92.2067 25.18 91.6407 25.04 91.1527 24.76C90.6687 24.476 90.2907 24.082 90.0187 23.578C89.7507 23.07 89.6167 22.482 89.6167 21.814C89.6167 21.106 89.7487 20.492 90.0127 19.972C90.2807 19.452 90.6527 19.05 91.1287 18.766C91.6047 18.482 92.1587 18.34 92.7907 18.34C93.4507 18.34 94.0127 18.494 94.4767 18.802C94.9407 19.106 95.2867 19.54 95.5147 20.104C95.7467 20.668 95.8387 21.338 95.7907 22.114H94.5367V21.658C94.5287 20.906 94.3847 20.35 94.1047 19.99C93.8287 19.63 93.4067 19.45 92.8387 19.45C92.2107 19.45 91.7387 19.648 91.4227 20.044C91.1067 20.44 90.9487 21.012 90.9487 21.76C90.9487 22.472 91.1067 23.024 91.4227 23.416C91.7387 23.804 92.1947 23.998 92.7907 23.998C93.1827 23.998 93.5207 23.91 93.8047 23.734C94.0927 23.554 94.3167 23.298 94.4767 22.966L95.7067 23.356C95.4547 23.936 95.0727 24.386 94.5607 24.706C94.0487 25.022 93.4787 25.18 92.8507 25.18ZM90.5407 22.114V21.136H95.1667V22.114H90.5407Z" fill="#3A2544"/>
</svg>
