<svg width="120" height="120" viewBox="0 0 120 120" fill="none" xmlns="http://www.w3.org/2000/svg">
<rect width="120" height="120" rx="8" fill="#FAEBE3"/>
<mask id="mask0_227_3549" style="mask-type:luminance" maskUnits="userSpaceOnUse" x="16" y="15" width="90" height="90">
<path d="M105.887 15H16V104.887H105.887V15Z" fill="white"/>
</mask>
<g mask="url(#mask0_227_3549)">
<path d="M21.3572 75.2255C20.7534 76.4331 21.2179 77.7337 21.8527 79.3745C23.5403 83.6945 24.3918 85.8621 25.2279 87.2398C25.2279 87.2398 27.9063 91.668 31.3744 94.8728C37.1958 100.23 47.1975 103.404 56.8277 102.924C68.8112 102.32 84.7273 95.8634 88.9542 84.2515C90.8429 79.0649 90.5949 72.4077 95.7665 69.2183C97.0976 68.3977 102.129 65.7502 101.805 64.4342C101.774 64.3413 101.634 63.8613 101.324 63.3349C101.247 63.1956 100.845 62.4989 100.519 62.2666C99.6063 61.5854 97.3456 62.9788 94.2956 65.069C92.2206 66.4779 91.1991 67.1901 90.6415 67.6391C82.7763 74.0798 78.4413 77.6253 72.8212 80.3035C69.6627 81.8058 57.2922 87.2555 43.3889 83.9419C36.0192 82.1929 31.1731 81.0317 28.5102 77.1298C27.7825 76.077 26.3271 73.5224 24.237 73.4914C23.0913 73.4605 21.8836 74.2036 21.3572 75.2255Z" fill="#FFD652"/>
<path d="M22.6268 73.7697C21.961 73.8935 21.4965 73.971 21.2333 74.358C21.032 74.6522 20.9701 75.1012 21.1249 75.4263C21.7442 76.7114 26.0329 76.3243 26.3116 75.2715C26.389 74.9928 26.2032 74.6212 26.0329 74.4045C25.8626 74.1877 25.6149 74.0484 25.104 73.909C24.593 73.7852 23.757 73.5684 22.6268 73.7697Z" fill="black"/>
<path d="M46.9808 70.4422C45.6338 71.2163 44.1784 70.8447 40.958 69.8539C29.919 66.4322 24.3298 64.6363 20.3508 60.6572C17.951 58.2575 16.0157 56.3067 16.0002 53.5817C15.9847 51.6774 16.9137 50.2994 18.5703 48.7667C20.3353 47.1565 22.9209 45.376 26.0793 42.6356C34.9972 34.9253 44.7977 22.8025 51.3778 21.3936C51.5636 21.3471 51.7494 21.3317 51.9661 21.3936C56.0071 22.6012 50.6811 50.9652 49.2567 57.9168C48.6684 60.8121 48.9935 63.9705 48.8077 66.4477C48.6838 68.2592 48.2658 69.7145 46.9808 70.4422Z" fill="#FF0068"/>
<path d="M46.9808 70.442C46.7176 70.5968 46.4544 70.6897 46.1757 70.7671C45.3241 70.9684 44.3178 70.8136 42.8315 70.411C42.2741 70.2562 41.6548 70.0704 40.958 69.8537C38.9143 69.2189 37.0564 68.646 35.3688 68.1042C34.734 67.9029 34.1302 67.7016 33.5264 67.5003C31.7614 66.912 30.1822 66.3546 28.7578 65.7818C28.0456 65.4876 27.3644 65.2089 26.7296 64.9147C24.2369 63.769 22.2861 62.5304 20.6295 60.9357C20.5366 60.8428 20.4437 60.7654 20.3508 60.6725C19.5921 59.9139 18.8954 59.2017 18.2761 58.505C16.9291 56.9722 16.0157 55.4704 16.0002 53.597C15.9847 51.6927 16.9137 50.3147 18.5703 48.782C19.1431 50.0361 20.3663 51.9404 22.9364 54.6808C22.9983 54.7427 23.0602 54.8047 23.1221 54.8821C23.695 55.4859 24.2833 56.0742 24.8717 56.6316C26.1877 57.8857 27.5192 59.0004 28.8662 59.9913C29.1603 60.2235 29.47 60.4403 29.7641 60.6416C32.0401 62.2518 34.3005 63.4904 36.4216 64.4348C36.9016 64.6361 37.3661 64.8373 37.8305 65.0076C38.8369 65.3947 39.8123 65.7044 40.7258 65.9521C41.4534 66.1534 42.2276 66.2772 43.0018 66.3856C43.6985 66.4785 44.4107 66.5249 45.1074 66.5559C46.4079 66.6023 47.693 66.5559 48.8077 66.4785C48.6838 68.259 48.2658 69.7143 46.9808 70.442Z" fill="#32B244"/>
<path d="M23.8656 58.4126C23.0605 58.9854 21.8374 59.9454 20.6297 60.9208C20.5368 60.8279 20.4439 60.7505 20.351 60.6576C19.5924 59.8989 18.8957 59.1867 18.2764 58.49C19.6698 57.8088 21.3264 56.6476 22.9366 54.6503C22.9985 54.7123 23.0605 54.7742 23.1224 54.8516C23.6952 55.4554 24.2836 56.0438 24.8719 56.6011C24.779 57.3133 24.4849 57.9791 23.8656 58.4126Z" fill="black"/>
<path d="M28.7733 65.7666C28.0611 65.4724 27.3799 65.1938 26.7451 64.8996C27.0548 63.9706 27.4263 62.9333 27.767 62.0198C27.9992 61.416 28.4017 60.6883 28.8817 59.9607C29.1759 60.1929 29.4855 60.4097 29.7797 60.6109C29.4855 61.478 29.2533 62.3295 29.1914 63.0727C29.1139 64.0326 28.9436 64.9615 28.7733 65.7666Z" fill="black"/>
<path d="M37.8305 64.9767C37.1493 65.9057 36.4526 66.8037 35.9107 67.4385C35.7249 67.6552 35.5391 67.872 35.3688 68.0887C34.734 67.8875 34.1302 67.6862 33.5264 67.4849C33.8979 67.0824 34.3934 66.556 35.0282 65.8438C35.4772 65.3328 35.9571 64.8374 36.4216 64.3884C36.9016 64.6052 37.366 64.8064 37.8305 64.9767Z" fill="black"/>
<path d="M46.1757 70.7677C45.3242 70.969 44.3178 70.8142 42.8315 70.4116C42.5838 68.7859 42.7231 67.4235 42.9863 66.3552C43.683 66.4481 44.3952 66.4945 45.0919 66.5255C45.0919 66.5874 45.0919 66.6494 45.0765 66.6958C45.0145 67.439 45.5874 69.173 46.1757 70.7677Z" fill="black"/>
<path d="M40.1533 32.1223C39.534 32.6642 39.116 33.6241 39.3947 33.9338C39.7044 34.2744 40.8346 33.748 41.4384 33.1442C41.8564 32.7416 41.8874 32.4475 41.8874 32.3236C41.8874 32.2926 41.8874 31.8591 41.6087 31.6733C41.2062 31.3947 40.494 31.8282 40.1533 32.1223Z" fill="black"/>
<path d="M46.9185 46.258C46.8875 46.8463 47.0733 47.2644 47.1662 47.4811C47.321 47.8063 47.3984 47.9611 47.5223 47.992C47.8939 48.054 48.4512 46.9857 48.4977 46.0258C48.5287 45.4529 48.3429 45.2052 48.2655 45.1123C48.2345 45.0813 47.9403 44.7562 47.6152 44.8181C47.1352 44.8955 46.9494 45.8245 46.9185 46.258Z" fill="black"/>
<path d="M30.1668 49.2154C29.6404 49.7418 29.3927 50.6088 29.6559 50.841C29.8107 50.9804 30.1513 50.8565 30.6622 50.6707C30.9874 50.5469 31.2506 50.454 31.4983 50.1908C31.6531 50.0359 31.9163 49.7572 31.9163 49.3547C31.9163 49.3237 31.9008 48.8902 31.6221 48.7044C31.2041 48.4567 30.5229 48.8747 30.1668 49.2154Z" fill="black"/>
<path d="M81.3365 47.4968C78.8437 44.8183 74.5395 43.6726 71.474 44.0132C70.8547 44.0752 69.8019 44.261 68.7026 44.4777C68.2072 44.5706 67.6963 44.679 67.2008 44.7719C66.7673 44.8493 66.3493 44.9422 65.9777 45.0196C64.2592 45.3602 63.3921 45.5305 62.7109 45.7318C59.924 46.5059 57.71 47.1252 56.3786 49.0141C55.7438 49.9121 55.5115 50.8255 55.1709 52.1261C54.7374 53.7827 54.7064 55.1142 54.691 55.749C54.6445 58.0404 55.0316 62.7935 57.9887 68.0421C59.4596 70.6432 60.1872 71.9437 61.8439 73.0584C64.7546 75.0402 68.0988 74.8389 70.9321 74.6841C73.7345 74.5293 75.6543 74.4054 77.5431 73.1978C80.4692 71.2779 81.2742 67.9492 82.1415 64.0786C83.628 57.4366 84.99 51.4139 81.3365 47.4968Z" fill="#32B244"/>
<path d="M69.3223 41.4428C69.3223 41.4428 68.7185 42.4801 68.7339 43.4245C68.7339 43.6413 68.7339 44.0283 68.703 44.4773C68.2075 44.5702 67.6966 44.6786 67.2012 44.7715C67.3405 42.9446 68.0063 41.2105 68.0063 41.2105L68.5172 41.0402L69.3223 41.4428Z" fill="black"/>
<path d="M59.0731 49.5404C57.8345 50.6861 57.3236 52.3737 57.3236 52.3737C56.5959 54.8354 56.8437 58.4119 58.4074 59.0622C58.7635 59.217 59.2744 59.2325 59.6305 59.0157C60.095 58.737 60.2963 58.1177 60.3427 56.7553C60.4356 54.4484 59.9247 54.2161 60.064 52.9466C60.3118 50.6707 62.1387 49.5095 61.6742 48.9366C61.38 48.565 60.4356 48.7663 59.9402 48.9521C59.5376 49.1379 59.2589 49.3701 59.0731 49.5404Z" fill="white"/>
<path d="M104.498 28.903C107.238 32.8046 105.195 38.208 104.73 39.4001C104.312 40.4994 102.842 43.952 99.1258 46.3208C97.8248 47.1414 93.4281 49.9437 88.7367 48.1168C85.2374 46.7543 83.6432 43.6269 83.1322 42.3883C81.6613 38.8737 82.528 35.7153 82.8691 34.5541C83.0548 33.9193 84.2934 29.9558 88.1332 27.4631C93.0876 24.2737 101.247 24.2737 104.498 28.903Z" fill="#FF7300"/>
<path d="M86.2602 31.999C86.2602 31.999 85.4704 31.3178 84.6962 28.0665C83.9221 24.8152 89.7129 16.8881 89.7129 16.8881C89.7129 16.8881 90.0377 17.1049 89.6972 20.3562C89.3567 23.6075 88.9388 27.571 88.1647 29.0728C87.3906 30.5747 86.2602 31.999 86.2602 31.999Z" fill="#32B244"/>
<path d="M87.298 44.0904C87.3131 44.2917 87.2356 44.5858 87.05 44.6323C86.9109 44.6632 86.7561 44.5703 86.6787 44.462C86.4464 44.1678 86.6629 43.5795 86.8952 43.5485C87.05 43.533 87.2665 43.8117 87.298 44.0904Z" fill="#FFD652"/>
<path d="M90.2703 46.073C90.4094 46.3362 90.4094 46.7232 90.2389 46.8161C90.0224 46.94 89.4805 46.6149 89.4805 46.2278C89.4805 46.0265 89.6045 45.7788 89.821 45.7478C90.0689 45.7169 90.2546 46.042 90.2703 46.073Z" fill="#FFD652"/>
<path d="M85.5789 41.706C85.5789 41.7524 85.5015 42.124 85.2693 42.2014C85.0213 42.2788 84.65 42.0001 84.6342 41.6905C84.6034 41.3034 85.083 40.9628 85.3309 41.0402C85.4549 41.0867 85.5323 41.257 85.5474 41.3344C85.5632 41.3808 85.6098 41.5202 85.5789 41.706Z" fill="#FFD652"/>
<path d="M88.2268 41.1802C88.2419 41.3195 88.2576 41.4898 88.1645 41.5672C88.0097 41.6911 87.5918 41.5672 87.4678 41.2731C87.4061 41.1183 87.4369 40.9015 87.576 40.7622C87.5918 40.7467 87.7466 40.5918 87.9171 40.6383C88.1645 40.7157 88.2111 41.0718 88.2268 41.1802Z" fill="#FFD652"/>
<path d="M89.9141 43.3628C89.8984 43.5022 89.8984 43.657 89.8052 43.7035C89.6353 43.7963 89.1708 43.5177 89.2017 43.1925C89.2174 42.9138 89.5579 42.6816 89.7435 42.759C89.9601 42.8519 89.9292 43.3164 89.9141 43.3628Z" fill="#FFD652"/>
</g>
<rect x="8" y="8" width="69" height="41" rx="8" fill="#FDFDFD"/>
<path d="M18.994 25V17.542H16.12V16.36H23.122V17.542H20.248V25H18.994ZM23.4845 25V18.52H24.6005V20.092L24.4445 19.888C24.5245 19.68 24.6285 19.49 24.7565 19.318C24.8845 19.142 25.0325 18.998 25.2005 18.886C25.3645 18.766 25.5465 18.674 25.7465 18.61C25.9505 18.542 26.1585 18.502 26.3705 18.49C26.5825 18.474 26.7865 18.484 26.9825 18.52V19.696C26.7705 19.64 26.5345 19.624 26.2745 19.648C26.0185 19.672 25.7825 19.754 25.5665 19.894C25.3625 20.026 25.2005 20.186 25.0805 20.374C24.9645 20.562 24.8805 20.772 24.8285 21.004C24.7765 21.232 24.7505 21.474 24.7505 21.73V25H23.4845ZM30.822 25.18C30.174 25.18 29.612 25.034 29.136 24.742C28.66 24.45 28.292 24.048 28.032 23.536C27.776 23.02 27.648 22.426 27.648 21.754C27.648 21.078 27.78 20.484 28.044 19.972C28.308 19.456 28.678 19.056 29.154 18.772C29.63 18.484 30.186 18.34 30.822 18.34C31.47 18.34 32.032 18.486 32.508 18.778C32.984 19.07 33.352 19.472 33.612 19.984C33.872 20.496 34.002 21.086 34.002 21.754C34.002 22.43 33.87 23.026 33.606 23.542C33.346 24.054 32.978 24.456 32.502 24.748C32.026 25.036 31.466 25.18 30.822 25.18ZM30.822 23.998C31.442 23.998 31.904 23.79 32.208 23.374C32.516 22.954 32.67 22.414 32.67 21.754C32.67 21.078 32.514 20.538 32.202 20.134C31.894 19.726 31.434 19.522 30.822 19.522C30.402 19.522 30.056 19.618 29.784 19.81C29.512 19.998 29.31 20.26 29.178 20.596C29.046 20.928 28.98 21.314 28.98 21.754C28.98 22.434 29.136 22.978 29.448 23.386C29.76 23.794 30.218 23.998 30.822 23.998ZM37.7625 25.174C37.3145 25.174 36.9385 25.102 36.6345 24.958C36.3305 24.814 36.0825 24.626 35.8905 24.394C35.7025 24.158 35.5585 23.902 35.4585 23.626C35.3585 23.35 35.2905 23.08 35.2545 22.816C35.2185 22.552 35.2005 22.32 35.2005 22.12V18.52H36.4725V21.706C36.4725 21.958 36.4925 22.218 36.5325 22.486C36.5765 22.75 36.6565 22.996 36.7725 23.224C36.8925 23.452 37.0585 23.636 37.2705 23.776C37.4865 23.916 37.7665 23.986 38.1105 23.986C38.3345 23.986 38.5465 23.95 38.7465 23.878C38.9465 23.802 39.1205 23.682 39.2685 23.518C39.4205 23.354 39.5385 23.138 39.6225 22.87C39.7105 22.602 39.7545 22.276 39.7545 21.892L40.5345 22.186C40.5345 22.774 40.4245 23.294 40.2045 23.746C39.9845 24.194 39.6685 24.544 39.2565 24.796C38.8445 25.048 38.3465 25.174 37.7625 25.174ZM39.9045 25V23.128H39.7545V18.52H41.0205V25H39.9045ZM45.7453 25.18C45.1253 25.18 44.6053 25.03 44.1853 24.73C43.7653 24.426 43.4473 24.016 43.2313 23.5C43.0153 22.984 42.9073 22.402 42.9073 21.754C42.9073 21.106 43.0133 20.524 43.2253 20.008C43.4413 19.492 43.7573 19.086 44.1733 18.79C44.5933 18.49 45.1093 18.34 45.7213 18.34C46.3293 18.34 46.8533 18.49 47.2933 18.79C47.7373 19.086 48.0793 19.492 48.3193 20.008C48.5593 20.52 48.6793 21.102 48.6793 21.754C48.6793 22.402 48.5593 22.986 48.3193 23.506C48.0833 24.022 47.7453 24.43 47.3053 24.73C46.8693 25.03 46.3493 25.18 45.7453 25.18ZM42.6973 25V16.36H43.9573V20.338H43.8133V25H42.6973ZM45.5713 24.046C45.9713 24.046 46.3013 23.944 46.5613 23.74C46.8253 23.536 47.0213 23.262 47.1493 22.918C47.2813 22.57 47.3473 22.182 47.3473 21.754C47.3473 21.33 47.2813 20.946 47.1493 20.602C47.0213 20.258 46.8233 19.984 46.5553 19.78C46.2873 19.576 45.9453 19.474 45.5293 19.474C45.1373 19.474 44.8133 19.57 44.5573 19.762C44.3053 19.954 44.1173 20.222 43.9933 20.566C43.8733 20.91 43.8133 21.306 43.8133 21.754C43.8133 22.202 43.8733 22.598 43.9933 22.942C44.1133 23.286 44.3033 23.556 44.5633 23.752C44.8233 23.948 45.1593 24.046 45.5713 24.046ZM50.1241 25V16.18H51.3781V25H50.1241ZM56.0538 25.18C55.4098 25.18 54.8438 25.04 54.3558 24.76C53.8718 24.476 53.4938 24.082 53.2218 23.578C52.9538 23.07 52.8198 22.482 52.8198 21.814C52.8198 21.106 52.9518 20.492 53.2158 19.972C53.4838 19.452 53.8558 19.05 54.3318 18.766C54.8078 18.482 55.3618 18.34 55.9938 18.34C56.6538 18.34 57.2158 18.494 57.6798 18.802C58.1438 19.106 58.4898 19.54 58.7178 20.104C58.9498 20.668 59.0418 21.338 58.9938 22.114H57.7398V21.658C57.7318 20.906 57.5878 20.35 57.3078 19.99C57.0318 19.63 56.6098 19.45 56.0418 19.45C55.4138 19.45 54.9418 19.648 54.6258 20.044C54.3098 20.44 54.1518 21.012 54.1518 21.76C54.1518 22.472 54.3098 23.024 54.6258 23.416C54.9418 23.804 55.3978 23.998 55.9938 23.998C56.3858 23.998 56.7238 23.91 57.0078 23.734C57.2958 23.554 57.5198 23.298 57.6798 22.966L58.9098 23.356C58.6578 23.936 58.2758 24.386 57.7638 24.706C57.2518 25.022 56.6818 25.18 56.0538 25.18ZM53.7438 22.114V21.136H58.3698V22.114H53.7438ZM62.818 25.174C62.03 25.174 61.388 25 60.892 24.652C60.396 24.304 60.092 23.814 59.98 23.182L61.264 22.984C61.344 23.32 61.528 23.586 61.816 23.782C62.108 23.974 62.47 24.07 62.902 24.07C63.294 24.07 63.6 23.99 63.82 23.83C64.044 23.67 64.156 23.45 64.156 23.17C64.156 23.006 64.116 22.874 64.036 22.774C63.96 22.67 63.798 22.572 63.55 22.48C63.302 22.388 62.924 22.274 62.416 22.138C61.86 21.994 61.418 21.84 61.09 21.676C60.766 21.508 60.534 21.314 60.394 21.094C60.258 20.87 60.19 20.6 60.19 20.284C60.19 19.892 60.294 19.55 60.502 19.258C60.71 18.966 61.002 18.74 61.378 18.58C61.758 18.42 62.202 18.34 62.71 18.34C63.206 18.34 63.648 18.418 64.036 18.574C64.424 18.73 64.738 18.952 64.978 19.24C65.218 19.524 65.362 19.858 65.41 20.242L64.126 20.476C64.082 20.164 63.936 19.918 63.688 19.738C63.44 19.558 63.118 19.46 62.722 19.444C62.342 19.428 62.034 19.492 61.798 19.636C61.562 19.776 61.444 19.97 61.444 20.218C61.444 20.362 61.488 20.484 61.576 20.584C61.668 20.684 61.844 20.78 62.104 20.872C62.364 20.964 62.748 21.074 63.256 21.202C63.8 21.342 64.232 21.498 64.552 21.67C64.872 21.838 65.1 22.04 65.236 22.276C65.376 22.508 65.446 22.79 65.446 23.122C65.446 23.762 65.212 24.264 64.744 24.628C64.28 24.992 63.638 25.174 62.818 25.174ZM19.414 41.18C18.81 41.18 18.288 41.03 17.848 40.73C17.412 40.43 17.074 40.022 16.834 39.506C16.598 38.986 16.48 38.402 16.48 37.754C16.48 37.102 16.6 36.52 16.84 36.008C17.08 35.492 17.42 35.086 17.86 34.79C18.304 34.49 18.83 34.34 19.438 34.34C20.05 34.34 20.564 34.49 20.98 34.79C21.4 35.086 21.716 35.492 21.928 36.008C22.144 36.524 22.252 37.106 22.252 37.754C22.252 38.402 22.144 38.984 21.928 39.5C21.712 40.016 21.394 40.426 20.974 40.73C20.554 41.03 20.034 41.18 19.414 41.18ZM19.588 40.046C20 40.046 20.336 39.948 20.596 39.752C20.856 39.556 21.046 39.286 21.166 38.942C21.286 38.598 21.346 38.202 21.346 37.754C21.346 37.306 21.284 36.91 21.16 36.566C21.04 36.222 20.852 35.954 20.596 35.762C20.344 35.57 20.022 35.474 19.63 35.474C19.214 35.474 18.872 35.576 18.604 35.78C18.336 35.984 18.136 36.258 18.004 36.602C17.876 36.946 17.812 37.33 17.812 37.754C17.812 38.182 17.876 38.57 18.004 38.918C18.136 39.262 18.332 39.536 18.592 39.74C18.856 39.944 19.188 40.046 19.588 40.046ZM21.346 41V36.338H21.202V32.36H22.462V41H21.346ZM24.2608 33.458V32.24H25.5148V33.458H24.2608ZM24.2608 41V34.52H25.5148V41H24.2608ZM29.9866 44.06C29.6386 44.06 29.3006 44.006 28.9726 43.898C28.6486 43.79 28.3526 43.63 28.0846 43.418C27.8166 43.21 27.5946 42.952 27.4186 42.644L28.5766 42.056C28.7166 42.332 28.9166 42.534 29.1766 42.662C29.4366 42.79 29.7106 42.854 29.9986 42.854C30.3546 42.854 30.6586 42.79 30.9106 42.662C31.1626 42.538 31.3526 42.35 31.4806 42.098C31.6126 41.846 31.6766 41.534 31.6726 41.162V39.35H31.8226V34.52H32.9326V41.174C32.9326 41.346 32.9266 41.51 32.9146 41.666C32.9026 41.822 32.8806 41.978 32.8486 42.134C32.7566 42.57 32.5806 42.93 32.3206 43.214C32.0646 43.498 31.7366 43.71 31.3366 43.85C30.9406 43.99 30.4906 44.06 29.9866 44.06ZM29.8906 41.18C29.2866 41.18 28.7646 41.03 28.3246 40.73C27.8886 40.43 27.5506 40.022 27.3106 39.506C27.0746 38.986 26.9566 38.402 26.9566 37.754C26.9566 37.102 27.0766 36.52 27.3166 36.008C27.5566 35.492 27.8966 35.086 28.3366 34.79C28.7806 34.49 29.3066 34.34 29.9146 34.34C30.5266 34.34 31.0406 34.49 31.4566 34.79C31.8766 35.086 32.1926 35.492 32.4046 36.008C32.6206 36.524 32.7286 37.106 32.7286 37.754C32.7286 38.402 32.6206 38.984 32.4046 39.5C32.1886 40.016 31.8706 40.426 31.4506 40.73C31.0306 41.03 30.5106 41.18 29.8906 41.18ZM30.0646 40.046C30.4766 40.046 30.8126 39.948 31.0726 39.752C31.3326 39.556 31.5226 39.286 31.6426 38.942C31.7626 38.598 31.8226 38.202 31.8226 37.754C31.8226 37.306 31.7606 36.91 31.6366 36.566C31.5166 36.222 31.3286 35.954 31.0726 35.762C30.8206 35.57 30.4986 35.474 30.1066 35.474C29.6906 35.474 29.3486 35.576 29.0806 35.78C28.8126 35.984 28.6126 36.258 28.4806 36.602C28.3526 36.946 28.2886 37.33 28.2886 37.754C28.2886 38.182 28.3526 38.57 28.4806 38.918C28.6126 39.262 28.8086 39.536 29.0686 39.74C29.3326 39.944 29.6646 40.046 30.0646 40.046ZM37.4913 41.18C36.8473 41.18 36.2813 41.04 35.7933 40.76C35.3093 40.476 34.9313 40.082 34.6593 39.578C34.3913 39.07 34.2573 38.482 34.2573 37.814C34.2573 37.106 34.3893 36.492 34.6533 35.972C34.9213 35.452 35.2933 35.05 35.7693 34.766C36.2453 34.482 36.7993 34.34 37.4313 34.34C38.0913 34.34 38.6533 34.494 39.1173 34.802C39.5813 35.106 39.9273 35.54 40.1553 36.104C40.3873 36.668 40.4793 37.338 40.4313 38.114H39.1773V37.658C39.1693 36.906 39.0253 36.35 38.7453 35.99C38.4693 35.63 38.0473 35.45 37.4793 35.45C36.8513 35.45 36.3793 35.648 36.0633 36.044C35.7473 36.44 35.5893 37.012 35.5893 37.76C35.5893 38.472 35.7473 39.024 36.0633 39.416C36.3793 39.804 36.8353 39.998 37.4313 39.998C37.8233 39.998 38.1613 39.91 38.4453 39.734C38.7333 39.554 38.9573 39.298 39.1173 38.966L40.3473 39.356C40.0953 39.936 39.7133 40.386 39.2013 40.706C38.6893 41.022 38.1193 41.18 37.4913 41.18ZM35.1813 38.114V37.136H39.8073V38.114H35.1813ZM44.2555 41.174C43.4675 41.174 42.8255 41 42.3295 40.652C41.8335 40.304 41.5295 39.814 41.4175 39.182L42.7015 38.984C42.7815 39.32 42.9655 39.586 43.2535 39.782C43.5455 39.974 43.9075 40.07 44.3395 40.07C44.7315 40.07 45.0375 39.99 45.2575 39.83C45.4815 39.67 45.5935 39.45 45.5935 39.17C45.5935 39.006 45.5535 38.874 45.4735 38.774C45.3975 38.67 45.2355 38.572 44.9875 38.48C44.7395 38.388 44.3615 38.274 43.8535 38.138C43.2975 37.994 42.8555 37.84 42.5275 37.676C42.2035 37.508 41.9715 37.314 41.8315 37.094C41.6955 36.87 41.6275 36.6 41.6275 36.284C41.6275 35.892 41.7315 35.55 41.9395 35.258C42.1475 34.966 42.4395 34.74 42.8155 34.58C43.1955 34.42 43.6395 34.34 44.1475 34.34C44.6435 34.34 45.0855 34.418 45.4735 34.574C45.8615 34.73 46.1755 34.952 46.4155 35.24C46.6555 35.524 46.7995 35.858 46.8475 36.242L45.5635 36.476C45.5195 36.164 45.3735 35.918 45.1255 35.738C44.8775 35.558 44.5555 35.46 44.1595 35.444C43.7795 35.428 43.4715 35.492 43.2355 35.636C42.9995 35.776 42.8815 35.97 42.8815 36.218C42.8815 36.362 42.9255 36.484 43.0135 36.584C43.1055 36.684 43.2815 36.78 43.5415 36.872C43.8015 36.964 44.1855 37.074 44.6935 37.202C45.2375 37.342 45.6695 37.498 45.9895 37.67C46.3095 37.838 46.5375 38.04 46.6735 38.276C46.8135 38.508 46.8835 38.79 46.8835 39.122C46.8835 39.762 46.6495 40.264 46.1815 40.628C45.7175 40.992 45.0755 41.174 44.2555 41.174ZM51.9191 41C51.5111 41.08 51.1111 41.114 50.7191 41.102C50.3271 41.09 49.9771 41.014 49.6691 40.874C49.3611 40.734 49.1291 40.514 48.9731 40.214C48.8331 39.946 48.7571 39.674 48.7451 39.398C48.7371 39.118 48.7331 38.802 48.7331 38.45V32.72H49.9931V38.39C49.9931 38.65 49.9951 38.876 49.9991 39.068C50.0071 39.26 50.0491 39.422 50.1251 39.554C50.2691 39.802 50.4971 39.944 50.8091 39.98C51.1251 40.012 51.4951 39.998 51.9191 39.938V41ZM47.4911 35.528V34.52H51.9191V35.528H47.4911ZM53.4053 33.458V32.24H54.6593V33.458H53.4053ZM53.4053 41V34.52H54.6593V41H53.4053ZM57.0551 41V34.292C57.0551 34.128 57.0611 33.954 57.0731 33.77C57.0851 33.582 57.1191 33.398 57.1751 33.218C57.2351 33.034 57.3331 32.866 57.4691 32.714C57.6331 32.534 57.8131 32.406 58.0091 32.33C58.2051 32.254 58.3991 32.21 58.5911 32.198C58.7871 32.186 58.9671 32.18 59.1311 32.18H59.9471V33.212H59.1911C58.8951 33.212 58.6731 33.286 58.5251 33.434C58.3811 33.578 58.3091 33.784 58.3091 34.052V41H57.0551ZM55.9811 35.528V34.52H59.9471V35.528H55.9811ZM63.3805 41.174C62.5925 41.174 61.9505 41 61.4545 40.652C60.9585 40.304 60.6545 39.814 60.5425 39.182L61.8265 38.984C61.9065 39.32 62.0905 39.586 62.3785 39.782C62.6705 39.974 63.0325 40.07 63.4645 40.07C63.8565 40.07 64.1625 39.99 64.3825 39.83C64.6065 39.67 64.7185 39.45 64.7185 39.17C64.7185 39.006 64.6785 38.874 64.5985 38.774C64.5225 38.67 64.3605 38.572 64.1125 38.48C63.8645 38.388 63.4865 38.274 62.9785 38.138C62.4225 37.994 61.9805 37.84 61.6525 37.676C61.3285 37.508 61.0965 37.314 60.9565 37.094C60.8205 36.87 60.7525 36.6 60.7525 36.284C60.7525 35.892 60.8565 35.55 61.0645 35.258C61.2725 34.966 61.5645 34.74 61.9405 34.58C62.3205 34.42 62.7645 34.34 63.2725 34.34C63.7685 34.34 64.2105 34.418 64.5985 34.574C64.9865 34.73 65.3005 34.952 65.5405 35.24C65.7805 35.524 65.9245 35.858 65.9725 36.242L64.6885 36.476C64.6445 36.164 64.4985 35.918 64.2505 35.738C64.0025 35.558 63.6805 35.46 63.2845 35.444C62.9045 35.428 62.5965 35.492 62.3605 35.636C62.1245 35.776 62.0065 35.97 62.0065 36.218C62.0065 36.362 62.0505 36.484 62.1385 36.584C62.2305 36.684 62.4065 36.78 62.6665 36.872C62.9265 36.964 63.3105 37.074 63.8185 37.202C64.3625 37.342 64.7945 37.498 65.1145 37.67C65.4345 37.838 65.6625 38.04 65.7985 38.276C65.9385 38.508 66.0085 38.79 66.0085 39.122C66.0085 39.762 65.7745 40.264 65.3065 40.628C64.8425 40.992 64.2005 41.174 63.3805 41.174Z" fill="#3A2544"/>
</svg>
