<svg width="120" height="120" viewBox="0 0 120 120" fill="none" xmlns="http://www.w3.org/2000/svg">
<rect width="120" height="120" rx="8" fill="#F2E5F9"/>
<path d="M82.2918 43.7698C81.488 41.5084 80.0749 37.4618 76.2959 34.1144C74.4213 32.4481 72.2195 31.1984 69.8688 30.3504C71.059 29.0262 71.8475 27.3749 72.2046 25.9317C72.4129 25.054 72.7848 23.4621 72.041 21.8107C70.8656 19.1923 67.8753 18.5228 67.176 18.374C64.6468 17.8087 61.1804 18.3294 59.2017 20.8883C57.8925 22.5694 57.8032 24.4142 57.7735 25.0837C57.7735 25.2622 57.7288 27.1814 58.6364 29.0858C54.5451 29.5321 50.6025 30.9306 47.389 33.1771C43.9672 35.5574 42.1521 38.3693 40.9322 40.2588C39.1618 42.9962 37.4658 46.6263 34.5498 62.5749C34.1481 64.747 33.8208 66.6811 33.5381 68.3474C43.0745 69.2996 67.1165 71.0104 80.9974 72.7064C81.488 70.2666 82.0236 67.4548 82.2918 65.9373C83.6455 57.7844 84.8055 50.9408 82.2918 43.7698ZM69.363 24.7564C68.9465 26.3929 67.5331 27.9997 65.599 28.3121C65.2717 28.3568 63.9476 28.5799 62.7871 27.7914C61.1655 26.6905 61.1506 24.4886 61.1506 23.8042C61.1506 23.1051 61.1506 22.4207 61.5523 21.7363C62.4748 20.1891 64.751 19.8766 66.328 20.2188C66.7446 20.3081 68.5448 20.7246 69.244 22.2867C69.7201 23.3282 69.4671 24.3399 69.363 24.7564Z" fill="#E3B3FA"/>
<path d="M91.9164 75.5483C91.9164 75.5483 91.6489 75.1019 91.247 74.7003C90.6076 74.0606 86.6351 73.3762 80.9814 72.6918C67.0861 70.9958 43.0591 69.2849 33.5226 68.3327C32.139 68.1988 31.0678 68.0798 30.3686 67.9757C28.9106 67.7674 24.4474 66.8152 22.2901 69.151C21.6355 69.8651 21.2785 70.7726 20.7727 75.7119C20.2966 80.2944 20.0734 82.5706 20.2668 83.2844C21.4868 87.5394 30.2645 87.5244 43.2376 89.1763C43.6541 89.2356 44.0559 89.28 44.4873 89.34C44.4873 89.34 54.9759 90.7381 66.3869 91.6756C74.3463 92.33 82.752 92.7763 88.3758 92.36C88.5545 92.345 88.9264 92.315 89.3576 92.1069C90.8451 91.3481 90.9795 89.2506 91.4108 86.3044C92.3333 79.8625 93.4339 77.8838 91.9164 75.5483Z" fill="#CD86D6"/>
<path d="M66.3879 91.6756C66.0606 95.4694 63.7397 99.3969 60.2137 100.929C57.997 101.896 55.7952 101.703 54.5604 101.614C51.1385 101.331 48.773 99.8581 48.0142 99.3525C46.8389 98.5788 45.0387 97.3738 43.9527 95.0675C42.822 92.6869 43.0452 90.3663 43.2535 89.1763C43.67 89.2356 44.0717 89.28 44.5032 89.3394C44.4883 89.3394 54.9769 90.7381 66.3879 91.6756Z" fill="#F9A172"/>
<path d="M22.2166 28.7578C22.3803 30.4836 24.5078 30.5729 27.6171 33.355C31.277 36.6429 31.6638 37.0446 31.6638 37.0446C32.2143 37.5951 32.9879 38.3836 33.8806 38.2794C34.2823 38.2348 34.4906 38.0265 35.2642 37.3124C37.4809 35.2742 37.9124 35.0064 38.0016 34.322C38.0909 33.6674 37.8082 33.1467 37.5999 32.7599C35.9039 29.6208 33.6128 26.6453 33.0177 25.8568C30.3993 22.3903 30.2653 21.215 29.0751 21.1406C28.1974 21.0811 27.2303 21.9439 25.3111 23.6698C23.6746 25.1426 23.1391 26.065 22.8415 26.6601C22.4101 27.5974 22.1571 28.1181 22.2166 28.7578Z" fill="#F9A172"/>
<path d="M103.358 41.3154C102.658 42.7287 100.769 42.1932 96.4246 43.4875C94.8034 43.9784 93.1665 44.3802 91.5302 44.8414C90.459 45.1389 89.4471 45.4216 88.7327 44.9009C88.3909 44.6479 88.3315 44.3801 87.9596 43.2197C87.0221 40.3484 86.6502 39.7681 86.9921 39.0094C87.2302 38.4738 87.6765 38.1911 88.019 37.9829C91.8571 35.5876 93.7615 34.3974 94.8027 33.8618C98.9834 31.7194 99.534 31.0946 100.441 31.4963C101.215 31.8533 101.661 32.9989 102.54 35.3198C103.253 37.1944 103.402 38.3994 103.447 39.0094C103.536 40.2294 103.581 40.8393 103.358 41.3154Z" fill="#F9A172"/>
<path d="M16.8308 60.0608C17.7086 60.9833 19.1517 60.2543 23.1538 59.8674C23.9869 59.7931 26.1739 59.5996 28.1674 59.4509C30.1759 59.3021 31.3214 59.2277 31.7975 58.4243C32.0356 58.0226 31.8719 57.8293 31.8273 56.4308C31.7529 53.9759 32.1992 53.0833 31.5446 52.3989C31.2173 52.0568 30.8156 51.9675 30.4586 51.908C25.5788 50.9112 23.8529 50.6732 22.3206 50.331C19.8361 49.7805 19.479 49.3193 18.6161 49.6913C17.0688 50.3756 16.5779 52.6073 16.2803 53.9759C15.9084 55.7166 16.1018 57.1151 16.2357 58.0226C16.4291 59.1533 16.5035 59.7187 16.8308 60.0608Z" fill="#F9A172"/>
<path d="M102.183 70.0724C101.35 70.6675 100.517 70.2807 96.2617 69.1797C96.2167 69.1649 94.1342 68.6293 91.4261 67.692C90.0723 67.2308 89.3586 66.9332 88.9267 66.2042C88.5848 65.6389 88.6442 64.8802 88.7636 63.4073C88.9267 61.4286 89.0461 60.0599 89.9236 59.6433C90.1767 59.5243 90.3698 59.5392 90.7717 59.5392C91.9617 59.5689 93.1373 59.5689 94.3273 59.5838C96.7373 59.6284 97.943 59.6879 99.0436 59.6879C101.737 59.6582 102.183 59.3755 102.793 59.8367C103.745 60.5508 103.789 61.9642 103.864 64.0173C103.939 66.0555 103.492 67.4242 103.343 67.8705C102.912 69.0905 102.704 69.6856 102.183 70.0724Z" fill="#F9A172"/>
<path d="M54.5598 34.2187C50.4833 33.5046 46.6449 38.3101 45.7671 39.411C45.4696 39.7829 43.6843 42.0741 42.8809 45.5256C42.5239 47.058 42.1668 48.7094 43.1041 49.9889C43.8033 50.9261 45.0679 51.1493 45.4101 51.2237C45.4994 51.2386 46.8978 51.5212 47.9393 51.06C50.3048 50.0186 48.5493 46.2695 51.2272 42.9072C51.9859 41.955 54.0836 39.8424 56.4641 37.9976C56.9253 37.6406 57.6691 37.0901 57.6245 36.3909C57.6096 35.3494 55.9136 34.4568 54.5598 34.2187Z" fill="white"/>
<rect x="8" y="8" width="97" height="25" rx="8" fill="#FDFDFD"/>
<path d="M16.84 25V16.36H22.36V17.542H18.094V19.966H21.64V21.148H18.094V23.818H22.36V25H16.84ZM28.3489 25V21.814C28.3489 21.562 28.3269 21.304 28.2829 21.04C28.2429 20.772 28.1629 20.524 28.0429 20.296C27.9269 20.068 27.7609 19.884 27.5449 19.744C27.3329 19.604 27.0549 19.534 26.7109 19.534C26.4869 19.534 26.2749 19.572 26.0749 19.648C25.8749 19.72 25.6989 19.838 25.5469 20.002C25.3989 20.166 25.2809 20.382 25.1929 20.65C25.1089 20.918 25.0669 21.244 25.0669 21.628L24.2869 21.334C24.2869 20.746 24.3969 20.228 24.6169 19.78C24.8369 19.328 25.1529 18.976 25.5649 18.724C25.9769 18.472 26.4749 18.346 27.0589 18.346C27.5069 18.346 27.8829 18.418 28.1869 18.562C28.4909 18.706 28.7369 18.896 28.9249 19.132C29.1169 19.364 29.2629 19.618 29.3629 19.894C29.4629 20.17 29.5309 20.44 29.5669 20.704C29.6029 20.968 29.6209 21.2 29.6209 21.4V25H28.3489ZM23.7949 25V18.52H24.9169V20.392H25.0669V25H23.7949ZM33.6757 25.18C33.0717 25.18 32.5497 25.03 32.1097 24.73C31.6737 24.43 31.3357 24.022 31.0957 23.506C30.8597 22.986 30.7417 22.402 30.7417 21.754C30.7417 21.102 30.8617 20.52 31.1017 20.008C31.3417 19.492 31.6817 19.086 32.1217 18.79C32.5657 18.49 33.0917 18.34 33.6997 18.34C34.3117 18.34 34.8257 18.49 35.2417 18.79C35.6617 19.086 35.9777 19.492 36.1897 20.008C36.4057 20.524 36.5137 21.106 36.5137 21.754C36.5137 22.402 36.4057 22.984 36.1897 23.5C35.9737 24.016 35.6557 24.426 35.2357 24.73C34.8157 25.03 34.2957 25.18 33.6757 25.18ZM33.8497 24.046C34.2617 24.046 34.5977 23.948 34.8577 23.752C35.1177 23.556 35.3077 23.286 35.4277 22.942C35.5477 22.598 35.6077 22.202 35.6077 21.754C35.6077 21.306 35.5457 20.91 35.4217 20.566C35.3017 20.222 35.1137 19.954 34.8577 19.762C34.6057 19.57 34.2837 19.474 33.8917 19.474C33.4757 19.474 33.1337 19.576 32.8657 19.78C32.5977 19.984 32.3977 20.258 32.2657 20.602C32.1377 20.946 32.0737 21.33 32.0737 21.754C32.0737 22.182 32.1377 22.57 32.2657 22.918C32.3977 23.262 32.5937 23.536 32.8537 23.74C33.1177 23.944 33.4497 24.046 33.8497 24.046ZM35.6077 25V20.338H35.4637V16.36H36.7237V25H35.6077ZM41.2165 25.18C40.5685 25.18 40.0065 25.034 39.5305 24.742C39.0545 24.45 38.6865 24.048 38.4265 23.536C38.1705 23.02 38.0425 22.426 38.0425 21.754C38.0425 21.078 38.1745 20.484 38.4385 19.972C38.7025 19.456 39.0725 19.056 39.5485 18.772C40.0245 18.484 40.5805 18.34 41.2165 18.34C41.8645 18.34 42.4265 18.486 42.9025 18.778C43.3785 19.07 43.7465 19.472 44.0065 19.984C44.2665 20.496 44.3965 21.086 44.3965 21.754C44.3965 22.43 44.2645 23.026 44.0005 23.542C43.7405 24.054 43.3725 24.456 42.8965 24.748C42.4205 25.036 41.8605 25.18 41.2165 25.18ZM41.2165 23.998C41.8365 23.998 42.2985 23.79 42.6025 23.374C42.9105 22.954 43.0645 22.414 43.0645 21.754C43.0645 21.078 42.9085 20.538 42.5965 20.134C42.2885 19.726 41.8285 19.522 41.2165 19.522C40.7965 19.522 40.4505 19.618 40.1785 19.81C39.9065 19.998 39.7045 20.26 39.5725 20.596C39.4405 20.928 39.3745 21.314 39.3745 21.754C39.3745 22.434 39.5305 22.978 39.8425 23.386C40.1545 23.794 40.6125 23.998 41.2165 23.998ZM53.479 25L53.485 20.962C53.485 20.494 53.365 20.13 53.125 19.87C52.885 19.606 52.569 19.474 52.177 19.474C51.937 19.474 51.717 19.53 51.517 19.642C51.321 19.75 51.161 19.914 51.037 20.134C50.917 20.35 50.857 20.622 50.857 20.95L50.251 20.644C50.243 20.188 50.339 19.788 50.539 19.444C50.743 19.1 51.019 18.834 51.367 18.646C51.715 18.454 52.105 18.358 52.537 18.358C53.237 18.358 53.779 18.568 54.163 18.988C54.547 19.408 54.739 19.966 54.739 20.662L54.733 25H53.479ZM45.709 25V18.52H46.825V20.392H46.969V25H45.709ZM49.597 25L49.603 20.986C49.603 20.514 49.483 20.144 49.243 19.876C49.007 19.608 48.689 19.474 48.289 19.474C47.893 19.474 47.573 19.61 47.329 19.882C47.089 20.154 46.969 20.51 46.969 20.95L46.369 20.566C46.369 20.142 46.471 19.764 46.675 19.432C46.879 19.1 47.155 18.838 47.503 18.646C47.851 18.454 48.245 18.358 48.685 18.358C49.145 18.358 49.537 18.456 49.861 18.652C50.185 18.844 50.431 19.114 50.599 19.462C50.771 19.81 50.857 20.214 50.857 20.674L50.851 25H49.597ZM59.729 17.56H58.745L59.603 15.46H60.587L59.729 17.56ZM59.171 25.18C58.527 25.18 57.961 25.04 57.473 24.76C56.989 24.476 56.611 24.082 56.339 23.578C56.071 23.07 55.937 22.482 55.937 21.814C55.937 21.106 56.069 20.492 56.333 19.972C56.601 19.452 56.973 19.05 57.449 18.766C57.925 18.482 58.479 18.34 59.111 18.34C59.771 18.34 60.333 18.494 60.797 18.802C61.261 19.106 61.607 19.54 61.835 20.104C62.067 20.668 62.159 21.338 62.111 22.114H60.857V21.658C60.849 20.906 60.705 20.35 60.425 19.99C60.149 19.63 59.727 19.45 59.159 19.45C58.531 19.45 58.059 19.648 57.743 20.044C57.427 20.44 57.269 21.012 57.269 21.76C57.269 22.472 57.427 23.024 57.743 23.416C58.059 23.804 58.515 23.998 59.111 23.998C59.503 23.998 59.841 23.91 60.125 23.734C60.413 23.554 60.637 23.298 60.797 22.966L62.027 23.356C61.775 23.936 61.393 24.386 60.881 24.706C60.369 25.022 59.799 25.18 59.171 25.18ZM56.861 22.114V21.136H61.487V22.114H56.861ZM67.1652 25C66.7572 25.08 66.3572 25.114 65.9652 25.102C65.5732 25.09 65.2232 25.014 64.9152 24.874C64.6072 24.734 64.3752 24.514 64.2192 24.214C64.0792 23.946 64.0032 23.674 63.9912 23.398C63.9832 23.118 63.9792 22.802 63.9792 22.45V16.72H65.2392V22.39C65.2392 22.65 65.2412 22.876 65.2452 23.068C65.2532 23.26 65.2952 23.422 65.3712 23.554C65.5152 23.802 65.7432 23.944 66.0552 23.98C66.3712 24.012 66.7412 23.998 67.1652 23.938V25ZM62.7372 19.528V18.52H67.1652V19.528H62.7372ZM68.5314 25V18.52H69.6474V20.092L69.4914 19.888C69.5714 19.68 69.6754 19.49 69.8034 19.318C69.9314 19.142 70.0794 18.998 70.2474 18.886C70.4114 18.766 70.5934 18.674 70.7934 18.61C70.9974 18.542 71.2054 18.502 71.4174 18.49C71.6294 18.474 71.8334 18.484 72.0294 18.52V19.696C71.8174 19.64 71.5814 19.624 71.3214 19.648C71.0654 19.672 70.8294 19.754 70.6134 19.894C70.4094 20.026 70.2474 20.186 70.1274 20.374C70.0114 20.562 69.9274 20.772 69.8754 21.004C69.8234 21.232 69.7974 21.474 69.7974 21.73V25H68.5314ZM73.292 17.458V16.24H74.546V17.458H73.292ZM73.292 25V18.52H74.546V25H73.292ZM79.1618 25.18C78.5138 25.18 77.9518 25.034 77.4758 24.742C76.9998 24.45 76.6318 24.048 76.3718 23.536C76.1158 23.02 75.9878 22.426 75.9878 21.754C75.9878 21.078 76.1198 20.484 76.3838 19.972C76.6478 19.456 77.0178 19.056 77.4938 18.772C77.9698 18.484 78.5258 18.34 79.1618 18.34C79.8098 18.34 80.3718 18.486 80.8478 18.778C81.3238 19.07 81.6918 19.472 81.9518 19.984C82.2118 20.496 82.3418 21.086 82.3418 21.754C82.3418 22.43 82.2098 23.026 81.9458 23.542C81.6858 24.054 81.3178 24.456 80.8418 24.748C80.3658 25.036 79.8058 25.18 79.1618 25.18ZM79.1618 23.998C79.7818 23.998 80.2438 23.79 80.5478 23.374C80.8558 22.954 81.0098 22.414 81.0098 21.754C81.0098 21.078 80.8538 20.538 80.5418 20.134C80.2338 19.726 79.7738 19.522 79.1618 19.522C78.7418 19.522 78.3958 19.618 78.1238 19.81C77.8518 19.998 77.6498 20.26 77.5178 20.596C77.3858 20.928 77.3198 21.314 77.3198 21.754C77.3198 22.434 77.4758 22.978 77.7878 23.386C78.0998 23.794 78.5578 23.998 79.1618 23.998ZM86.0211 25.174C85.2331 25.174 84.5911 25 84.0951 24.652C83.5991 24.304 83.2951 23.814 83.1831 23.182L84.4671 22.984C84.5471 23.32 84.7311 23.586 85.0191 23.782C85.3111 23.974 85.6731 24.07 86.1051 24.07C86.4971 24.07 86.8031 23.99 87.0231 23.83C87.2471 23.67 87.3591 23.45 87.3591 23.17C87.3591 23.006 87.3191 22.874 87.2391 22.774C87.1631 22.67 87.0011 22.572 86.7531 22.48C86.5051 22.388 86.1271 22.274 85.6191 22.138C85.0631 21.994 84.6211 21.84 84.2931 21.676C83.9691 21.508 83.7371 21.314 83.5971 21.094C83.4611 20.87 83.3931 20.6 83.3931 20.284C83.3931 19.892 83.4971 19.55 83.7051 19.258C83.9131 18.966 84.2051 18.74 84.5811 18.58C84.9611 18.42 85.4051 18.34 85.9131 18.34C86.4091 18.34 86.8511 18.418 87.2391 18.574C87.6271 18.73 87.9411 18.952 88.1811 19.24C88.4211 19.524 88.5651 19.858 88.6131 20.242L87.3291 20.476C87.2851 20.164 87.1391 19.918 86.8911 19.738C86.6431 19.558 86.3211 19.46 85.9251 19.444C85.5451 19.428 85.2371 19.492 85.0011 19.636C84.7651 19.776 84.6471 19.97 84.6471 20.218C84.6471 20.362 84.6911 20.484 84.7791 20.584C84.8711 20.684 85.0471 20.78 85.3071 20.872C85.5671 20.964 85.9511 21.074 86.4591 21.202C87.0031 21.342 87.4351 21.498 87.7551 21.67C88.0751 21.838 88.3031 22.04 88.4391 22.276C88.5791 22.508 88.6491 22.79 88.6491 23.122C88.6491 23.762 88.4151 24.264 87.9471 24.628C87.4831 24.992 86.8411 25.174 86.0211 25.174ZM92.8507 25.18C92.2067 25.18 91.6407 25.04 91.1527 24.76C90.6687 24.476 90.2907 24.082 90.0187 23.578C89.7507 23.07 89.6167 22.482 89.6167 21.814C89.6167 21.106 89.7487 20.492 90.0127 19.972C90.2807 19.452 90.6527 19.05 91.1287 18.766C91.6047 18.482 92.1587 18.34 92.7907 18.34C93.4507 18.34 94.0127 18.494 94.4767 18.802C94.9407 19.106 95.2867 19.54 95.5147 20.104C95.7467 20.668 95.8387 21.338 95.7907 22.114H94.5367V21.658C94.5287 20.906 94.3847 20.35 94.1047 19.99C93.8287 19.63 93.4067 19.45 92.8387 19.45C92.2107 19.45 91.7387 19.648 91.4227 20.044C91.1067 20.44 90.9487 21.012 90.9487 21.76C90.9487 22.472 91.1067 23.024 91.4227 23.416C91.7387 23.804 92.1947 23.998 92.7907 23.998C93.1827 23.998 93.5207 23.91 93.8047 23.734C94.0927 23.554 94.3167 23.298 94.4767 22.966L95.7067 23.356C95.4547 23.936 95.0727 24.386 94.5607 24.706C94.0487 25.022 93.4787 25.18 92.8507 25.18ZM90.5407 22.114V21.136H95.1667V22.114H90.5407Z" fill="#3A2544"/>
</svg>
