<svg width="40" height="40" viewBox="0 0 40 40" fill="none" xmlns="http://www.w3.org/2000/svg">
<mask id="mask0_197_2563" style="mask-type:luminance" maskUnits="userSpaceOnUse" x="0" y="0" width="40" height="40">
<path d="M39.9496 0H0V39.9496H39.9496V0Z" fill="white"/>
</mask>
<g mask="url(#mask0_197_2563)">
<path d="M19.6094 18.0944C18.6097 18.574 17.1441 19.2899 15.3744 20.168C9.53201 23.0791 8.13389 23.9571 7.57327 24.3151C4.31098 26.4157 2.65619 27.5098 1.68358 29.6238C1.36613 30.3127 0.224664 32.7849 1.27157 35.4325C2.44681 38.3978 5.49297 39.3432 6.24944 39.5796C6.72899 39.7284 9.73464 40.6132 12.72 38.9989C14.5031 38.0397 15.4285 36.6484 15.7932 36.0946C16.9482 34.3181 17.1711 32.5958 17.2859 31.7785C17.7317 28.5499 18.5422 23.9774 19.6094 18.0944Z" fill="#3A2544"/>
<path d="M18.515 0C17.5019 0.601127 15.9484 1.46567 13.9761 2.32346C10.5653 3.80263 9.53187 3.69457 6.64104 5.11972C4.10143 6.376 2.04816 7.42968 1.20387 9.65857C0.663535 11.0905 0.872917 12.367 0.940458 12.7723C1.30519 14.8594 2.78437 16.7978 4.79713 17.5408C5.81027 17.9123 6.6343 17.865 7.90409 17.7839C9.2009 17.7029 11.1664 17.5881 12.7604 16.3588C13.7938 15.5685 14.2328 14.5689 15.0839 12.6102C15.9214 10.6717 16.3537 9.08448 17.1777 5.69385C17.5492 4.14036 18.0085 2.21539 18.515 0Z" fill="#3A2544"/>
<path d="M38.865 0.939148C35.8189 3.49226 33.2253 5.20784 31.3679 6.32905C31.2935 6.37632 27.957 8.26077 25.6133 11.1178C24.9919 11.8743 24.6339 12.4754 24.3773 13.3872C23.8437 15.2582 24.4313 16.8657 24.6002 17.2777C24.7893 17.7572 25.6066 19.6146 27.6733 20.5535C30.2063 21.7017 32.6175 20.5535 32.9621 20.3779C35.5825 19.0608 36.4742 16.2038 37.244 13.7452C37.4941 12.9549 37.7506 11.9418 38.2099 7.93654C38.5408 5.01195 38.7436 2.6007 38.865 0.939148Z" fill="#3A2544"/>
<path d="M7.14836 6.43678C6.196 5.86268 4.31155 7.29457 3.37273 8.40903C2.60274 9.33435 2.35959 10.1921 2.29204 10.4083C2.19748 10.7122 2.14345 11.0499 2.11643 11.5025C2.04889 12.8196 1.9881 13.2788 3.1701 14.4676C4.35208 15.6496 6.196 14.4676 5.8718 13.1505C5.54084 11.8334 4.55471 9.82067 5.48006 8.91561C6.27029 8.13885 7.54685 8.0713 7.62115 7.27432C7.65491 6.94335 7.42529 6.59888 7.14836 6.43678Z" fill="#F2E5F9"/>
<path d="M6.9456 26.9561C5.35836 26.8683 4.04127 28.7729 3.60224 29.4011C3.06191 30.1779 2.85254 30.8397 2.75121 31.1371C2.75121 31.1371 2.56209 31.7516 2.52832 32.3594C2.47429 33.2646 2.77823 35.4462 4.10205 35.8042C4.90582 36.0201 5.66904 35.4663 5.86493 35.3111C6.49307 34.8112 6.83078 34.0076 6.79024 33.2848C6.73623 32.4406 6.26342 32.346 6.16887 31.3194C6.13508 30.9141 6.0743 30.252 6.45931 29.7052C6.87805 29.1175 7.39139 29.2593 7.79662 28.6042C7.84392 28.5298 8.24918 27.8544 7.97226 27.3883C7.7291 26.9831 7.1077 26.9628 6.9456 26.9561Z" fill="#F2E5F9"/>
<path d="M27.8492 11.1448C27.1265 11.1853 26.6402 12.1309 26.2282 12.9279C26.0324 13.3129 25.7959 13.7857 25.6744 14.4679C25.6203 14.7718 25.546 15.4067 25.7014 16.1835C25.8365 16.8386 25.958 17.4735 26.5119 17.8923C26.6132 17.9733 26.9915 18.2368 27.5115 18.2368C27.5656 18.2368 28.4639 18.2232 28.7069 17.6627C28.8487 17.3384 28.7069 17.0007 28.5922 16.7373C28.3019 16.0619 27.802 16.0416 27.5791 15.508C27.4035 15.0893 27.525 14.6773 27.6466 14.2585C27.9303 13.2994 28.5246 13.0225 28.6868 12.0566C28.7136 11.8878 28.7341 11.6716 28.6124 11.4825C28.4571 11.2191 28.0991 11.1313 27.8492 11.1448Z" fill="#F2E5F9"/>
</g>
</svg>
