<svg width="120" height="120" viewBox="0 0 120 120" fill="none" xmlns="http://www.w3.org/2000/svg">
<rect width="120" height="120" rx="8" fill="#FAEBE3"/>
<mask id="mask0_227_4485" style="mask-type:luminance" maskUnits="userSpaceOnUse" x="15" y="15" width="90" height="90">
<path d="M104.887 15H15V104.887H104.887V15Z" fill="white"/>
</mask>
<g mask="url(#mask0_227_4485)">
<path d="M70.2551 60.4923C68.0106 62.4997 60.0285 65.4397 55.7133 66.9255C53.5004 62.6578 51.9198 58.1056 51.1611 53.6166C52.5204 55.1182 54.7966 56.8569 58.6375 58.1688C66.9674 61.0139 73.3847 57.7104 70.2551 60.4923Z" fill="#DB8EFF"/>
<path d="M97.9154 92.5315C98.5007 97.8271 69.496 110.898 47.5094 101.715C38.6896 98.0322 32.7464 91.5044 32.4303 91.1564C26.9139 84.9923 24.8117 78.7483 23.7052 75.3661C20.4807 65.4713 21.2394 56.9676 21.7769 53.2057C22.504 48.0528 25.5229 32.8946 38.0731 23.1263C45.9446 17.0093 56.6296 13.2632 58.6529 15.808C59.7435 17.1674 57.7993 19.6806 55.4442 25.687C55.4442 25.687 52.4252 33.4004 50.9394 43.7219C50.481 46.8832 50.5917 50.2341 51.1449 53.6166C51.9036 58.1056 53.4842 62.6578 55.6971 66.9255C56.4242 68.3164 57.2145 69.6758 58.0681 70.9877C58.3052 71.3671 58.558 71.7464 58.8109 72.11C61.5138 76.0457 64.7541 79.5703 68.3896 82.3364C82.4253 93.0376 97.5044 88.7541 97.9154 92.5315Z" fill="#E3B3FA"/>
<path d="M29.6797 53.4585C29.6797 53.4585 32.6197 57.7578 36.1129 57.9475C39.6061 58.1372 42.1824 57.6471 44.2531 56.2562C46.3237 54.8652 46.8769 49.254 46.8769 49.254L44.6166 49.7282C44.6166 49.7282 45.1066 50.566 43.8263 52.7156C42.546 54.8652 39.8115 56.0665 37.6303 56.2088C35.449 56.351 31.3551 52.4785 31.3551 52.4785L29.6797 53.4585Z" fill="#3A2544"/>
<path d="M58.8265 72.1257C54.4165 75.4134 49.1531 75.7611 46.6399 75.3344C43.9212 74.876 38.958 71.9044 38.958 71.9044L39.5745 69.3754C39.5745 69.3754 40.0013 69.739 42.4828 71.5092C44.9802 73.2795 48.4576 74.718 51.9666 73.6431C54.1004 72.9951 56.5188 71.8096 58.0678 70.9876C58.3207 71.3828 58.5736 71.7463 58.8265 72.1257Z" fill="#3A2544"/>
<path d="M29.348 46.1244C32.0193 44.528 34.7221 42.9474 37.4566 41.3509C40.0647 39.8336 42.6727 38.3477 45.2491 36.8778C45.1701 36.4984 45.091 36.1191 45.012 35.7397C45.012 35.7397 38.8634 38.2213 35.8128 40.2287C32.778 42.2203 29.0635 44.7651 29.0635 44.7651C29.1583 45.2235 29.2532 45.6819 29.348 46.1244Z" fill="#3A2544"/>
<path d="M76.8777 33.0056C80.4657 29.0699 78.0313 19.9971 80.5286 17.3258C80.6872 17.152 80.8767 16.9939 81.1139 17.0097C82.4734 17.0887 83.1846 23.1742 83.6585 26.4144C84.196 30.0815 84.7177 32.8001 86.2981 33.9698C87.8633 35.1395 97.9949 34.2702 97.4732 36.3724C96.9514 38.4746 86.1244 39.5179 84.7177 42.3155C83.3268 45.1133 84.7177 60.3663 82.0939 57.0154C79.47 53.6644 79.6437 42.8372 76.4983 41.7939C71.4245 40.1027 64.533 39.8814 64.3591 37.8423C64.3433 37.7475 64.3591 37.6843 64.3749 37.5895C64.9282 34.8234 73.3529 36.8624 76.8777 33.0056Z" fill="#F9A172"/>
</g>
<rect x="8" y="8" width="48" height="25" rx="8" fill="#FDFDFD"/>
<path d="M19.972 25.18C19.352 25.18 18.792 25.074 18.292 24.862C17.796 24.646 17.386 24.34 17.062 23.944C16.742 23.544 16.534 23.07 16.438 22.522L17.746 22.324C17.878 22.852 18.154 23.264 18.574 23.56C18.994 23.852 19.484 23.998 20.044 23.998C20.392 23.998 20.712 23.944 21.004 23.836C21.296 23.724 21.53 23.566 21.706 23.362C21.886 23.154 21.976 22.906 21.976 22.618C21.976 22.462 21.948 22.324 21.892 22.204C21.84 22.084 21.766 21.98 21.67 21.892C21.578 21.8 21.464 21.722 21.328 21.658C21.196 21.59 21.05 21.532 20.89 21.484L18.676 20.83C18.46 20.766 18.24 20.684 18.016 20.584C17.792 20.48 17.586 20.346 17.398 20.182C17.214 20.014 17.064 19.808 16.948 19.564C16.832 19.316 16.774 19.016 16.774 18.664C16.774 18.132 16.91 17.682 17.182 17.314C17.458 16.942 17.83 16.662 18.298 16.474C18.766 16.282 19.29 16.186 19.87 16.186C20.454 16.194 20.976 16.298 21.436 16.498C21.9 16.698 22.284 16.986 22.588 17.362C22.896 17.734 23.108 18.186 23.224 18.718L21.88 18.946C21.82 18.622 21.692 18.344 21.496 18.112C21.3 17.876 21.06 17.696 20.776 17.572C20.492 17.444 20.184 17.378 19.852 17.374C19.532 17.366 19.238 17.414 18.97 17.518C18.706 17.622 18.494 17.768 18.334 17.956C18.178 18.144 18.1 18.36 18.1 18.604C18.1 18.844 18.17 19.038 18.31 19.186C18.45 19.334 18.622 19.452 18.826 19.54C19.034 19.624 19.24 19.694 19.444 19.75L21.04 20.2C21.24 20.256 21.466 20.332 21.718 20.428C21.974 20.52 22.22 20.65 22.456 20.818C22.696 20.986 22.894 21.21 23.05 21.49C23.206 21.766 23.284 22.114 23.284 22.534C23.284 22.97 23.196 23.354 23.02 23.686C22.844 24.014 22.602 24.29 22.294 24.514C21.99 24.734 21.638 24.9 21.238 25.012C20.838 25.124 20.416 25.18 19.972 25.18ZM28.1687 25.18C27.3047 25.18 26.5687 24.992 25.9607 24.616C25.3527 24.236 24.8867 23.708 24.5627 23.032C24.2427 22.356 24.0827 21.572 24.0827 20.68C24.0827 19.788 24.2427 19.004 24.5627 18.328C24.8867 17.652 25.3527 17.126 25.9607 16.75C26.5687 16.37 27.3047 16.18 28.1687 16.18C29.0287 16.18 29.7627 16.37 30.3707 16.75C30.9827 17.126 31.4487 17.652 31.7687 18.328C32.0887 19.004 32.2487 19.788 32.2487 20.68C32.2487 21.572 32.0887 22.356 31.7687 23.032C31.4487 23.708 30.9827 24.236 30.3707 24.616C29.7627 24.992 29.0287 25.18 28.1687 25.18ZM28.1687 23.986C28.7807 23.994 29.2887 23.86 29.6927 23.584C30.1007 23.304 30.4067 22.916 30.6107 22.42C30.8147 21.92 30.9167 21.34 30.9167 20.68C30.9167 20.02 30.8147 19.444 30.6107 18.952C30.4067 18.456 30.1007 18.07 29.6927 17.794C29.2887 17.518 28.7807 17.378 28.1687 17.374C27.5567 17.366 27.0467 17.5 26.6387 17.776C26.2347 18.052 25.9307 18.44 25.7267 18.94C25.5227 19.44 25.4187 20.02 25.4147 20.68C25.4107 21.34 25.5107 21.918 25.7147 22.414C25.9187 22.906 26.2247 23.29 26.6327 23.566C27.0447 23.842 27.5567 23.982 28.1687 23.986ZM33.4455 25V16.36H36.9375C37.0215 16.36 37.1255 16.364 37.2495 16.372C37.3735 16.376 37.4915 16.388 37.6035 16.408C38.0835 16.484 38.4835 16.648 38.8035 16.9C39.1275 17.152 39.3695 17.47 39.5295 17.854C39.6895 18.238 39.7695 18.662 39.7695 19.126C39.7695 19.594 39.6895 20.02 39.5295 20.404C39.3695 20.788 39.1275 21.106 38.8035 21.358C38.4835 21.61 38.0835 21.774 37.6035 21.85C37.4915 21.866 37.3715 21.878 37.2435 21.886C37.1195 21.894 37.0175 21.898 36.9375 21.898H34.6995V25H33.4455ZM34.6995 20.71H36.8895C36.9695 20.71 37.0575 20.706 37.1535 20.698C37.2535 20.69 37.3475 20.676 37.4355 20.656C37.6915 20.596 37.8975 20.486 38.0535 20.326C38.2095 20.162 38.3215 19.974 38.3895 19.762C38.4575 19.55 38.4915 19.338 38.4915 19.126C38.4915 18.914 38.4575 18.704 38.3895 18.496C38.3215 18.284 38.2095 18.098 38.0535 17.938C37.8975 17.774 37.6915 17.662 37.4355 17.602C37.3475 17.578 37.2535 17.562 37.1535 17.554C37.0575 17.546 36.9695 17.542 36.8895 17.542H34.6995V20.71ZM40.9689 25V16.36H42.2229V20.392L45.8409 16.36H47.4009L43.5789 20.578L47.6829 25H46.0749L42.2229 20.872V25H40.9689Z" fill="#3A2544"/>
</svg>
