<svg width="40" height="40" viewBox="0 0 40 40" fill="none" xmlns="http://www.w3.org/2000/svg">
<g clip-path="url(#clip0_227_2631)">
<g clip-path="url(#clip1_227_2631)">
<mask id="mask0_227_2631" style="mask-type:luminance" maskUnits="userSpaceOnUse" x="0" y="0" width="40" height="40">
<path d="M39.9497 0H0V39.9497H39.9497V0Z" fill="white"/>
</mask>
<g mask="url(#mask0_227_2631)">
<path d="M11.8002 28.2657C11.7793 28.2794 11.7584 28.2934 11.7376 28.3074C9.55969 29.7547 5.32917 30.6036 4.06282 29.9424C2.79644 29.2744 3.21393 27.9455 3.7636 25.2876C4.30635 22.6296 5.51706 20.8761 7.45138 19.1853C9.38573 17.4945 13.4353 17.1883 13.4353 17.1883C12.8787 17.1188 12.3499 17.0005 11.8489 16.8335C10.6173 16.9726 7.10349 17.5154 5.24567 19.1366C2.9704 21.1266 1.54399 23.1931 0.903842 26.3243C0.263699 29.4554 -0.237282 31.021 1.2587 31.8073C2.75469 32.5936 7.73667 31.5916 10.2973 29.8867C10.7426 29.5877 11.167 29.2814 11.5775 28.9614C12.6282 28.1334 13.5536 27.201 14.3329 26.1434C13.5815 26.9366 12.7326 27.6394 11.8002 28.2657Z" fill="#FDFDFD"/>
<path d="M3.73633 9.60431C2.74131 6.40358 1.24532 1.99216 4.30687 1.13631C7.36844 0.280472 12.6357 3.55773 14.6953 7.04372C16.3513 9.84783 16.8175 11.2255 16.9358 11.6569C16.6505 11.0168 16.1982 10.1192 15.4816 8.90847C13.7281 5.94433 9.25406 3.16808 6.65871 3.89172C4.05638 4.61536 5.32973 8.36576 6.17859 11.0864C6.84657 13.2364 8.57912 15.5048 11.1884 16.5971C7.24318 15.6648 4.64782 12.5476 3.73633 9.60431Z" fill="#FDFDFD"/>
<path d="M26.2247 28.4671C25.6611 25.5379 23.9703 22.7616 23.4136 21.9058C23.1492 21.6901 22.9196 21.4883 22.7318 21.3074C22.7318 21.3074 24.6939 24.1115 25.2714 27.1104C25.3688 27.6253 25.8003 30.0884 24.7496 32.8369C24.1929 34.2912 23.7059 35.5785 22.6691 35.8705C20.7069 36.4341 18.1394 33.0249 16.6852 30.1927C16.0937 29.0378 16.0033 27.4026 16.0868 25.9415C16.1911 24.1602 16.546 22.6433 16.5599 22.5807C16.3303 23.1721 16.0589 23.7218 15.7458 24.2367C15.6067 25.016 15.4466 26.1224 15.391 27.3191C15.3144 28.9821 15.4397 30.798 16.1076 32.0993C17.8193 35.4392 20.8461 39.454 23.1562 38.786C24.3738 38.438 24.9514 36.9281 25.6054 35.2095C26.8509 31.974 26.343 29.0724 26.2247 28.4671Z" fill="#FDFDFD"/>
<path d="M17.4148 12.9649C17.4148 12.9649 17.3591 12.61 16.9834 11.7611C17.1573 10.2164 17.7418 7.18968 20.038 4.48993C22.3202 1.7902 26.676 -1.00695 28.7843 0.356839C30.9342 1.7415 30.1619 7.13401 28.2207 10.6061C27.4136 12.0464 26.4255 13.118 25.5557 13.8764C26.0428 13.3406 26.5368 12.7005 26.9613 11.9351C28.6103 8.9918 29.2643 4.40643 27.4414 3.23052C25.6531 2.07548 21.9584 4.4482 20.0101 6.7374C18.0341 9.0614 17.5539 11.6637 17.4148 12.9649Z" fill="#FDFDFD"/>
<path d="M39.5145 22.0173C39.3058 24.0073 34.6787 25.545 30.9422 25.2528C29.0636 25.1067 27.4562 24.5013 26.162 23.7846C25.5149 23.4228 24.9443 23.0401 24.4573 22.6644C24.6939 22.8244 24.9513 22.9775 25.2227 23.1236C26.322 23.7359 27.6858 24.2439 29.2792 24.3691C32.4521 24.6196 36.3833 23.3115 36.5643 21.6206C36.6269 21.0223 36.1886 20.5422 35.298 19.6167C34.3864 18.6635 32.5844 16.7709 29.4462 15.7968C27.2057 15.1009 25.2227 15.1636 23.9424 15.3236C24.2138 15.1218 24.5269 14.8713 24.8608 14.5721C26.3777 14.4051 28.6253 14.3703 31.1509 15.1496C34.8457 16.2908 36.9679 18.5173 38.0395 19.6446C39.0692 20.7509 39.5911 21.3076 39.5145 22.0173Z" fill="#FDFDFD"/>
<path d="M35.291 19.617C34.3794 18.6638 32.5775 16.7712 29.4393 15.7971C27.1988 15.1012 25.2158 15.1639 23.9354 15.3239C24.2068 15.1221 24.5199 14.8716 24.8539 14.5724C25.0835 14.3637 25.3201 14.1271 25.5567 13.8697C26.0438 13.3339 26.5378 12.6938 26.9622 11.9284C28.6113 8.98509 29.2653 4.39972 27.4423 3.22381C25.6541 2.07573 21.9594 4.44842 20.0111 6.73765C18.035 9.06162 17.5549 11.6639 17.4158 12.9651C17.4158 12.9651 17.3601 12.6103 16.9843 11.7614C16.9704 11.7266 16.9565 11.6987 16.9426 11.6639C16.6573 11.0238 16.205 10.1262 15.4883 8.91553C13.7349 5.95139 9.26087 3.17511 6.66551 3.89874C4.06319 4.62238 5.33651 8.37278 6.1854 11.0934C6.85337 13.2434 8.58593 15.5118 11.1952 16.6042C11.4109 16.6947 11.6266 16.7782 11.8493 16.8477C12.3503 17.0077 12.8791 17.133 13.4357 17.2026C13.4357 17.2026 9.38613 17.5018 7.45178 19.1996C5.51743 20.8903 4.30672 22.6438 3.764 25.3018C3.22126 27.9598 2.79682 29.2887 4.06319 29.9566C5.32957 30.6246 9.56006 29.7759 11.738 28.3217C11.7588 28.3077 11.7797 28.2937 11.8006 28.2797C12.7399 27.6467 13.5818 26.9509 14.3194 26.1576C14.8621 25.5731 15.3422 24.94 15.7597 24.2442C16.0659 23.7293 16.3372 23.1726 16.5738 22.5881C16.5599 22.6508 16.1981 24.1676 16.1007 25.9489C16.0172 27.4101 16.1076 29.0453 16.6991 30.2003C18.1533 33.0392 20.7208 36.4417 22.683 35.878C23.7198 35.5787 24.2068 34.2985 24.7635 32.8445C25.8141 30.0959 25.3827 27.6327 25.2853 27.1178C24.7078 24.1259 22.7456 21.3148 22.7456 21.3148C22.9335 21.4957 23.1631 21.6975 23.4275 21.9132C23.7267 22.1567 24.0677 22.4142 24.4573 22.6716C24.4573 22.6716 24.4573 22.6716 24.4643 22.6786C24.7008 22.8386 24.9583 22.9917 25.2297 23.1378C26.329 23.7501 27.6928 24.2581 29.2863 24.3833C32.4591 24.6338 36.3903 23.3257 36.5713 21.6349C36.62 21.0295 36.1747 20.5494 35.291 19.617Z" fill="#3A2544"/>
<path d="M24.1786 11.0377C23.8724 11.2186 23.942 11.8031 23.949 11.8587C23.9698 12.0048 24.0185 12.1858 24.102 12.3528C23.7263 12.9581 23.0583 13.9114 22.3277 14.4819C21.959 14.7672 21.5276 15.0455 21.1101 15.303C20.9152 15.136 20.6439 14.9064 20.296 14.6907C20.8039 14.0435 21.5693 13.0346 21.7433 12.5545C21.9381 12.0118 22.279 10.5645 22.446 9.82696C22.6061 9.83393 22.7522 9.80609 22.8566 9.72956C23.1001 9.5556 23.0931 9.17986 23.0862 9.09636C23.0792 8.75544 22.8844 8.31009 22.5434 8.2266C22.0773 8.11527 21.4789 8.70671 21.5693 9.20075C21.5971 9.34685 21.6806 9.47211 21.7989 9.56951C21.5902 10.4671 21.1797 12.1927 20.95 12.5963C20.7344 12.9651 20.0385 13.814 19.6071 14.3288C19.4749 14.2732 19.3358 14.2245 19.1897 14.1897C19.2105 13.9322 19.2523 13.6887 19.3566 13.5287C19.5097 13.2851 19.7115 12.9024 19.8716 12.5893C20.4073 12.5336 20.8387 11.9422 20.7413 11.5387C20.63 11.0933 19.8924 10.982 19.6141 10.975C19.301 10.9611 19.1688 11.0585 19.141 11.0794C18.8418 11.3021 18.9044 11.7613 18.9113 11.7961C18.9322 11.9422 18.9948 12.0883 19.0853 12.2136C18.9183 12.4919 18.7235 12.8607 18.633 13.1599C18.5704 13.3825 18.5078 13.7374 18.4591 14.0853C18.4104 14.0853 18.3686 14.0853 18.3199 14.0853C18.132 14.0853 17.9511 14.1062 17.7702 14.141C17.6589 13.9183 17.5267 13.6748 17.3875 13.4312C17.1649 13.0486 16.7961 12.4084 16.2673 11.7543C15.8707 11.2673 15.2236 10.5924 14.2425 9.93829C14.2773 9.86176 14.3051 9.77826 14.3051 9.6878C14.2981 9.29815 13.8806 8.96416 13.4632 8.95026C12.9691 8.93633 12.5517 9.38861 12.5517 9.83393C12.5517 10.0844 12.6839 10.4045 12.9622 10.5228C13.2196 10.6341 13.4701 10.5158 13.6371 10.4393C13.665 10.4254 13.6997 10.4114 13.7484 10.3836C14.3051 10.8081 14.9939 11.4343 15.6341 12.3041C16.2116 13.0834 16.5804 13.8487 16.8239 14.475C16.6082 14.5863 16.4064 14.7185 16.2116 14.8716C15.8707 14.1062 15.3766 13.1112 15.0635 12.9929C14.7504 12.8676 14.1938 12.5476 13.8041 12.311C13.8111 12.2553 13.818 12.2206 13.818 12.2066C13.825 12.144 13.8528 11.5665 13.498 11.3856C13.2475 11.2534 12.9552 11.3925 12.83 11.4552C12.4751 11.6222 11.9185 12.1023 12.0924 12.6171C12.2316 13.0277 12.7813 13.2782 13.2266 13.1251C13.3101 13.0973 13.3797 13.0555 13.4423 13.0068C13.7971 13.1808 14.2425 13.4312 14.5208 13.7165C14.813 14.0157 15.2444 14.8159 15.5715 15.47C14.8339 16.291 14.3468 17.3765 14.319 18.4202C14.3121 18.7055 14.2773 19.784 15.0287 20.6746C16.1072 21.9549 17.9163 21.8088 18.3199 21.774C20.3656 21.6 22.3277 20.0275 22.5295 18.3576C22.6061 17.7314 22.4251 17.1399 22.4043 17.0773C22.2721 16.6459 22.0633 16.3049 21.8407 16.0266C23.1557 14.9968 24.0325 13.807 24.603 12.8259C24.6517 12.8398 24.6935 12.8537 24.7491 12.8537C25.2223 12.8885 25.6467 12.4362 25.6676 12.0327C25.6954 11.3577 24.603 10.7802 24.1786 11.0377Z" fill="#E5AE00"/>
<path d="M15.4047 27.3126C15.4603 26.1159 15.6204 25.0095 15.7595 24.2302C15.349 24.926 14.8619 25.5592 14.3192 26.1437C13.5399 27.2013 12.6145 28.1267 11.5638 28.9617C11.362 29.595 11.202 30.2003 11.0976 30.7779C10.7845 32.5452 10.7219 34.3611 10.7567 35.9057C10.1304 34.9317 9.48333 34.1524 8.4466 33.6585C8.14738 33.5192 6.31046 32.6842 4.6614 33.5471C4.43177 33.6655 3.729 34.0481 3.26979 34.8901C3.19323 35.0291 2.70617 35.9547 2.90797 36.8173C3.33935 38.6473 6.65141 39.3779 8.71099 39.3919C9.56685 39.3989 10.3322 39.2876 10.9863 39.1276C11.0489 39.6492 11.0976 39.9555 11.0976 39.9555H14.3122C14.3122 39.9555 13.1155 34.4794 13.4912 32.0859C13.6443 31.1049 14.4792 29.2123 15.4047 27.3126Z" fill="#FDFDFD"/>
</g>
</g>
</g>
<defs>
<clipPath id="clip0_227_2631">
<rect width="40" height="40" fill="white"/>
</clipPath>
<clipPath id="clip1_227_2631">
<rect width="40" height="40" fill="white"/>
</clipPath>
</defs>
</svg>
