<svg width="25" height="24" viewBox="0 0 25 24" fill="none" xmlns="http://www.w3.org/2000/svg">
<path opacity="0.2" d="M21.5 5.25V18.75C21.5 18.9489 21.421 19.1397 21.2803 19.2803C21.1397 19.421 20.9489 19.5 20.75 19.5H4.25C4.05109 19.5 3.86032 19.421 3.71967 19.2803C3.57902 19.1397 3.5 18.9489 3.5 18.75V5.25C3.5 5.05109 3.57902 4.86032 3.71967 4.71967C3.86032 4.57902 4.05109 4.5 4.25 4.5H20.75C20.9489 4.5 21.1397 4.57902 21.2803 4.71967C21.421 4.86032 21.5 5.05109 21.5 5.25Z" fill="#3A2544"/>
<path d="M20.75 3.75H4.25C3.85218 3.75 3.47064 3.90804 3.18934 4.18934C2.90804 4.47064 2.75 4.85218 2.75 5.25V18.75C2.75 19.1478 2.90804 19.5294 3.18934 19.8107C3.47064 20.092 3.85218 20.25 4.25 20.25H20.75C21.1478 20.25 21.5294 20.092 21.8107 19.8107C22.092 19.5294 22.25 19.1478 22.25 18.75V5.25C22.25 4.85218 22.092 4.47064 21.8107 4.18934C21.5294 3.90804 21.1478 3.75 20.75 3.75ZM20.75 18.75H4.25V5.25H20.75V18.75ZM17.75 9C17.75 9.19891 17.671 9.38968 17.5303 9.53033C17.3897 9.67098 17.1989 9.75 17 9.75H8C7.80109 9.75 7.61032 9.67098 7.46967 9.53033C7.32902 9.38968 7.25 9.19891 7.25 9C7.25 8.80109 7.32902 8.61032 7.46967 8.46967C7.61032 8.32902 7.80109 8.25 8 8.25H17C17.1989 8.25 17.3897 8.32902 17.5303 8.46967C17.671 8.61032 17.75 8.80109 17.75 9ZM17.75 12C17.75 12.1989 17.671 12.3897 17.5303 12.5303C17.3897 12.671 17.1989 12.75 17 12.75H8C7.80109 12.75 7.61032 12.671 7.46967 12.5303C7.32902 12.3897 7.25 12.1989 7.25 12C7.25 11.8011 7.32902 11.6103 7.46967 11.4697C7.61032 11.329 7.80109 11.25 8 11.25H17C17.1989 11.25 17.3897 11.329 17.5303 11.4697C17.671 11.6103 17.75 11.8011 17.75 12ZM17.75 15C17.75 15.1989 17.671 15.3897 17.5303 15.5303C17.3897 15.671 17.1989 15.75 17 15.75H8C7.80109 15.75 7.61032 15.671 7.46967 15.5303C7.32902 15.3897 7.25 15.1989 7.25 15C7.25 14.8011 7.32902 14.6103 7.46967 14.4697C7.61032 14.329 7.80109 14.25 8 14.25H17C17.1989 14.25 17.3897 14.329 17.5303 14.4697C17.671 14.6103 17.75 14.8011 17.75 15Z" fill="#3A2544"/>
</svg>
