<svg width="25" height="24" viewBox="0 0 25 24" fill="none" xmlns="http://www.w3.org/2000/svg">
<path opacity="0.2" d="M20 3H6.5C6.30109 3 6.11032 3.07902 5.96967 3.21967C5.82902 3.36032 5.75 3.55109 5.75 3.75V20.25C5.75 20.4489 5.82902 20.6397 5.96967 20.7803C6.11032 20.921 6.30109 21 6.5 21H20C20.1989 21 20.3897 20.921 20.5303 20.7803C20.671 20.6397 20.75 20.4489 20.75 20.25V3.75C20.75 3.55109 20.671 3.36032 20.5303 3.21967C20.3897 3.07902 20.1989 3 20 3ZM13.25 13.5C12.6567 13.5 12.0766 13.3241 11.5833 12.9944C11.0899 12.6648 10.7054 12.1962 10.4784 11.6481C10.2513 11.0999 10.1919 10.4967 10.3076 9.91473C10.4234 9.33279 10.7091 8.79824 11.1287 8.37868C11.5482 7.95912 12.0828 7.6734 12.6647 7.55764C13.2467 7.44189 13.8499 7.5013 14.3981 7.72836C14.9462 7.95542 15.4148 8.33994 15.7444 8.83329C16.0741 9.32664 16.25 9.90666 16.25 10.5C16.25 11.2956 15.9339 12.0587 15.3713 12.6213C14.8087 13.1839 14.0456 13.5 13.25 13.5Z" fill="#3A2544"/>
<path d="M8.29906 16.35C8.37788 16.4092 8.46761 16.4524 8.56312 16.4769C8.65862 16.5014 8.75802 16.5069 8.85564 16.4929C8.95325 16.479 9.04716 16.446 9.13198 16.3957C9.21681 16.3454 9.2909 16.2789 9.35 16.2C9.80409 15.5945 10.3929 15.1031 11.0698 14.7647C11.7468 14.4262 12.4932 14.25 13.25 14.25C14.0068 14.25 14.7532 14.4262 15.4302 14.7647C16.1071 15.1031 16.6959 15.5945 17.15 16.2C17.2091 16.2788 17.2831 16.3452 17.3679 16.3954C17.4526 16.4455 17.5464 16.4785 17.6439 16.4925C17.7414 16.5064 17.8407 16.501 17.9361 16.4765C18.0315 16.4521 18.1212 16.4091 18.2 16.35C18.2788 16.2909 18.3452 16.2169 18.3954 16.1321C18.4455 16.0474 18.4785 15.9536 18.4925 15.8561C18.5064 15.7586 18.501 15.6593 18.4765 15.5639C18.4521 15.4685 18.4091 15.3788 18.35 15.3C17.6859 14.4096 16.8003 13.7086 15.7812 13.2666C16.3397 12.7567 16.731 12.0899 16.9037 11.3537C17.0764 10.6175 17.0225 9.84624 16.7491 9.14121C16.4756 8.43617 15.9954 7.83028 15.3715 7.40304C14.7476 6.9758 14.009 6.74718 13.2528 6.74718C12.4966 6.74718 11.7581 6.9758 11.1341 7.40304C10.5102 7.83028 10.03 8.43617 9.75655 9.14121C9.48311 9.84624 9.42922 10.6175 9.60194 11.3537C9.77466 12.0899 10.1659 12.7567 10.7244 13.2666C9.70328 13.7077 8.81566 14.4088 8.15 15.3C8.03055 15.459 7.97915 15.659 8.00711 15.8559C8.03506 16.0528 8.14008 16.2305 8.29906 16.35ZM11 10.5C11 10.055 11.132 9.61998 11.3792 9.24997C11.6264 8.87996 11.9778 8.59157 12.389 8.42127C12.8001 8.25097 13.2525 8.20642 13.689 8.29323C14.1254 8.38005 14.5263 8.59434 14.841 8.90901C15.1557 9.22368 15.37 9.62459 15.4568 10.061C15.5436 10.4975 15.499 10.9499 15.3287 11.361C15.1584 11.7722 14.87 12.1236 14.5 12.3708C14.13 12.618 13.695 12.75 13.25 12.75C12.6533 12.75 12.081 12.5129 11.659 12.091C11.2371 11.669 11 11.0967 11 10.5ZM20 2.25H6.5C6.10218 2.25 5.72064 2.40804 5.43934 2.68934C5.15804 2.97064 5 3.35218 5 3.75V6H3.5C3.30109 6 3.11032 6.07902 2.96967 6.21967C2.82902 6.36032 2.75 6.55109 2.75 6.75C2.75 6.94891 2.82902 7.13968 2.96967 7.28033C3.11032 7.42098 3.30109 7.5 3.5 7.5H5V11.25H3.5C3.30109 11.25 3.11032 11.329 2.96967 11.4697C2.82902 11.6103 2.75 11.8011 2.75 12C2.75 12.1989 2.82902 12.3897 2.96967 12.5303C3.11032 12.671 3.30109 12.75 3.5 12.75H5V16.5H3.5C3.30109 16.5 3.11032 16.579 2.96967 16.7197C2.82902 16.8603 2.75 17.0511 2.75 17.25C2.75 17.4489 2.82902 17.6397 2.96967 17.7803C3.11032 17.921 3.30109 18 3.5 18H5V20.25C5 20.6478 5.15804 21.0294 5.43934 21.3107C5.72064 21.592 6.10218 21.75 6.5 21.75H20C20.3978 21.75 20.7794 21.592 21.0607 21.3107C21.342 21.0294 21.5 20.6478 21.5 20.25V3.75C21.5 3.35218 21.342 2.97064 21.0607 2.68934C20.7794 2.40804 20.3978 2.25 20 2.25ZM20 20.25H6.5V3.75H20V20.25Z" fill="#3A2544"/>
</svg>
