<svg width="143" height="144" viewBox="0 0 143 144" fill="none" xmlns="http://www.w3.org/2000/svg">
<mask id="mask0_300_4224" style="mask-type:luminance" maskUnits="userSpaceOnUse" x="0" y="0" width="143" height="144">
<path d="M0 0.500977H142.82V143.321H0V0.500977Z" fill="white"/>
</mask>
<g mask="url(#mask0_300_4224)">
<path d="M140.435 110.303C139.493 110.448 136.858 111.1 133.329 112.019C133.353 108.901 133.45 105.251 133.643 100.997C134.392 83.182 126.826 64.594 121.122 47.142C115.441 29.689 98.3762 25.919 78.2652 25.919C58.1542 25.919 44.1582 38.439 37.3422 44.507C30.5252 50.574 22.1862 64.231 14.9592 88.113C9.59318 105.928 8.21518 116.998 7.87618 121.47C5.12118 121.688 2.72819 121.76 1.15619 121.567C-3.33881 121.011 5.38619 73.175 25.3532 46.997C45.3192 20.817 94.5802 8.659 112.589 24.733C130.597 40.807 141.281 68.678 141.861 88.353C142.417 108.054 144.375 109.747 140.435 110.303Z" fill="#E3B3FA"/>
<path d="M133.667 100.996C133.498 105.226 133.401 108.9 133.352 112.019C131.25 112.55 128.832 113.179 126.318 113.832C125.037 102.592 121.46 79.652 120.13 72.473C118.366 62.926 115.103 43.105 101.808 34.088C88.513 25.048 58.903 36.095 46.841 45.377C34.803 54.659 27.021 78.25 23.008 90.554C19.551 101.093 17.231 116.466 16.626 120.624C13.726 120.938 10.632 121.301 7.87598 121.494C8.21398 117.022 9.59198 105.952 14.958 88.137C22.162 64.255 30.501 50.597 37.342 44.531C44.158 38.463 58.202 25.942 78.289 25.942C98.376 25.942 115.441 29.737 121.146 47.165C126.826 64.593 134.416 83.181 133.667 100.996Z" fill="#DB8EFF"/>
<path d="M114.257 103.534C115.732 84.632 109.109 68.171 108.359 59.59C107.634 50.985 98.038 40.93 85.517 37.738C72.996 34.548 63.907 44.869 51.145 54.683C38.382 64.497 32.967 89.297 30.018 98.144C27.698 105.106 25.981 115.548 25.378 119.681C24.7 119.754 24.048 119.802 23.395 119.875C21.51 120.044 19.141 120.31 16.627 120.6C17.231 116.442 19.552 101.069 23.008 90.53C27.021 78.226 34.804 54.635 46.842 45.353C58.88 36.071 88.49 25.024 101.809 34.064C115.103 43.104 118.367 62.926 120.131 72.449C121.461 79.629 125.038 102.568 126.319 113.808C121.968 114.919 117.279 116.08 113.194 116.974C113.484 113.324 113.822 108.876 114.257 103.534Z" fill="#CB60FF"/>
<path d="M114.257 103.534C113.846 108.852 113.484 113.324 113.194 116.998C106.909 118.351 102.099 119.077 102.195 117.892C102.485 114.798 108.939 69.21 91.7769 51.202C74.6149 33.194 47.035 70.056 41.983 94.252L36.907 118.448C36.907 118.448 31.057 119.125 25.377 119.681C26.005 115.548 27.697 105.081 30.018 98.144C32.967 89.297 38.358 64.496 51.1439 54.683C63.9069 44.869 72.9959 34.547 85.5169 37.738C98.0369 40.928 107.61 51.008 108.359 59.59C109.084 68.195 115.732 84.632 114.257 103.534Z" fill="#8D4AAD"/>
<path d="M93.7352 81.201C93.7352 81.201 92.9382 70.106 84.2602 71.531C75.6062 72.935 72.3672 84.441 72.3672 84.441C72.3672 84.441 70.5542 76.851 63.4972 77.938C56.4382 79.026 51.7972 95.125 58.6622 97.953C65.5022 100.781 128.785 103.585 129.606 88.067C129.824 84.102 128.712 78.737 125.086 76.875C121.025 74.796 114.644 77.213 109.036 83.015C109.085 82.435 109.375 78.398 106.401 75.642C106.015 75.28 104.564 73.95 102.582 73.732C99.2472 73.37 95.5002 76.342 93.7352 81.201ZM53.0302 111.391C52.7882 110.763 51.2172 106.75 46.9872 105.252C46.6482 105.131 40.9442 103.221 37.6322 106.944C35.1672 109.699 35.8922 113.47 35.9892 113.978C35.9892 113.978 35.6262 112.455 34.5622 111.053C32.6292 108.515 29.3422 108.757 28.9062 108.781C25.3532 108.974 23.3222 111.851 22.9362 112.382C20.8082 115.38 20.4702 119.924 22.5732 122.486C24.8692 125.266 29.4632 124.903 31.6372 124.734C68.4762 121.858 79.8122 123.236 81.6972 116.878C82.6652 113.663 80.9722 109.168 78.0962 107.959C75.4612 106.847 71.7392 108.418 68.6932 111.778C68.6452 111.343 68.3062 108.08 65.4062 106.194C62.6742 104.43 59.7742 105.252 59.0732 105.469C54.7462 106.654 53.1992 110.908 53.0302 111.391Z" fill="#F8D478"/>
</g>
</svg>
