<svg width="171" height="171" viewBox="0 0 171 171" fill="none" xmlns="http://www.w3.org/2000/svg">
<mask id="mask0_268_5313" style="mask-type:luminance" maskUnits="userSpaceOnUse" x="0" y="0" width="171" height="171">
<path d="M170.785 0H0V170.785H170.785V0Z" fill="white"/>
</mask>
<g mask="url(#mask0_268_5313)">
<path d="M10.1785 114.428C9.03127 116.723 9.91378 119.194 11.1199 122.312C14.3263 130.52 15.9442 134.638 17.5327 137.256C17.5327 137.256 22.6218 145.669 29.2112 151.758C40.2719 161.937 59.2751 167.967 77.5725 167.055C100.341 165.908 130.582 153.641 138.613 131.578C142.201 121.723 141.73 109.075 151.556 103.015C154.085 101.456 163.646 96.4253 163.029 93.9249C162.97 93.7484 162.705 92.8365 162.116 91.8363C161.969 91.5716 161.205 90.2478 160.587 89.8066C158.852 88.5122 154.556 91.1597 148.761 95.131C144.819 97.8079 142.878 99.1611 141.819 100.014C126.875 112.252 118.638 118.988 107.96 124.077C101.959 126.931 78.455 137.285 52.0386 130.99C38.0362 127.666 28.8288 125.46 23.7691 118.047C22.3865 116.046 19.6213 111.193 15.6501 111.134C13.4732 111.075 11.1787 112.487 10.1785 114.428Z" fill="#FFD652"/>
<path d="M12.5907 111.662C11.3258 111.898 10.4433 112.045 9.94321 112.78C9.56079 113.339 9.44313 114.192 9.73729 114.81C10.914 117.252 19.0624 116.516 19.5919 114.516C19.739 113.986 19.386 113.28 19.0624 112.868C18.7388 112.457 18.2682 112.192 17.2974 111.927C16.3267 111.692 14.7382 111.28 12.5907 111.662Z" fill="black"/>
<path d="M58.8635 105.34C56.3042 106.811 53.539 106.105 47.4202 104.222C26.446 97.7212 15.8266 94.3089 8.26649 86.7488C3.70689 82.1892 0.0297788 78.4827 0.000361911 73.3053C-0.0290549 69.687 1.73595 67.0689 4.88356 64.1567C8.23707 61.0973 13.1497 57.7144 19.1507 52.5076C36.0948 37.8581 54.7157 14.8247 67.2178 12.1478C67.5708 12.0596 67.9238 12.0301 68.3357 12.1478C76.0134 14.4423 65.8941 68.3339 63.1877 81.542C62.0699 87.0429 62.6876 93.044 62.3346 97.7506C62.0993 101.192 61.3051 103.958 58.8635 105.34Z" fill="#FF0068"/>
<path d="M58.8635 105.34C58.3634 105.634 57.8633 105.811 57.3338 105.958C55.7159 106.34 53.8038 106.046 50.9798 105.281C49.9208 104.987 48.7441 104.634 47.4202 104.222C43.5372 103.016 40.0072 101.927 36.8008 100.898C35.5947 100.515 34.4474 100.133 33.3002 99.7506C29.9466 98.6328 26.9461 97.5738 24.2398 96.4854C22.8866 95.9265 21.5923 95.397 20.3862 94.838C15.6501 92.6612 11.9436 90.3079 8.79599 87.2779C8.61949 87.1014 8.44299 86.9544 8.26649 86.7779C6.82506 85.3364 5.50131 83.9833 4.32464 82.6595C1.76537 79.7472 0.0297788 76.8938 0.000361911 73.3344C-0.0290549 69.7161 1.73595 67.098 4.88356 64.1858C5.97198 66.5685 8.2959 70.1868 13.1791 75.3936C13.2967 75.5112 13.4144 75.6289 13.5321 75.776C14.6205 76.9232 15.7383 78.0411 16.8562 79.1001C19.3566 81.4828 21.8864 83.6008 24.4457 85.4835C25.0046 85.9248 25.593 86.3366 26.1519 86.719C30.4761 89.7784 34.771 92.1317 38.8011 93.9261C39.713 94.3085 40.5955 94.691 41.478 95.0145C43.3901 95.75 45.2434 96.3383 46.979 96.809C48.3615 97.1914 49.8325 97.4267 51.3033 97.6326C52.6271 97.8091 53.9803 97.8974 55.304 97.9562C57.775 98.0445 60.2166 97.9562 62.3346 97.8091C62.0993 101.192 61.305 103.957 58.8635 105.34Z" fill="#32B244"/>
<path d="M14.9437 82.4839C13.414 83.5724 11.0901 85.3962 8.79558 87.2495C8.61908 87.073 8.44258 86.9259 8.26607 86.7494C6.82465 85.308 5.50089 83.9548 4.32422 82.631C6.97173 81.3367 10.1193 79.1304 13.1787 75.3357C13.2963 75.4533 13.414 75.571 13.5317 75.7181C14.6201 76.8653 15.7379 77.9832 16.8558 79.0422C16.6793 80.3954 16.1203 81.6603 14.9437 82.4839Z" fill="black"/>
<path d="M24.2686 96.4566C22.9155 95.8976 21.6211 95.3681 20.415 94.8092C21.0034 93.0442 21.7094 91.0733 22.3565 89.3377C22.7978 88.1904 23.5626 86.8079 24.4746 85.4253C25.0335 85.8665 25.6218 86.2784 26.1807 86.6608C25.6218 88.3081 25.1806 89.926 25.0629 91.338C24.9158 93.1619 24.5922 94.9269 24.2686 96.4566Z" fill="black"/>
<path d="M41.4786 94.9558C40.1843 96.7208 38.8606 98.427 37.831 99.6331C37.478 100.045 37.125 100.457 36.8014 100.869C35.5953 100.486 34.448 100.104 33.3008 99.7213C34.0068 98.9565 34.9481 97.9563 36.1542 96.6032C37.0073 95.6324 37.9192 94.6911 38.8017 93.838C39.7136 94.2498 40.5961 94.6322 41.4786 94.9558Z" fill="black"/>
<path d="M57.3342 105.959C55.7162 106.341 53.8042 106.047 50.9801 105.282C50.5095 102.193 50.7742 99.6046 51.2743 97.5749C52.5981 97.7514 53.9512 97.8396 55.275 97.8985C55.275 98.0161 55.275 98.1338 55.2456 98.2221C55.1279 99.6341 56.2163 102.929 57.3342 105.959Z" fill="black"/>
<path d="M45.891 32.5325C44.7143 33.562 43.92 35.3859 44.4495 35.9742C45.0379 36.6214 47.1853 35.6212 48.3326 34.474C49.1268 33.7091 49.1857 33.1502 49.1857 32.9149C49.1857 32.856 49.1857 32.0324 48.6561 31.6794C47.8913 31.1499 46.5381 31.9735 45.891 32.5325Z" fill="black"/>
<path d="M58.7458 59.3902C58.687 60.5081 59.04 61.3023 59.2165 61.7141C59.5106 62.3319 59.6577 62.6261 59.893 62.6849C60.5991 62.8026 61.6581 60.7728 61.7463 58.949C61.8051 57.8605 61.4521 57.3899 61.3051 57.2134C61.2462 57.1545 60.6873 56.5368 60.0696 56.6545C59.1576 56.8015 58.8046 58.5665 58.7458 59.3902Z" fill="black"/>
<path d="M26.9174 65.0092C25.9172 66.0094 25.4465 67.6567 25.9466 68.0979C26.2408 68.3627 26.888 68.1274 27.8587 67.7744C28.4765 67.539 28.9766 67.3625 29.4472 66.8624C29.7414 66.5683 30.2415 66.0388 30.2415 65.2739C30.2415 65.2151 30.2121 64.3914 29.6826 64.0384C28.8883 63.5678 27.594 64.362 26.9174 65.0092Z" fill="black"/>
<path d="M124.14 61.7439C119.404 56.6548 111.226 54.478 105.401 55.1251C104.225 55.2428 102.224 55.5958 100.136 56.0076C99.1943 56.1841 98.2235 56.3901 97.2822 56.5666C96.4585 56.7136 95.6642 56.8901 94.9582 57.0372C91.693 57.6844 90.0456 58.008 88.7513 58.3904C83.4563 59.8612 79.2497 61.0379 76.7198 64.6268C75.5137 66.3329 75.0725 68.0685 74.4253 70.5395C73.6017 73.6871 73.5428 76.217 73.5134 77.4231C73.4252 81.7767 74.1606 90.8077 79.7792 100.78C82.5738 105.722 83.9564 108.193 87.104 110.311C92.6343 114.076 98.9883 113.694 104.372 113.4C109.696 113.106 113.344 112.87 116.933 110.576C122.492 106.928 124.022 100.603 125.669 93.2493C128.494 80.6295 131.082 69.1864 124.14 61.7439Z" fill="#32B244"/>
<path d="M101.311 50.2412C101.311 50.2412 100.164 52.2122 100.194 54.0066C100.194 54.4184 100.194 55.1539 100.135 56.0069C99.1933 56.1834 98.2226 56.3894 97.2812 56.5659C97.546 53.0947 98.8109 49.8 98.8109 49.8L99.7817 49.4764L101.311 50.2412Z" fill="black"/>
<path d="M81.8385 65.6268C79.4852 67.8037 78.5144 71.0101 78.5144 71.0101C77.1318 75.6874 77.6025 82.4826 80.5736 83.7181C81.2502 84.0123 82.2209 84.0417 82.8975 83.6299C83.78 83.1004 84.1624 81.9237 84.2507 79.335C84.4272 74.9519 83.4564 74.5107 83.7212 72.0985C84.1918 67.7742 87.663 65.568 86.7805 64.4796C86.2216 63.7736 84.4272 64.156 83.4858 64.509C82.721 64.862 82.1915 65.3032 81.8385 65.6268Z" fill="white"/>
<path d="M168.147 26.4157C173.353 33.8287 169.471 44.0952 168.588 46.3603C167.794 48.4488 164.999 55.0088 157.939 59.5096C155.468 61.0686 147.114 66.3931 138.2 62.9219C131.552 60.3332 128.523 54.391 127.552 52.0377C124.757 45.3601 126.404 39.3591 127.052 37.1528C127.405 35.9467 129.758 28.416 137.054 23.6799C146.467 17.6201 161.969 17.6201 168.147 26.4157Z" fill="#FF7300"/>
<path d="M133.494 32.2982C133.494 32.2982 131.993 31.0039 130.522 24.8263C129.051 18.6488 140.054 3.58742 140.054 3.58742C140.054 3.58742 140.671 3.99925 140.024 10.1768C139.377 16.3543 138.583 23.885 137.112 26.7384C135.641 29.5919 133.494 32.2982 133.494 32.2982Z" fill="#32B244"/>
<path d="M135.465 55.2718C135.494 55.6542 135.347 56.2131 134.994 56.3013C134.73 56.3602 134.436 56.1837 134.289 55.9778C133.848 55.4188 134.259 54.301 134.7 54.2422C134.994 54.2128 135.406 54.7423 135.465 55.2718Z" fill="#FFD652"/>
<path d="M141.113 59.0387C141.377 59.5387 141.377 60.2742 141.053 60.4507C140.642 60.686 139.612 60.0682 139.612 59.3328C139.612 58.9504 139.848 58.4797 140.259 58.4209C140.73 58.3621 141.083 58.9798 141.113 59.0387Z" fill="#FFD652"/>
<path d="M132.2 50.7413C132.2 50.8296 132.053 51.5356 131.612 51.6827C131.14 51.8298 130.435 51.3002 130.405 50.7119C130.346 49.9765 131.258 49.3293 131.729 49.4764C131.964 49.5647 132.111 49.8882 132.14 50.0353C132.17 50.1236 132.259 50.3883 132.2 50.7413Z" fill="#FFD652"/>
<path d="M137.23 49.7424C137.259 50.0071 137.289 50.3307 137.112 50.4778C136.818 50.7131 136.024 50.4778 135.788 49.9189C135.671 49.6247 135.729 49.2129 135.994 48.9481C136.024 48.9187 136.318 48.6245 136.642 48.7128C137.112 48.8599 137.2 49.5364 137.23 49.7424Z" fill="#FFD652"/>
<path d="M140.437 53.8894C140.407 54.1541 140.407 54.4483 140.23 54.5366C139.907 54.7131 139.024 54.1836 139.083 53.5658C139.113 53.0363 139.76 52.5951 140.112 52.7421C140.524 52.9186 140.465 53.8011 140.437 53.8894Z" fill="#FFD652"/>
</g>
</svg>
