<svg width="25" height="24" viewBox="0 0 25 24" fill="none" xmlns="http://www.w3.org/2000/svg">
<path opacity="0.2" d="M20.75 10.8319V19.5C20.75 19.6989 20.671 19.8897 20.5303 20.0303C20.3897 20.171 20.1989 20.25 20 20.25H15.5C15.3011 20.25 15.1103 20.171 14.9697 20.0303C14.829 19.8897 14.75 19.6989 14.75 19.5V15C14.75 14.8011 14.671 14.6103 14.5303 14.4697C14.3897 14.329 14.1989 14.25 14 14.25H11C10.8011 14.25 10.6103 14.329 10.4697 14.4697C10.329 14.6103 10.25 14.8011 10.25 15V19.5C10.25 19.6989 10.171 19.8897 10.0303 20.0303C9.88968 20.171 9.69891 20.25 9.5 20.25H5C4.80109 20.25 4.61032 20.171 4.46967 20.0303C4.32902 19.8897 4.25 19.6989 4.25 19.5V10.8319C4.25001 10.7274 4.27187 10.624 4.31416 10.5284C4.35646 10.4328 4.41827 10.3472 4.49562 10.2769L11.9956 3.195C12.1337 3.06931 12.3137 2.99965 12.5005 2.99965C12.6872 2.99965 12.8672 3.06931 13.0053 3.195L20.5053 10.2769C20.5825 10.3472 20.6441 10.433 20.6863 10.5285C20.7284 10.6241 20.7501 10.7274 20.75 10.8319Z" fill="#3A2544"/>
<path d="M21.0153 9.72843L13.5153 2.65218C13.5116 2.64898 13.5082 2.64554 13.505 2.64187C13.2289 2.39074 12.869 2.25159 12.4958 2.25159C12.1225 2.25159 11.7627 2.39074 11.4866 2.64187L11.4763 2.65218L3.98469 9.72843C3.83187 9.86895 3.70989 10.0397 3.62646 10.2298C3.54303 10.4199 3.49997 10.6252 3.5 10.8328V19.5C3.5 19.8978 3.65804 20.2793 3.93934 20.5607C4.22064 20.842 4.60218 21 5 21H9.5C9.89782 21 10.2794 20.842 10.5607 20.5607C10.842 20.2793 11 19.8978 11 19.5V15H14V19.5C14 19.8978 14.158 20.2793 14.4393 20.5607C14.7206 20.842 15.1022 21 15.5 21H20C20.3978 21 20.7794 20.842 21.0607 20.5607C21.342 20.2793 21.5 19.8978 21.5 19.5V10.8328C21.5 10.6252 21.457 10.4199 21.3735 10.2298C21.2901 10.0397 21.1681 9.86895 21.0153 9.72843ZM20 19.5H15.5V15C15.5 14.6022 15.342 14.2206 15.0607 13.9393C14.7794 13.658 14.3978 13.5 14 13.5H11C10.6022 13.5 10.2206 13.658 9.93934 13.9393C9.65804 14.2206 9.5 14.6022 9.5 15V19.5H5V10.8328L5.01031 10.8234L12.5 3.74999L19.9906 10.8216L20.0009 10.8309L20 19.5Z" fill="#3A2544"/>
</svg>
