<svg width="49" height="48" viewBox="0 0 49 48" fill="none" xmlns="http://www.w3.org/2000/svg">
<path d="M45.4197 27.8685C43.5742 32.5745 40.4979 37.4883 35.9436 38.743C32.452 39.7098 30.1426 38.2234 24.3977 39.6057C22.1206 40.1572 20.315 40.9161 19.1164 41.4834C18.5172 40.7406 17.7422 39.8776 16.903 38.9985C16.6868 38.7727 16.4683 38.5491 16.2478 38.3275C15.8484 37.9281 15.4489 37.5283 15.0495 37.1449C14.7856 36.8892 14.5221 36.6495 14.2664 36.4098C13.6672 35.8583 13.0999 35.3632 12.6045 34.9635C13.1875 34.3881 14.0747 33.8769 14.4104 32.263C14.9216 29.762 13.9706 18.8875 18.0859 15.212C22.2005 11.5364 29.9909 6.54277 36.6787 10.5858C43.3665 14.6286 47.6972 22.0676 45.4197 27.8685Z" fill="#F8CF63"/>
<path d="M19.1162 41.4915C18.517 40.7483 17.742 39.8853 16.9031 39.0066C16.6868 38.7808 16.4684 38.557 16.2479 38.3352C15.8485 37.9358 15.4491 37.5363 15.0496 37.1527C14.7858 36.8969 14.5219 36.6572 14.2665 36.4176C13.667 35.8664 13.0997 35.371 12.6043 34.9715C11.7336 34.2683 11.0864 33.8608 10.8706 33.9565C9.96765 34.3801 9.79982 35.2991 10.3751 36.1779C10.3751 36.1779 8.76127 35.8184 8.18595 36.4176C7.61062 37.009 8.48133 38.5591 8.49744 38.5991C8.46555 38.5829 7.52267 38.0875 6.9074 38.9025C6.28407 39.7336 7.6905 40.7241 7.6905 40.7241C7.6905 40.7241 7.0034 42.1625 7.92211 43.3611C8.84116 44.5675 11.454 47.7556 13.1719 47.3562C14.8976 46.9564 15.4568 46.2136 15.4568 46.2136C15.4568 46.2136 15.7924 47.4999 16.879 46.8289C17.9659 46.1495 16.8551 45.1267 16.8551 45.1267C16.8551 45.1267 19.7875 46.4133 18.8926 43.7925C18.8926 43.7925 19.6039 44.5836 20.2749 43.5927C20.4588 43.345 19.9631 42.5381 19.1162 41.4915Z" fill="#E3B3FA"/>
<path d="M33.6587 34.3405C31.2614 34.5083 29.3521 33.9011 28.7768 33.7014C26.795 32.9901 23.3434 33.5094 16.9033 39.0146C16.6875 38.791 16.472 38.5672 16.2481 38.3436C17.8862 36.8653 20.6587 34.6043 23.9583 33.0619C26.6272 31.8156 27.6741 31.9677 28.0494 32.0395C29.2001 32.263 29.8872 32.9344 31.2375 32.7665C31.7968 32.6944 32.7715 32.4947 33.0193 31.8794C33.3549 31.0325 31.9727 30.3773 31.4215 28.7476C30.5904 26.2704 32.6601 24.4646 31.7649 23.426C30.9898 22.5311 29.4478 23.8973 26.9149 23.0585C25.0533 22.4432 24.398 21.1089 23.5431 21.5322C22.5126 22.0437 22.3287 23.8335 22.2726 24.337C22.0168 26.646 20.4349 30.4572 15.0575 37.1611C14.794 36.9053 14.5305 36.6656 14.2744 36.426C16.232 33.9249 21.3777 26.9575 21.3217 22.7308C21.2898 20.6135 22.0491 19.3749 23.0718 18.8637C24.2222 18.2883 25.1013 20.1979 27.7141 20.9649C30.7183 21.844 32.3003 20.3258 33.3069 21.3724C34.5855 22.7151 32.0045 25.2158 33.1552 28.4596C34.0581 31.0244 37.446 34.0689 33.6587 34.3405Z" fill="#FCECC2"/>
<path d="M15.9441 15.2358C15.9441 15.2358 11.7974 14.1654 10.591 14.0136C9.38426 13.8619 7.41895 13.2305 7.41895 13.2305L8.62532 8.11702L16.9431 13.6622L15.9441 15.2358ZM19.8996 11.2169L17.0153 8.54029L13.4354 5.5841L17.3586 2.37179C18.1401 3.74532 18.8809 5.14162 19.5801 6.55887C20.1933 7.80839 20.7793 9.07113 21.3376 10.3462C20.8583 10.6338 20.3789 10.9215 19.8996 11.2169ZM25.4206 8.11669C25.229 7.10969 25.0292 6.09532 24.8215 5.08027C24.5496 3.70606 24.2619 2.34796 23.9823 0.997581C25.5163 0.845525 27.0587 0.701861 28.5927 0.55014C28.0892 1.94046 27.7938 3.08306 27.6259 3.88194C27.5541 4.22566 27.5219 4.42538 27.4021 5.00843C27.1386 6.30309 26.8986 7.34969 26.7391 8.05291C26.2994 8.06979 25.8599 8.09106 25.4206 8.11669Z" fill="#FDFDFD"/>
</svg>
