<svg width="214" height="51" viewBox="0 0 214 51" fill="none" xmlns="http://www.w3.org/2000/svg">
<path d="M1.23865 49.0884C0.554562 49.0884 0 48.5338 0 47.8497V2.25012C0 1.56603 0.554561 1.01147 1.23865 1.01147H18.7223C19.3836 1.01147 19.9284 1.53109 19.9595 2.19175L20.7334 18.5971C20.7782 19.5467 19.6119 20.0336 18.9682 19.3339V19.3339C18.7685 19.1169 18.6721 18.8235 18.7087 18.5309C19.1807 14.7544 20.156 11.5107 21.6346 8.79992C23.1731 5.97941 25.2244 3.83198 27.7885 2.35762C30.4167 0.819158 33.5256 0.0499268 37.1154 0.0499268C40.3205 0.0499268 43.0449 0.690953 45.2885 1.97301C47.5321 3.19095 49.2308 5.01788 50.3846 7.45377C51.6026 9.82557 52.2115 12.7422 52.2115 16.2038V47.8497C52.2115 48.5338 51.657 49.0884 50.9729 49.0884H31.3348C30.6507 49.0884 30.0962 48.5338 30.0962 47.8497V21.6845C30.0962 19.6333 29.8077 18.2551 29.2308 17.5499C28.6538 16.7807 27.7885 16.3961 26.6346 16.3961C25.609 16.3961 24.7436 16.6525 24.0385 17.1653C23.3974 17.614 22.9167 18.3833 22.5962 19.473C22.2756 20.5627 22.1154 21.973 22.1154 23.7038V47.8497C22.1154 48.5338 21.5608 49.0884 20.8767 49.0884H1.23865Z" fill="#3A2544"/>
<path d="M84.6267 0.0499268C90.0113 0.0499268 94.6908 1.04351 98.6651 3.03069C102.704 4.95377 105.845 7.77428 108.088 11.4922C110.332 15.2102 111.454 19.7294 111.454 25.0499C111.454 30.3063 110.332 34.8256 108.088 38.6076C105.845 42.3256 102.704 45.1781 98.6651 47.1653C94.6908 49.0884 90.0113 50.0499 84.6267 50.0499C79.3061 50.0499 74.6267 49.0884 70.5882 47.1653C66.5497 45.1781 63.4087 42.3256 61.1651 38.6076C58.9215 34.8256 57.7997 30.3063 57.7997 25.0499C57.7997 19.7294 58.9215 15.2102 61.1651 11.4922C63.4087 7.77428 66.5497 4.95377 70.5882 3.03069C74.6267 1.04351 79.3061 0.0499268 84.6267 0.0499268Z" fill="#3A2544"/>
<path d="M118.332 49.0884C117.648 49.0884 117.094 48.5338 117.094 47.8497V2.25012C117.094 1.56603 117.648 1.01147 118.332 1.01147H135.807C136.472 1.01147 137.018 1.53631 137.045 2.20061L137.159 5.04695C137.215 6.46105 139.909 6.93047 140.713 5.76557C141.255 4.9796 141.844 4.26028 142.478 3.60762C144.786 1.23583 147.831 0.0499268 151.613 0.0499268C153.087 0.0499268 154.209 0.17813 154.978 0.434541C155.398 0.5744 155.751 0.714259 156.037 0.854118C156.415 1.03903 156.587 1.45683 156.544 1.87563L154.96 17.2932C154.874 18.1312 153.978 18.6751 153.156 18.4915C152.887 18.4315 152.597 18.374 152.286 18.3192C151.196 18.1268 150.01 18.0307 148.728 18.0307C146.805 18.0307 145.138 18.3512 143.728 18.9922C142.318 19.5692 141.196 20.4345 140.363 21.5884C139.594 22.7422 139.209 24.2166 139.209 26.0115V47.8497C139.209 48.5338 138.654 49.0884 137.97 49.0884H118.332Z" fill="#3A2544"/>
<path d="M185.876 19.0884C185.876 17.614 185.523 16.4602 184.818 15.6269C184.177 14.7935 183.152 14.3769 181.741 14.3769C180.395 14.3769 179.273 14.7615 178.376 15.5307C177.666 16.1391 177.197 17.2289 176.968 18.7999C176.864 19.5193 176.218 20.0567 175.499 19.9529L159.339 17.6205C158.69 17.5269 158.222 16.9424 158.313 16.2932C158.983 11.5145 161.248 7.67059 165.107 4.76146C169.273 1.62044 175.331 0.0499268 183.28 0.0499268C188.857 0.0499268 193.44 0.819158 197.03 2.35762C200.684 3.89608 203.376 6.04352 205.107 8.79992C206.902 11.5563 207.799 14.7615 207.799 18.4153V33.3192C207.799 35.9474 209.049 37.2615 211.549 37.2615V37.2615C212.282 37.2615 213.104 37.9102 213.042 38.6409L212.282 47.6178C212.245 48.0527 211.983 48.4398 211.582 48.6116C209.342 49.5705 206.703 50.0499 203.664 50.0499C200.652 50.0499 197.959 49.6333 195.587 48.7999C193.28 47.9025 191.453 46.5884 190.107 44.8576C188.825 43.0627 188.184 40.7871 188.184 38.0307V38.0307C188.184 37.4997 188.614 37.0692 189.145 37.0692H189.227C189.815 37.0692 190.291 37.5546 190.222 38.1377C189.981 40.1558 189.206 42.0112 187.895 43.7038C186.421 45.6268 184.434 47.1653 181.934 48.3192C179.434 49.473 176.581 50.0499 173.376 50.0499C169.978 50.0499 167.094 49.5371 164.722 48.5115C162.414 47.4858 160.652 46.0115 159.434 44.0884C158.216 42.1653 157.607 39.8897 157.607 37.2615C157.607 33.7358 158.728 30.8833 160.972 28.7038C163.216 26.4602 166.453 24.9217 170.684 24.0884L185.906 20.939C186.681 20.7786 187.405 21.376 187.395 22.1672L187.33 27.4519C187.323 28.0185 186.932 28.5082 186.381 28.6408L182.126 29.6653C180.78 29.9858 179.818 30.5307 179.241 31.2999C178.664 32.0051 178.376 32.9025 178.376 33.9922C178.376 35.0179 178.696 35.8512 179.337 36.4922C179.978 37.1333 180.876 37.4538 182.03 37.4538C182.543 37.4538 183.023 37.3576 183.472 37.1653C183.985 36.973 184.402 36.6845 184.722 36.2999C185.107 35.9153 185.395 35.4666 185.587 34.9538C185.78 34.3768 185.876 33.7358 185.876 33.0307V19.0884Z" fill="#3A2544"/>
<path d="M85.3319 11.8536L92.6646 24.4655C96.3854 30.8613 91.8489 38.9436 84.5388 38.9436C77.2287 38.9436 72.6968 30.8613 76.413 24.4655L83.7502 11.8536C84.1037 11.2407 84.9739 11.2407 85.3319 11.8536Z" fill="#FDFDFD"/>
</svg>
