<svg width="81" height="81" viewBox="0 0 81 81" fill="none" xmlns="http://www.w3.org/2000/svg">
<path d="M43.59 78.7837C41.836 80.685 20.8543 79.6404 17.6943 79.8817C15.7796 80.0291 15.793 75.1281 16.0876 71.2586C24.1214 75.1016 34.8734 75.195 43.5766 71.0977C44.139 74.0976 44.5675 77.7257 43.59 78.7837Z" fill="#3A2544"/>
<path d="M58.3591 33.6872C58.1448 29.7506 57.5958 27.2066 55.7078 25.3722C52.6684 22.413 48.7719 23.7922 36.3463 23.9663C31.459 24.0332 23.8403 23.9395 18.9397 23.8324C10.1694 23.6449 6.16587 23.3503 3.83608 26.1354C3.01931 27.1262 2.63101 28.251 2.18914 32.5357C1.43932 39.7929 1.0778 43.4215 1.80085 48.1481C2.3766 51.8838 3.8093 61.1494 10.1292 67.2019C11.8431 68.8354 13.865 70.2011 16.1011 71.2721C24.1349 75.1151 34.8868 75.2085 43.5901 71.1113C46.3484 69.8124 48.8925 68.0985 51.075 65.943C59.6579 57.4943 59.0285 46.0058 58.3591 33.6872Z" fill="#E3B3FA"/>
<path d="M77.2378 46.6889C75.6583 48.9652 73.221 51.054 59.6839 57.0122C58.0639 57.7221 55.694 58.7396 54.0069 57.6816C53.8596 57.5882 52.534 56.7309 52.5206 55.2048C52.5072 53.7721 53.6722 52.8883 53.8194 52.7946C54.3952 52.5268 55.0647 52.2188 55.8011 51.9109C56.2028 51.7502 56.832 51.4958 57.5953 51.2146C58.6933 50.8129 59.5371 50.5585 59.6974 50.505C65.0001 48.7911 68.5748 47.6396 70.7438 44.2654C72.0561 42.2301 73.9039 38.3739 72.2169 35.7629C70.3292 32.8305 65.1205 33.1385 64.5445 33.1787C63.1652 33.2724 61.84 33.6473 61.84 33.6473C60.3803 34.0624 56.6981 35.388 56.2296 35.0934C56.0957 34.9997 55.9618 34.8925 55.9618 34.8925C55.9618 34.8925 55.7877 34.7453 55.6405 34.5712C54.8504 33.634 54.73 31.5719 54.73 31.5719C54.7032 31.197 54.6764 30.6346 54.7433 30.3267C55.212 28.1843 63.3531 26.0152 70.4226 28.8672C71.8553 29.4429 77.5461 31.746 79.0187 37.0215C79.8355 39.9405 79.0856 42.8059 79.0187 43.0469C78.751 43.9172 78.2959 45.1624 77.2378 46.6889Z" fill="#F7B832"/>
<path d="M15.2976 20.6724C15.2976 20.6724 10.9057 16.8028 13.1954 12.5984C15.485 8.39402 20.225 5.7429 16.5294 2.23477L17.8818 0.654785C17.8818 0.654785 19.1538 1.75274 19.6894 4.0156C20.2116 6.27846 19.3413 9.42503 17.5872 10.9247C15.8332 12.4243 13.3694 13.1206 14.4273 15.0487C15.485 16.9768 18.1094 19.4406 18.1094 19.4406L15.2976 20.6724Z" fill="#F7B832"/>
<path d="M29.1692 20.6724C26.277 16.2404 26.3306 13.9106 27.0671 12.5984C28.1382 10.6569 30.7359 10.7105 31.6731 8.04589C32.2623 6.38556 31.7936 4.75204 31.74 4.56458C31.4053 3.41307 30.776 2.63646 30.4011 2.23477L31.7535 0.654785C31.7535 0.654785 33.0255 1.75274 33.5611 4.0156C34.0832 6.27846 33.2129 9.42503 31.4589 10.9247C30.0664 12.1164 28.2319 12.7992 28.0579 13.991C27.9909 14.406 28.1516 14.7408 28.2989 15.0487C28.7542 16.0931 29.5575 17.7401 30.8965 19.9226C30.3207 20.177 29.745 20.418 29.1692 20.6724Z" fill="#F7B832"/>
<path d="M44.2592 20.1502C40.6573 16.0664 40.4029 13.857 40.9519 12.5984C41.7017 10.8712 43.9512 10.8578 44.9153 8.27353C45.5044 6.66675 45.25 5.03322 45.183 4.6717C44.9956 3.57374 44.5939 2.75697 44.2859 2.23477L45.6383 0.654785C45.6383 0.654785 46.9103 1.75274 47.4459 4.0156C47.8744 5.83661 47.379 8.95641 45.3437 10.9247C43.978 12.2369 42.5051 12.4779 42.3444 13.7767C42.2909 14.2185 42.4114 14.6069 42.7327 15.2495C43.2282 16.2538 44.1386 17.7802 45.8793 19.4406C45.3303 19.6815 44.7947 19.9092 44.2592 20.1502Z" fill="#F7B832"/>
<path d="M29.4372 40.0206C29.4372 40.0206 29.3836 31.5583 19.1003 34.3835C8.81703 37.2088 16.5295 46.461 19.1003 49.8085C21.6712 53.1559 29.4372 60.5874 29.4372 60.5874C29.4372 60.5874 40.1757 52.0311 44.7951 46.9297C49.4146 41.8282 43.5098 30.0051 38.8769 31.5449C34.2575 33.0981 29.4372 40.0206 29.4372 40.0206Z" fill="#3A2544"/>
</svg>
