<svg width="28" height="28" viewBox="0 0 28 28" fill="none" xmlns="http://www.w3.org/2000/svg">
<path d="M13.9998 8.74999C12.9615 8.74999 11.9464 9.0579 11.0831 9.63477C10.2197 10.2117 9.5468 11.0316 9.14944 11.9909C8.75208 12.9502 8.64811 14.0058 8.85068 15.0242C9.05326 16.0426 9.55327 16.9781 10.2875 17.7123C11.0217 18.4465 11.9572 18.9465 12.9756 19.1491C13.994 19.3517 15.0496 19.2477 16.0089 18.8504C16.9682 18.453 17.7881 17.7801 18.365 16.9167C18.9419 16.0534 19.2498 15.0383 19.2498 14C19.2484 12.608 18.6948 11.2735 17.7105 10.2893C16.7263 9.30503 15.3917 8.75144 13.9998 8.74999ZM13.9998 17.5C13.3076 17.5 12.6309 17.2947 12.0553 16.9101C11.4797 16.5255 11.0311 15.9789 10.7662 15.3394C10.5013 14.6998 10.432 13.9961 10.5671 13.3172C10.7021 12.6382 11.0354 12.0146 11.5249 11.5251C12.0144 11.0356 12.6381 10.7023 13.317 10.5672C13.9959 10.4322 14.6997 10.5015 15.3392 10.7664C15.9787 11.0313 16.5254 11.4799 16.9099 12.0555C17.2945 12.6311 17.4998 13.3078 17.4998 14C17.4998 14.9282 17.1311 15.8185 16.4747 16.4749C15.8183 17.1312 14.9281 17.5 13.9998 17.5ZM23.6248 14.2362C23.6292 14.0787 23.6292 13.9212 23.6248 13.7637L25.2567 11.725C25.3422 11.6179 25.4015 11.4923 25.4296 11.3582C25.4577 11.2241 25.4539 11.0852 25.4186 10.9528C25.151 9.94721 24.7509 8.9817 24.2286 8.08171C24.1602 7.96393 24.0652 7.86374 23.9513 7.78912C23.8374 7.7145 23.7076 7.6675 23.5723 7.65186L20.9779 7.36311C20.87 7.24936 20.7606 7.13999 20.6498 7.03499L20.3436 4.43405C20.3278 4.29866 20.2806 4.16882 20.2058 4.05488C20.131 3.94094 20.0306 3.84606 19.9126 3.7778C19.0123 3.25646 18.0469 2.85668 17.0415 2.5889C16.909 2.55367 16.7701 2.55007 16.636 2.57838C16.5019 2.60669 16.3763 2.66611 16.2693 2.75186L14.2361 4.37499C14.0786 4.37499 13.9211 4.37499 13.7636 4.37499L11.7248 2.7464C11.6178 2.66083 11.4921 2.6016 11.358 2.57349C11.2239 2.54537 11.085 2.54915 10.9526 2.58452C9.94719 2.85252 8.98174 3.25267 8.08152 3.77452C7.96375 3.84291 7.86356 3.93784 7.78894 4.05177C7.71431 4.1657 7.66731 4.29548 7.65168 4.43077L7.36293 7.02952C7.24918 7.13817 7.13981 7.24754 7.03481 7.35765L4.43387 7.65624C4.29848 7.67199 4.16864 7.71916 4.0547 7.79397C3.94076 7.86879 3.84588 7.9692 3.77762 8.08718C3.25628 8.98751 2.8565 9.95294 2.58871 10.9583C2.55349 11.0908 2.54989 11.2297 2.57819 11.3638C2.6065 11.4979 2.66593 11.6235 2.75168 11.7305L4.37481 13.7637C4.37481 13.9212 4.37481 14.0787 4.37481 14.2362L2.74621 16.275C2.66065 16.382 2.60142 16.5077 2.5733 16.6418C2.54519 16.7759 2.54897 16.9148 2.58434 17.0472C2.85186 18.0528 3.25204 19.0183 3.77434 19.9183C3.84272 20.036 3.93766 20.1362 4.05159 20.2109C4.16552 20.2855 4.29529 20.3325 4.43059 20.3481L7.02496 20.6369C7.13361 20.7506 7.24298 20.86 7.35309 20.965L7.65606 23.5659C7.67181 23.7013 7.71897 23.8312 7.79379 23.9451C7.86861 24.059 7.96901 24.1539 8.08699 24.2222C8.98733 24.7435 9.95276 25.1433 10.9581 25.4111C11.0906 25.4463 11.2295 25.4499 11.3636 25.4216C11.4977 25.3933 11.6233 25.3339 11.7303 25.2481L13.7636 23.625C13.9211 23.6294 14.0786 23.6294 14.2361 23.625L16.2748 25.2569C16.3819 25.3424 16.5075 25.4017 16.6416 25.4298C16.7757 25.4579 16.9146 25.4541 17.047 25.4187C18.0526 25.1512 19.0181 24.751 19.9181 24.2287C20.0359 24.1604 20.1361 24.0654 20.2107 23.9515C20.2853 23.8376 20.3323 23.7078 20.3479 23.5725L20.6367 20.9781C20.7504 20.8702 20.8598 20.7608 20.9648 20.65L23.5657 20.3437C23.7011 20.328 23.831 20.2808 23.9449 20.206C24.0588 20.1312 24.1537 20.0308 24.222 19.9128C24.7433 19.0125 25.1431 18.047 25.4109 17.0417C25.4461 16.9092 25.4497 16.7703 25.4214 16.6362C25.3931 16.5021 25.3337 16.3765 25.2479 16.2695L23.6248 14.2362ZM21.8639 13.5253C21.8825 13.8415 21.8825 14.1585 21.8639 14.4747C21.8508 14.6911 21.9187 14.9047 22.0542 15.0741L23.6062 17.0133C23.4281 17.5793 23.2001 18.1283 22.9248 18.6539L20.4529 18.9339C20.2377 18.9578 20.0389 19.0607 19.8951 19.2226C19.6846 19.4594 19.4603 19.6837 19.2236 19.8942C19.0616 20.038 18.9587 20.2368 18.9348 20.452L18.6603 22.9217C18.1347 23.1971 17.5857 23.4252 17.0196 23.6031L15.0793 22.0511C14.9241 21.927 14.7312 21.8595 14.5325 21.8597H14.48C14.1638 21.8783 13.8468 21.8783 13.5306 21.8597C13.3141 21.8466 13.1005 21.9145 12.9312 22.05L10.9865 23.6031C10.4205 23.425 9.87151 23.197 9.3459 22.9217L9.0659 20.4531C9.042 20.2378 8.93912 20.0391 8.77715 19.8953C8.54036 19.6848 8.31612 19.4605 8.10559 19.2237C7.9618 19.0618 7.76304 18.9589 7.54777 18.935L5.07809 18.6594C4.80267 18.1338 4.57463 17.5848 4.39668 17.0187L5.94871 15.0784C6.08423 14.9091 6.15206 14.6955 6.13902 14.4791C6.12043 14.1629 6.12043 13.8459 6.13902 13.5297C6.15206 13.3132 6.08423 13.0996 5.94871 12.9303L4.39668 10.9867C4.57477 10.4207 4.8028 9.87169 5.07809 9.34608L7.54668 9.06608C7.76195 9.04219 7.9607 8.9393 8.10449 8.77733C8.31503 8.54055 8.53927 8.31631 8.77606 8.10577C8.93867 7.96188 9.04198 7.76268 9.0659 7.54686L9.34043 5.07827C9.86598 4.80286 10.415 4.57482 10.9811 4.39686L12.9214 5.94889C13.0907 6.08442 13.3043 6.15224 13.5207 6.13921C13.8369 6.12061 14.1539 6.12061 14.4701 6.13921C14.6866 6.15224 14.9002 6.08442 15.0695 5.94889L17.0131 4.39686C17.5791 4.57495 18.1281 4.80299 18.6537 5.07827L18.9337 7.54686C18.9576 7.76213 19.0605 7.96088 19.2225 8.10468C19.4592 8.31521 19.6835 8.53945 19.894 8.77624C20.0378 8.93821 20.2366 9.04109 20.4518 9.06499L22.9215 9.33952C23.1969 9.86507 23.425 10.4141 23.6029 10.9801L22.0509 12.9205C21.9141 13.0912 21.8462 13.307 21.8606 13.5253H21.8639Z" fill="#3A2544"/>
</svg>
