<svg width="48" height="48" viewBox="0 0 48 48" fill="none" xmlns="http://www.w3.org/2000/svg">
<path d="M20.5869 4.6161C19.4205 4.98903 18.1747 5.43337 17.167 5.88563C17.0242 5.9491 16.7068 6.1078 16.3498 6.3776C16.1117 6.56007 15.9689 6.71083 15.9213 6.75843C15.9213 6.75843 15.6515 7.0441 15.4452 7.4091C15.4055 7.46463 15.3579 7.52017 15.3183 7.58367C13.287 10.5988 15.6277 15.0422 19.3808 28.8088C19.8489 30.5148 20.2536 32.07 20.6186 33.4903C19.4284 34.0617 18.3572 34.49 17.7542 34.728C17.0004 35.0297 10.7876 37.4657 9.85924 36.0057C9.51011 35.45 10.0417 34.5217 10.7955 33.1967C12.4935 30.2371 14.382 29.3246 14.0646 28.4597C13.9932 28.2693 13.7869 28.0074 11.0415 27.5472C8.89121 27.1902 8.24057 27.2219 6.93927 26.9839C6.10614 26.8331 2.45621 26.1904 2.42447 25.262C2.39273 24.2702 6.50287 23.3736 6.82821 23.3022C9.94651 22.6357 11.954 23.0562 12.073 22.5643C12.1761 22.112 10.5337 21.628 7.55818 19.803C6.00301 18.8508 4.63824 17.8669 3.33697 16.6529C1.95633 15.3596 0.615374 14.1139 0.924828 13.4632C1.09145 13.1141 1.71829 13.0109 7.06624 13.5743C11.4144 14.0266 12.4856 13.8441 12.7792 13.2649C12.9855 12.8523 12.6919 12.4397 11.7635 10.8448C11.3827 10.1941 9.54978 7.0441 8.38337 4.07653C7.71687 2.3944 7.39157 1.54539 7.74067 1.07725C8.60557 -0.120885 12.2872 1.17246 14.7787 2.04527C16.3894 2.60863 18.381 3.41797 20.5869 4.6161Z" fill="#3A2544"/>
<path d="M34.877 1.34667C33.8693 0.846786 33.3061 1.00548 24.1812 3.56043C24.1812 3.56043 22.4991 3.99683 20.5948 4.61573C19.4284 4.98867 18.1826 5.433 17.1749 5.8853C17.0321 5.94877 16.7147 6.10747 16.3577 6.37723C16.1196 6.55973 15.9768 6.7105 15.9292 6.7581C15.9292 6.7581 15.6594 7.04373 15.4531 7.40873C15.9371 6.8057 16.7068 6.55973 21.6183 5.18703C21.9357 5.09977 22.269 5.00453 22.6181 4.90933C30.394 2.73523 31.9572 2.29883 32.8697 2.52893C32.9966 2.56067 33.1236 2.61621 33.314 2.70349C36.5593 4.13173 36.48 7.79753 39.265 16.7716C39.868 18.7077 40.0823 19.2155 40.8677 21.8181C41.3757 23.5081 41.8993 25.3093 42.6373 28.0547C45.2793 37.846 45.5173 40.282 44.0417 42.202C43.8513 42.448 43.7003 42.6307 43.5417 42.7577C43.4783 42.8053 43.407 42.8527 43.3353 42.9003C44.3827 42.4323 45.0413 41.6467 45.0413 41.6467C45.1207 41.5517 45.462 41.147 45.708 40.5597C46.184 39.4567 46.0887 38.346 45.5017 35.1403C45.1763 33.3787 45.097 33.0614 45.097 33.0614C43.9227 28.0864 43.3433 25.6029 41.812 19.9296C38.7097 8.3847 38.6063 3.19544 34.877 1.34667Z" fill="#3A2544"/>
<path d="M33.3143 2.69584C33.1238 2.60856 32.9969 2.55302 32.8699 2.52128C31.9495 2.29911 30.3864 2.73552 22.6104 4.9096C22.2613 5.00483 21.928 5.10003 21.6107 5.18733C16.6991 6.56 15.9295 6.806 15.4454 7.40903C15.4058 7.46457 15.3582 7.5201 15.3185 7.5836C13.2872 10.5987 15.6279 15.0422 19.381 28.8088C19.8492 30.5147 20.2538 32.0699 20.6188 33.4903C22.904 42.4007 23.4674 45.8523 26.0541 47.0903C27.4188 47.7407 27.9346 47.098 34.457 45.273C40.527 43.5673 42.3757 43.48 43.3357 42.9087C43.407 42.861 43.4787 42.8213 43.542 42.7657C43.7007 42.639 43.8437 42.4563 44.042 42.2103C45.5257 40.2903 45.2797 37.8543 42.6373 28.0629C41.8917 25.3096 41.376 23.5084 40.868 21.8263C40.0747 19.2158 39.8603 18.708 39.2653 16.7798C36.4803 7.7899 36.5597 4.12407 33.3143 2.69584Z" fill="#E3B3FA"/>
<path d="M27.8791 17.145C27.4665 18.6843 25.578 18.3034 21.0712 19.8031C20.7062 19.9221 19.881 20.2077 19.2779 19.7396C18.7701 19.3508 18.6511 18.6605 18.6035 18.3828C17.9846 14.5741 16.0485 10.8528 17.207 10.0673C17.3022 10.0038 18.0163 9.78953 19.4525 9.369C19.508 9.35313 19.5398 9.3452 19.5874 9.32933C19.9524 9.21827 20.7062 9.01197 22.19 8.6549C23.7769 8.27403 24.5783 8.0836 24.7608 8.16293C25.6971 8.5676 25.705 9.80543 27.1174 14.1853C27.8553 16.4546 28.014 16.6371 27.8791 17.145Z" fill="#FAEBE3"/>
<path d="M27.3238 16.8356C26.9589 18.2162 25.2608 17.875 21.2221 19.216C20.8889 19.3271 20.1589 19.573 19.6114 19.1604C19.1591 18.8113 19.048 18.1924 19.0083 17.9385C18.4529 14.5266 16.7152 11.1861 17.7547 10.4879C17.842 10.4323 18.4847 10.2419 19.7701 9.86103C19.8177 9.84517 19.8494 9.83723 19.8891 9.82137C20.2223 9.72613 20.8889 9.5357 22.2219 9.21833C23.6422 8.87713 24.3642 8.7105 24.5229 8.7819C25.364 9.1469 25.364 10.2498 26.6335 14.1775C27.3 16.2167 27.4508 16.3833 27.3238 16.8356Z" fill="#3A2544"/>
<path d="M21.9683 11.9633C22.127 12.9631 21.4128 14.2247 20.3496 14.3041C19.699 14.3517 19.0959 13.947 18.7627 13.4471C18.3897 12.8917 18.2628 12.1062 18.596 11.4555C18.9531 10.7414 19.6593 10.5669 19.8577 10.5272C19.9925 10.5034 20.7384 10.3526 21.3573 10.8763C21.4128 10.916 21.8651 11.3127 21.9683 11.9633Z" fill="#E3B3FA"/>
<path d="M22.8883 17.5735C22.3091 18.367 20.9284 18.6844 20.1191 17.9306C19.6272 17.4704 19.4764 16.7483 19.5796 16.1532C19.6986 15.4946 20.1509 14.8757 20.8332 14.6774C21.5791 14.4711 22.2059 14.8757 22.3726 15.0027C22.4916 15.09 23.1184 15.5423 23.1978 16.3675C23.2136 16.4468 23.2612 17.0498 22.8883 17.5735Z" fill="#E3B3FA"/>
<path d="M22.0628 17.724C21.428 18.0572 20.3965 17.8033 20.0791 17.0336C19.8887 16.5655 20.0077 16.0339 20.2616 15.6848C20.5393 15.288 21.0392 15.0262 21.5629 15.1293C22.1342 15.2404 22.4278 15.7244 22.5071 15.8593C22.5627 15.9545 22.8483 16.4703 22.65 17.0416C22.6262 17.0892 22.4675 17.5097 22.0628 17.724Z" fill="#F2E5F9"/>
<path d="M21.46 13.0507C21.095 13.6854 20.0953 14.0187 19.4446 13.5267C19.0479 13.2252 18.8892 12.7015 18.9209 12.2572C18.9606 11.7652 19.2542 11.2654 19.7461 11.067C20.2778 10.8528 20.7697 11.1146 20.9046 11.186C20.9998 11.2416 21.4918 11.5272 21.6108 12.1382C21.6187 12.1937 21.6981 12.638 21.46 13.0507Z" fill="#F2E5F9"/>
<path d="M24.5944 14.3915C24.0945 14.4787 23.4359 14.0741 23.3724 13.4869C23.3328 13.1299 23.5232 12.7966 23.7692 12.6141C24.039 12.4078 24.4357 12.3443 24.7769 12.5268C25.1498 12.7252 25.253 13.1219 25.2768 13.233C25.2926 13.3123 25.3878 13.717 25.1339 14.0661C25.1101 14.0899 24.9197 14.3359 24.5944 14.3915Z" fill="#E3B3FA"/>
<path d="M29.2044 26.4127C29.1012 26.4444 28.9981 25.9763 28.5855 25.643C28.0142 25.1828 27.2604 25.3256 27.2207 25.3336C27.1176 25.3574 26.4034 25.5081 26.0781 26.1429C25.8401 26.619 25.9432 27.0951 26.0226 27.4204C26.3717 28.8407 27.6016 29.658 27.919 29.8643C28.1729 30.0309 28.0062 29.8801 29.3789 30.5625C29.9502 30.8482 30.1645 30.9672 30.466 30.9116C30.7596 30.864 30.95 30.6815 31.3864 30.1816C32.1164 29.3485 32.4814 28.9359 32.6163 28.6741C33.1003 27.7378 33.1003 26.8808 33.1003 26.492C33.1003 25.7144 32.9178 25.3415 32.7829 25.1352C32.7353 25.0559 32.6083 24.8813 32.41 24.6988C32.2909 24.5957 31.4578 23.9053 30.4739 24.2386C29.8153 24.4608 29.3789 25.0638 29.2678 25.6034C29.1885 26.008 29.2996 26.3809 29.2044 26.4127Z" fill="#3A2544"/>
</svg>
