<svg width="143" height="143" viewBox="0 0 143 143" fill="none" xmlns="http://www.w3.org/2000/svg">
<mask id="mask0_282_3800" style="mask-type:luminance" maskUnits="userSpaceOnUse" x="0" y="0" width="143" height="143">
<path d="M142.82 0H0V142.82H142.82V0Z" fill="white"/>
</mask>
<g mask="url(#mask0_282_3800)">
<path d="M87.7933 72.2822C84.227 75.4717 71.5443 80.143 64.688 82.5038C61.172 75.7229 58.6606 68.4899 57.4551 61.3574C59.6149 63.7433 63.2314 66.5059 69.3342 68.5904C82.5695 73.111 92.7659 67.8621 87.7933 72.2822Z" fill="#E3B3FA"/>
<path d="M131.743 123.189C132.673 131.603 86.5877 152.372 51.6535 137.781C37.6397 131.929 28.1967 121.557 27.6944 121.004C18.9295 111.21 15.5893 101.289 13.8312 95.915C8.70791 80.1933 9.9134 66.6818 10.7673 60.7046C11.9226 52.5173 16.7194 28.4325 36.6602 12.9118C49.1672 3.19256 66.1445 -2.75955 69.3592 1.28387C71.0921 3.44371 68.003 7.4369 64.261 16.9804C64.261 16.9804 59.4641 29.2362 57.1034 45.6359C56.375 50.6588 56.5508 55.983 57.4298 61.3575C58.6353 68.49 61.1468 75.723 64.6628 82.5039C65.8181 84.7139 67.0738 86.8738 68.43 88.9583C68.8067 89.561 69.2085 90.1638 69.6103 90.7414C73.9049 96.9949 79.0533 102.595 84.8297 106.99C107.131 123.993 131.09 117.187 131.743 123.189Z" fill="#E3B3FA"/>
<path d="M23.3242 61.1062C23.3242 61.1062 27.9955 67.9373 33.5458 68.2387C39.0961 68.5401 43.1897 67.7615 46.4797 65.5515C49.7697 63.3414 50.6487 54.4258 50.6487 54.4258L47.0573 55.1792C47.0573 55.1792 47.8359 56.5103 45.8016 59.9258C43.7673 63.3414 39.4226 65.2501 35.9568 65.4761C32.491 65.7021 25.9863 59.5491 25.9863 59.5491L23.3242 61.1062Z" fill="#3A2544"/>
<path d="M69.6352 90.7664C62.6283 95.9902 54.2652 96.5427 50.272 95.8646C45.9523 95.1363 38.0664 90.4148 38.0664 90.4148L39.0459 86.3965C39.0459 86.3965 39.724 86.9741 43.6669 89.7869C47.635 92.5997 53.1602 94.8852 58.7356 93.1774C62.126 92.1477 65.9685 90.2641 68.4297 88.9581C68.8316 89.586 69.2334 90.1636 69.6352 90.7664Z" fill="#3A2544"/>
<path d="M22.7968 49.4533C27.0411 46.9167 31.3357 44.4053 35.6805 41.8687C39.8244 39.4578 43.9682 37.097 48.0619 34.7614C47.9363 34.1586 47.8107 33.5559 47.6852 32.9531C47.6852 32.9531 37.9157 36.8961 33.0686 40.0856C28.2466 43.25 22.3447 47.2935 22.3447 47.2935C22.4954 48.0218 22.6461 48.7501 22.7968 49.4533Z" fill="#3A2544"/>
<path d="M98.3161 28.6089C104.017 22.3554 100.149 7.93977 104.117 3.69543C104.369 3.41917 104.67 3.16803 105.047 3.19314C107.207 3.31871 108.337 12.9878 109.09 18.1362C109.944 23.9628 110.773 28.2824 113.284 30.1409C115.771 31.9994 131.869 30.6181 131.04 33.9583C130.211 37.2985 113.008 38.9561 110.773 43.4013C108.563 47.8466 110.773 72.082 106.604 66.7577C102.435 61.4334 102.711 44.2301 97.7133 42.5725C89.6516 39.8853 78.7017 39.5337 78.4254 36.2939C78.4003 36.1432 78.4254 36.0428 78.4506 35.8921C79.3296 31.4971 92.7155 34.7368 98.3161 28.6089Z" fill="#F9A172"/>
</g>
</svg>
