<svg width="104" height="105" viewBox="0 0 104 105" fill="none" xmlns="http://www.w3.org/2000/svg">
<rect y="0.501007" width="104" height="104" rx="4" fill="#F2E5F9"/>
<g clip-path="url(#clip0_390_6183)">
<mask id="mask0_390_6183" style="mask-type:luminance" maskUnits="userSpaceOnUse" x="12" y="1" width="32" height="33">
<path d="M43.4079 1.92567H12.1099V33.4608H43.4079V1.92567Z" fill="white"/>
</mask>
<g mask="url(#mask0_390_6183)">
<path d="M27.4706 16.2091C26.6875 16.5877 25.5392 17.1528 24.1528 17.8459C19.5757 20.1438 18.4803 20.8369 18.0411 21.1195C15.4853 22.7776 14.1889 23.6414 13.4269 25.3101C13.1782 25.8539 12.2839 27.8054 13.1041 29.8953C14.0249 32.236 16.4113 32.9823 17.004 33.1689C17.3797 33.2864 19.7344 33.9848 22.0733 32.7105C23.4702 31.9534 24.1952 30.8551 24.4809 30.4179C25.3858 29.0156 25.5604 27.6561 25.6503 27.0109C25.9996 24.4624 26.6346 20.8529 27.4706 16.2091Z" fill="#F8D478"/>
<path d="M26.6139 1.92567C25.8201 2.40018 24.6031 3.08263 23.0579 3.75974C20.3857 4.92735 19.5761 4.84206 17.3113 5.96703C15.3217 6.9587 13.7131 7.79044 13.0517 9.54987C12.6283 10.6802 12.7924 11.6878 12.8453 12.0077C13.131 13.6552 14.2899 15.1854 15.8668 15.7719C16.6605 16.0651 17.3061 16.0278 18.3009 15.9638C19.3168 15.8998 20.8567 15.8092 22.1055 14.8388C22.9151 14.215 23.259 13.426 23.9258 11.8798C24.5819 10.3496 24.9206 9.09669 25.5661 6.42023C25.8572 5.19395 26.217 3.67443 26.6139 1.92567Z" fill="#8D4AAD"/>
<path d="M42.557 2.66721C40.1705 4.68257 38.1386 6.0368 36.6835 6.92184C36.6252 6.95916 34.0113 8.44669 32.1751 10.7019C31.6883 11.2991 31.4079 11.7736 31.2068 12.4934C30.7888 13.9702 31.2491 15.2391 31.3814 15.5644C31.5296 15.9429 32.1698 17.4091 33.7891 18.1502C35.7734 19.0566 37.6625 18.1502 37.9324 18.0116C39.9854 16.9719 40.684 14.7167 41.2871 12.776C41.483 12.1521 41.6839 11.3524 42.0438 8.19075C42.303 5.88217 42.4619 3.97879 42.557 2.66721Z" fill="#E3B3FA"/>
<path d="M17.7078 7.00697C16.9617 6.55379 15.4853 7.68409 14.7498 8.56381C14.1466 9.29423 13.9561 9.97134 13.9032 10.142C13.8291 10.3819 13.7868 10.6485 13.7656 11.0057C13.7127 12.0453 13.6651 12.4079 14.5911 13.3463C15.5171 14.2793 16.9617 13.3463 16.7077 12.3066C16.4484 11.2669 15.6758 9.67811 16.4008 8.96368C17.0199 8.35054 18.02 8.29721 18.0782 7.6681C18.1046 7.40684 17.9247 7.13493 17.7078 7.00697Z" fill="white"/>
<path d="M17.5492 23.2039C16.3057 23.1346 15.2739 24.6381 14.9299 25.134C14.5066 25.7472 14.3426 26.2696 14.2632 26.5043C14.2632 26.5043 14.115 26.9894 14.0886 27.4692C14.0462 28.1837 14.2844 29.9058 15.3215 30.1884C15.9512 30.3589 16.5491 29.9217 16.7026 29.7991C17.1947 29.4046 17.4593 28.7702 17.4275 28.1996C17.3852 27.5332 17.0148 27.4586 16.9407 26.6483C16.9142 26.3283 16.8666 25.8057 17.1683 25.374C17.4963 24.9101 17.8985 25.022 18.216 24.5049C18.253 24.4462 18.5705 23.913 18.3536 23.5452C18.1631 23.2253 17.6762 23.2093 17.5492 23.2039Z" fill="white"/>
<path d="M33.926 10.7237C33.3598 10.7557 32.9788 11.5021 32.656 12.1312C32.5026 12.4352 32.3173 12.8084 32.2221 13.3469C32.1798 13.5868 32.1216 14.0879 32.2433 14.7011C32.3491 15.2183 32.4443 15.7194 32.8783 16.05C32.9576 16.114 33.254 16.3219 33.6614 16.3219C33.7037 16.3219 34.4075 16.3112 34.5979 15.8687C34.709 15.6128 34.5979 15.3462 34.5081 15.1383C34.2806 14.6051 33.8889 14.5891 33.7143 14.1679C33.5767 13.8374 33.672 13.5121 33.7672 13.1816C33.9895 12.4245 34.455 12.2059 34.5821 11.4435C34.6032 11.3102 34.6192 11.1396 34.5238 10.9903C34.4022 10.7824 34.1217 10.7131 33.926 10.7237Z" fill="white"/>
</g>
</g>
<g clip-path="url(#clip1_390_6183)">
<path d="M56.4304 23.4239L42.6581 41.7178L23.3054 57.3428C20.6459 60.0322 19.0123 63.5681 18.688 67.3364C18.4 71.3125 19.5825 75.2559 22.0107 78.4174C22.9227 79.6547 26.4176 84.0807 32.792 85.5316C33.975 85.8027 40.4036 87.2663 45.5822 83.7331C49.329 81.1821 48.771 78.5003 52.977 72.7414C54.6128 70.5093 57.4763 67.9806 63.1364 63.0252C73.7486 53.7331 74.3992 54.0233 77.6645 50.2701C82.0363 45.2382 85.6364 40.9621 85.3175 35.2255C85.056 30.4424 82.1925 26.8964 81.255 25.7389C78.92 22.8808 75.8249 20.7407 72.3264 19.5654C69.9696 18.9048 67.4966 18.7688 65.0815 19.1668C61.8478 19.7224 58.8436 21.2007 56.4304 23.4239Z" fill="#E3B3FA" stroke="#8D4AAD" stroke-width="0.237405" stroke-miterlimit="10"/>
<path d="M30.1988 53.354C29.0158 52.8406 26.6306 51.2271 25.6006 44.7603C28.9003 41.6293 32.0358 38.3299 34.9947 34.8751C39.5706 29.5243 41.9813 25.8221 44.7875 26.2654C45.7441 26.4185 46.0343 26.9318 48.7862 29.3617C51.114 31.4184 53.1134 33.0064 54.4813 34.0587C45.2339 48.1244 35.5209 55.6595 30.1988 53.354Z" fill="#E3B3FA"/>
<path d="M47.8706 70.1014C49.4172 72.3335 53.7316 77.9203 58.9197 77.5504C61.8566 77.34 61.8853 75.449 70.3419 68.3635C75.2813 64.2181 78.8528 61.868 78.2883 59.435C78.1289 58.7462 77.7303 58.44 76.9204 57.5727C74.8894 55.3619 73.2145 52.849 71.9554 50.1238L47.8706 70.1014Z" fill="#E3B3FA"/>
<path d="M67.8049 21.8111C69.0546 21.8112 70.2986 21.9785 71.5039 22.3086C74.4596 23.3092 77.0734 25.1228 79.0453 27.5413C79.8425 28.5266 82.266 31.5209 82.4733 35.3793C82.7124 39.7575 80.002 43.2142 75.5058 48.3832C73.8062 50.3411 72.9707 51.0202 70.4962 53.0451C68.6467 54.5534 65.8566 56.8366 61.2488 60.8672C55.6206 65.7938 52.5179 68.5202 50.6652 71.0489C49.2091 73.0478 47.9511 75.1838 46.9088 77.4265C45.9522 79.3684 45.4835 80.341 43.9688 81.3774C42.1895 82.5891 39.9669 83.2046 37.3648 83.2046C36.0413 83.2 34.7225 83.0471 33.4331 82.7486C28.3693 81.5942 25.375 78.1535 24.3227 76.7281L24.3004 76.6995L24.2781 76.6676C22.2835 74.0796 21.3107 70.8482 21.5453 67.5891C21.8113 64.549 23.1125 61.6922 25.2315 59.496L34.7819 51.7792L44.4599 43.9635L44.7373 43.7403L44.9509 43.4565L58.5574 25.3825C60.5297 23.6164 62.9621 22.4456 65.5728 22.0056C66.3107 21.8847 67.0572 21.8239 67.8049 21.8239M67.8049 18.954C66.8989 18.9538 65.9945 19.0284 65.1008 19.1772C61.8599 19.7301 58.8486 21.2098 56.4305 23.4374L42.6582 41.7313L23.3055 57.3563C20.646 60.0458 19.0124 63.5816 18.6882 67.35C18.4033 71.3218 19.5856 75.26 22.0109 78.4182C22.9229 79.6555 26.4178 84.0815 32.7921 85.5324C34.2906 85.8797 35.8234 86.0572 37.3616 86.0617C39.8266 86.0617 42.875 85.5802 45.5823 83.7339C49.3291 81.1829 48.7711 78.5011 52.9771 72.7422C54.6129 70.51 57.4764 67.9813 63.1365 63.026C73.7488 53.7339 74.3993 54.0241 77.6646 50.2709C82.0364 45.239 85.6365 40.9629 85.3177 35.2263C85.0562 30.4431 82.1927 26.8972 81.2552 25.7397C78.9202 22.8816 75.8251 20.7415 72.3266 19.5662C70.8487 19.1495 69.3212 18.9349 67.7858 18.9284L67.8049 18.954Z" fill="#8D4AAD"/>
<path d="M42.8611 71.303C49.0801 70.7828 66.4829 51.2423 68.3821 45.9007C69.213 40.9152 72.5364 36.9979 67.4325 34.9801C66.8577 34.3616 59.4794 32.0126 55.4436 36.0484C47.2527 42.1022 31.8028 56.2625 34.1956 64.0621C35.5661 68.5469 37.5678 71.7576 42.8611 71.303Z" fill="#FF739E"/>
</g>
<defs>
<clipPath id="clip0_390_6183">
<rect width="31.3375" height="31.5749" fill="white" transform="translate(12.1074 1.92581)"/>
</clipPath>
<clipPath id="clip1_390_6183">
<rect width="67.0409" height="67.4394" fill="white" transform="translate(18.4795 18.7813)"/>
</clipPath>
</defs>
</svg>
