<svg width="104" height="105" viewBox="0 0 104 105" fill="none" xmlns="http://www.w3.org/2000/svg">
<g clip-path="url(#clip0_390_6164)">
<rect y="0.501007" width="104" height="104" rx="4" fill="#F2E5F9"/>
<g clip-path="url(#clip1_390_6164)">
<path d="M56.4304 23.4239L42.6581 41.7178L23.3054 57.3428C20.6459 60.0322 19.0123 63.5681 18.688 67.3364C18.4 71.3125 19.5825 75.2559 22.0107 78.4174C22.9227 79.6547 26.4176 84.0807 32.792 85.5316C33.975 85.8026 40.4036 87.2663 45.5822 83.7331C49.329 81.1821 48.771 78.5003 52.977 72.7414C54.6128 70.5093 57.4763 67.9806 63.1364 63.0252C73.7486 53.7331 74.3992 54.0233 77.6645 50.2701C82.0363 45.2382 85.6364 40.9621 85.3175 35.2255C85.056 30.4423 82.1925 26.8964 81.255 25.7389C78.92 22.8808 75.8249 20.7407 72.3264 19.5654C69.9696 18.9048 67.4966 18.7688 65.0815 19.1668C61.8478 19.7224 58.8436 21.2007 56.4304 23.4239Z" fill="#E3B3FA" stroke="#8D4AAD" stroke-width="0.237405" stroke-miterlimit="10"/>
<path d="M30.1988 53.354C29.0158 52.8406 26.6306 51.2271 25.6006 44.7603C28.9003 41.6294 32.0358 38.3299 34.9947 34.8751C39.5706 29.5243 41.9813 25.8222 44.7875 26.2654C45.7441 26.4185 46.0343 26.9318 48.7862 29.3617C51.114 31.4184 53.1134 33.0064 54.4813 34.0587C45.2339 48.1244 35.5209 55.6595 30.1988 53.354Z" fill="#E3B3FA"/>
<path d="M47.8706 70.1014C49.4172 72.3336 53.7316 77.9203 58.9197 77.5504C61.8566 77.34 61.8853 75.449 70.3419 68.3635C75.2813 64.2181 78.8528 61.868 78.2883 59.435C78.1289 58.7462 77.7303 58.4401 76.9204 57.5727C74.8894 55.362 73.2145 52.849 71.9554 50.1238L47.8706 70.1014Z" fill="#E3B3FA"/>
<path d="M67.8049 21.8111C69.0546 21.8112 70.2986 21.9785 71.5039 22.3086C74.4596 23.3092 77.0734 25.1228 79.0453 27.5413C79.8425 28.5266 82.266 31.5209 82.4733 35.3793C82.7124 39.7575 80.002 43.2142 75.5058 48.3832C73.8062 50.3411 72.9707 51.0202 70.4962 53.0451C68.6467 54.5534 65.8566 56.8366 61.2488 60.8672C55.6206 65.7938 52.5179 68.5202 50.6652 71.0489C49.2091 73.0478 47.9511 75.1838 46.9088 77.4265C45.9522 79.3684 45.4835 80.341 43.9688 81.3774C42.1895 82.5891 39.9669 83.2046 37.3648 83.2046C36.0413 83.2 34.7225 83.0471 33.4331 82.7486C28.3693 81.5942 25.375 78.1535 24.3227 76.7281L24.3004 76.6995L24.2781 76.6676C22.2835 74.0796 21.3107 70.8482 21.5453 67.5891C21.8113 64.549 23.1125 61.6922 25.2315 59.496L34.7819 51.7792L44.4599 43.9635L44.7373 43.7403L44.9509 43.4565L58.5574 25.3825C60.5297 23.6164 62.9621 22.4456 65.5728 22.0056C66.3107 21.8847 67.0572 21.8239 67.8049 21.8239M67.8049 18.954C66.8989 18.9538 65.9945 19.0284 65.1008 19.1772C61.8599 19.7301 58.8486 21.2098 56.4305 23.4374L42.6582 41.7313L23.3055 57.3563C20.646 60.0458 19.0124 63.5816 18.6882 67.35C18.4033 71.3218 19.5856 75.26 22.0109 78.4182C22.9229 79.6555 26.4178 84.0815 32.7921 85.5324C34.2906 85.8797 35.8234 86.0572 37.3616 86.0617C39.8266 86.0617 42.875 85.5802 45.5823 83.7339C49.3291 81.1829 48.7711 78.5011 52.9771 72.7422C54.6129 70.51 57.4764 67.9813 63.1365 63.026C73.7488 53.7339 74.3993 54.0241 77.6646 50.2709C82.0364 45.239 85.6365 40.9629 85.3177 35.2263C85.0562 30.4431 82.1927 26.8972 81.2552 25.7397C78.9202 22.8816 75.8251 20.7415 72.3266 19.5662C70.8487 19.1495 69.3212 18.9349 67.7858 18.9284L67.8049 18.954Z" fill="#8D4AAD"/>
<path d="M52.5806 59.3568C56.1248 59.0633 58.3237 55.5237 58.397 52.5704C58.4696 49.93 56.8334 48.0955 56.6158 47.8759C56.2882 47.5269 54.907 46.0044 53.0532 45.858C49.4365 45.5645 44.6928 50.5348 46.0565 54.9366C46.8375 57.4676 49.564 59.6134 52.5806 59.3568Z" fill="#FF739E"/>
</g>
<path d="M30.1196 10.7486C30.1196 10.7486 29.7289 5.32719 25.4746 6.02349C21.2321 6.70953 19.6442 12.3318 19.6442 12.3318C19.6442 12.3318 18.7554 8.62302 15.2958 9.15416C11.8352 9.6858 9.55997 17.5523 12.9255 18.9342C16.2787 20.316 47.3025 21.6862 47.705 14.1035C47.8118 12.1661 47.2667 9.54459 45.4891 8.63475C43.4982 7.61888 40.37 8.79991 37.6208 11.635C37.6448 11.3516 37.7869 9.37894 36.329 8.03226C36.1397 7.85538 35.4284 7.2055 34.4568 7.09897C32.8218 6.92209 30.9849 8.3743 30.1196 10.7486ZM10.1644 25.5004C10.0458 25.1936 9.27563 23.2327 7.20192 22.5007C7.03573 22.4416 4.2394 21.5083 2.61573 23.3275C1.40729 24.6737 1.76272 26.5163 1.81027 26.7645C1.81027 26.7645 1.63231 26.0203 1.1107 25.3353C0.163068 24.0951 -1.44835 24.2134 -1.66209 24.2251C-3.40391 24.3194 -4.39959 25.7252 -4.58882 25.9847C-5.63205 27.4496 -5.79775 29.6699 -4.76678 30.9218C-3.64119 32.2802 -1.38903 32.1029 -0.32325 32.0203C17.7367 30.615 23.294 31.2883 24.2181 28.1816C24.6927 26.6106 23.8627 24.4142 22.4528 23.8234C21.161 23.2801 19.3363 24.0477 17.843 25.6895C17.8195 25.477 17.6533 23.8826 16.2316 22.961C14.8923 22.0991 13.4706 22.5007 13.1269 22.6067C11.0057 23.1858 10.2473 25.2644 10.1644 25.5004Z" fill="#8D4AAD"/>
<path d="M10.1644 25.5002C10.0458 25.1933 9.27563 23.2325 7.20192 22.5005C7.03573 22.4414 4.2394 21.5081 2.61573 23.3272C1.40729 24.6734 1.76272 26.5161 1.81027 26.7643C1.81027 26.7643 1.63231 26.0201 1.1107 25.335C0.163068 24.0949 -1.44835 24.2131 -1.66209 24.2249C-3.40391 24.3192 -4.39959 25.725 -4.58882 25.9844C-5.63205 27.4494 -5.79775 29.6697 -4.76678 30.9216C-3.64119 32.28 -1.38903 32.1026 -0.32325 32.02C17.7367 30.6147 23.294 31.2881 24.2181 28.1813C24.6927 26.6104 23.8627 24.414 22.4528 23.8232C21.161 23.2798 19.3363 24.0475 17.843 25.6893C17.8195 25.4767 17.6533 23.8823 16.2316 22.9608C14.8923 22.0988 13.4706 22.5005 13.1269 22.6065C11.0057 23.1855 10.2473 25.2642 10.1644 25.5002Z" fill="#F8D478"/>
<path d="M69.8041 90.3545C69.6436 89.9388 68.6018 87.2827 65.7967 86.2912C65.5719 86.2111 61.7894 84.947 59.5931 87.4111C57.9585 89.2346 58.4393 91.7305 58.5036 92.0668C58.5036 92.0668 58.2629 91.0587 57.5573 90.1308C56.2754 88.4509 54.0957 88.6111 53.8066 88.627C51.4505 88.7547 50.1036 90.659 49.8477 91.0104C48.4365 92.9947 48.2124 96.0023 49.6069 97.698C51.1295 99.538 54.176 99.2978 55.6176 99.1859C80.0469 97.2824 87.5642 98.1944 88.8142 93.9862C89.4561 91.8583 88.3334 88.8831 86.4262 88.0829C84.6789 87.3469 82.2107 88.3867 80.1908 90.6106C80.1589 90.3227 79.9341 88.163 78.011 86.9147C76.1993 85.7472 74.2763 86.2912 73.8114 86.4349C70.942 87.2192 69.9161 90.0348 69.8041 90.3545Z" fill="#F9A172"/>
</g>
<defs>
<clipPath id="clip0_390_6164">
<rect y="0.501007" width="104" height="104" rx="4" fill="white"/>
</clipPath>
<clipPath id="clip1_390_6164">
<rect width="67.0409" height="67.4394" fill="white" transform="translate(18.4795 18.7813)"/>
</clipPath>
</defs>
</svg>
