<svg width="104" height="105" viewBox="0 0 104 105" fill="none" xmlns="http://www.w3.org/2000/svg">
<rect y="0.501007" width="104" height="104" rx="4" fill="#F2E5F9"/>
<g clip-path="url(#clip0_390_6133)">
<path d="M56.4324 23.4244L42.66 41.7183L23.3073 57.3433C20.6479 60.0327 19.0142 63.5686 18.69 67.337C18.402 71.313 19.5844 75.2564 22.0127 78.418C22.9247 79.6552 26.4196 84.0813 32.7939 85.5321C33.977 85.8032 40.4056 87.2668 45.5841 83.7336C49.3309 81.1826 48.7729 78.5009 52.9789 72.7419C54.6147 70.5098 57.4783 67.9811 63.1384 63.0257C73.7506 53.7337 74.4011 54.0238 77.6664 50.2707C82.0382 45.2388 85.6384 40.9626 85.3195 35.226C85.058 30.4429 82.1945 26.897 81.257 25.7394C78.922 22.8813 75.8269 20.7413 72.3284 19.5659C69.9716 18.9053 67.4986 18.7693 65.0835 19.1673C61.8498 19.7229 58.8455 21.2012 56.4324 23.4244Z" fill="#E3B3FA" stroke="#8D4AAD" stroke-width="0.237405" stroke-miterlimit="10"/>
<path d="M30.1998 53.3545C29.0167 52.8411 26.6315 51.2276 25.6016 44.7608C28.9012 41.6298 32.0368 38.3303 34.9957 34.8755C39.5716 29.5248 41.9823 25.8226 44.7884 26.2659C45.7451 26.4189 46.0352 26.9323 48.7872 29.3621C51.115 31.4189 53.1143 33.0069 54.4823 34.0592C45.2349 48.1249 35.5218 55.66 30.1998 53.3545Z" fill="#E3B3FA"/>
<path d="M47.8721 70.102C49.4186 72.3341 53.733 77.9209 58.9212 77.551C61.858 77.3406 61.8867 75.4496 70.3434 68.3641C75.2828 64.2187 78.8542 61.8686 78.2898 59.4356C78.1304 58.7468 77.7318 58.4406 76.9218 57.5733C74.8909 55.3625 73.2159 52.8496 71.9569 50.1244L47.8721 70.102Z" fill="#E3B3FA"/>
<path d="M67.8054 21.8106C69.0551 21.8107 70.2991 21.978 71.5044 22.3081C74.4601 23.3088 77.0739 25.1223 79.0458 27.5409C79.843 28.5262 82.2665 31.5205 82.4738 35.3789C82.7129 39.7571 80.0025 43.2137 75.5063 48.3827C73.8067 50.3406 72.9712 51.0198 70.4967 53.0447C68.6472 54.553 65.857 56.8361 61.2493 60.8668C55.6211 65.7934 52.5184 68.5198 50.6657 71.0485C49.2096 73.0474 47.9515 75.1833 46.9093 77.426C45.9527 79.368 45.4839 80.3406 43.9693 81.377C42.1899 82.5887 39.9674 83.2041 37.3653 83.2041C36.0418 83.1996 34.723 83.0467 33.4336 82.7482C28.3698 81.5938 25.3755 78.1531 24.3232 76.7277L24.3009 76.6991L24.2786 76.6672C22.2839 74.0792 21.3112 70.8478 21.5458 67.5887C21.8118 64.5486 23.113 61.6917 25.232 59.4956L34.7824 51.7787L44.4603 43.9631L44.7378 43.7399L44.9514 43.4561L58.5579 25.3821C60.5302 23.616 62.9626 22.4451 65.5732 22.0052C66.3111 21.8843 67.0577 21.8235 67.8054 21.8234M67.8054 18.9535C66.8994 18.9533 65.995 19.028 65.1013 19.1767C61.8604 19.7297 58.849 21.2094 56.431 23.437L42.6587 41.7309L23.306 57.3559C20.6465 60.0453 19.0129 63.5812 18.6887 67.3496C18.4038 71.3213 19.5861 75.2596 22.0114 78.4178C22.9233 79.655 26.4182 84.0811 32.7926 85.532C34.2911 85.8793 35.8239 86.0568 37.3621 86.0613C39.8271 86.0613 42.8755 85.5798 45.5828 83.7335C49.3296 81.1824 48.7716 78.5007 52.9776 72.7418C54.6134 70.5096 57.4769 67.9809 63.137 63.0256C73.7493 53.7335 74.3998 54.0236 77.6651 50.2705C82.0369 45.2386 85.637 40.9625 85.3182 35.2258C85.0567 30.4427 82.1932 26.8968 81.2557 25.7392C78.9207 22.8812 75.8256 20.7411 72.3271 19.5657C70.8492 19.149 69.3217 18.9345 67.7863 18.928L67.8054 18.9535Z" fill="#8D4AAD"/>
</g>
<path d="M12.11 29.0695C13.2666 27.8232 12.4818 24.9503 13.2869 24.1044C13.338 24.0493 13.3991 23.9993 13.4756 24.0043C13.9138 24.0293 14.1431 25.9563 14.2958 26.9823C14.4691 28.1436 14.6373 29.0044 15.1468 29.3748C15.6513 29.7452 18.9174 29.4699 18.7492 30.1356C18.581 30.8013 15.0908 31.1316 14.6373 32.0175C14.1889 32.9034 14.6373 37.7334 13.7915 36.6723C12.9456 35.6112 13.0016 32.1827 11.9877 31.8524C10.352 31.3168 8.13043 31.2467 8.07437 30.6011C8.06928 30.571 8.07437 30.551 8.07949 30.521C8.25783 29.6451 10.9737 30.2907 12.11 29.0695Z" fill="#F9A172"/>
<path d="M23.1741 13.4421C25.256 11.1342 23.8435 5.81388 25.2926 4.24745C25.3846 4.14549 25.4945 4.05281 25.6322 4.06207C26.421 4.10842 26.8337 7.67692 27.1087 9.577C27.4206 11.7274 27.7233 13.3216 28.6403 14.0075C29.5486 14.6934 35.4275 14.1836 35.1248 15.4164C34.822 16.6491 28.5395 17.2609 27.7233 18.9014C26.9162 20.542 27.7233 29.4864 26.2008 27.5214C24.6783 25.5564 24.7791 19.2073 22.9539 18.5955C20.0098 17.6038 16.011 17.474 15.91 16.2783C15.9009 16.2227 15.91 16.1857 15.9192 16.13C16.2403 14.508 21.1288 15.7037 23.1741 13.4421Z" fill="#F8D478"/>
<defs>
<clipPath id="clip0_390_6133">
<rect width="67.0409" height="67.4394" fill="white" transform="translate(18.4795 18.7813)"/>
</clipPath>
</defs>
</svg>
