<svg width="104" height="105" viewBox="0 0 104 105" fill="none" xmlns="http://www.w3.org/2000/svg">
<rect y="0.501007" width="104" height="104" rx="4" fill="#F2E5F9"/>
<g clip-path="url(#clip0_390_6148)">
<path d="M56.4304 23.4239L42.6581 41.7178L23.3054 57.3428C20.6459 60.0322 19.0123 63.5681 18.688 67.3364C18.4 71.3125 19.5825 75.2559 22.0107 78.4174C22.9227 79.6547 26.4176 84.0807 32.792 85.5316C33.975 85.8026 40.4036 87.2663 45.5822 83.7331C49.329 81.1821 48.771 78.5003 52.977 72.7414C54.6128 70.5093 57.4763 67.9806 63.1364 63.0252C73.7486 53.7331 74.3992 54.0233 77.6645 50.2701C82.0363 45.2382 85.6364 40.9621 85.3175 35.2255C85.056 30.4423 82.1925 26.8964 81.255 25.7389C78.92 22.8808 75.8249 20.7407 72.3264 19.5654C69.9696 18.9048 67.4966 18.7688 65.0815 19.1668C61.8478 19.7224 58.8436 21.2007 56.4304 23.4239Z" fill="#E3B3FA" stroke="#8D4AAD" stroke-width="0.237405" stroke-miterlimit="10"/>
<path d="M30.1988 53.354C29.0158 52.8406 26.6306 51.2271 25.6006 44.7603C28.9003 41.6294 32.0358 38.3299 34.9947 34.8751C39.5706 29.5243 41.9813 25.8222 44.7875 26.2654C45.7441 26.4185 46.0343 26.9318 48.7862 29.3617C51.114 31.4184 53.1134 33.0064 54.4813 34.0587C45.2339 48.1244 35.5209 55.6595 30.1988 53.354Z" fill="#E3B3FA"/>
<path d="M47.8706 70.1014C49.4172 72.3336 53.7316 77.9203 58.9197 77.5504C61.8566 77.34 61.8853 75.449 70.3419 68.3635C75.2813 64.2181 78.8528 61.868 78.2883 59.435C78.1289 58.7462 77.7303 58.4401 76.9204 57.5727C74.8894 55.362 73.2145 52.849 71.9554 50.1238L47.8706 70.1014Z" fill="#E3B3FA"/>
<path d="M67.8049 21.8111C69.0546 21.8112 70.2986 21.9785 71.5039 22.3086C74.4596 23.3092 77.0734 25.1228 79.0453 27.5413C79.8425 28.5266 82.266 31.5209 82.4733 35.3793C82.7124 39.7575 80.002 43.2142 75.5058 48.3832C73.8062 50.3411 72.9707 51.0202 70.4962 53.0451C68.6467 54.5534 65.8566 56.8366 61.2488 60.8672C55.6206 65.7938 52.5179 68.5202 50.6652 71.0489C49.2091 73.0478 47.9511 75.1838 46.9088 77.4265C45.9522 79.3684 45.4835 80.341 43.9688 81.3774C42.1895 82.5891 39.9669 83.2046 37.3648 83.2046C36.0413 83.2 34.7225 83.0471 33.4331 82.7486C28.3693 81.5942 25.375 78.1535 24.3227 76.7281L24.3004 76.6995L24.2781 76.6676C22.2835 74.0796 21.3107 70.8482 21.5453 67.5891C21.8113 64.549 23.1125 61.6922 25.2315 59.496L34.7819 51.7792L44.4599 43.9635L44.7373 43.7403L44.9509 43.4565L58.5574 25.3825C60.5297 23.6164 62.9621 22.4456 65.5728 22.0056C66.3107 21.8847 67.0572 21.8239 67.8049 21.8239M67.8049 18.954C66.8989 18.9538 65.9945 19.0284 65.1008 19.1772C61.8599 19.7301 58.8486 21.2098 56.4305 23.4374L42.6582 41.7313L23.3055 57.3563C20.646 60.0458 19.0124 63.5816 18.6882 67.35C18.4033 71.3218 19.5856 75.26 22.0109 78.4182C22.9229 79.6555 26.4178 84.0815 32.7921 85.5324C34.2906 85.8797 35.8234 86.0572 37.3616 86.0617C39.8266 86.0617 42.875 85.5802 45.5823 83.7339C49.3291 81.1829 48.7711 78.5011 52.9771 72.7422C54.6129 70.51 57.4764 67.9813 63.1365 63.026C73.7488 53.7339 74.3993 54.0241 77.6646 50.2709C82.0364 45.239 85.6365 40.9629 85.3177 35.2263C85.0562 30.4431 82.1927 26.8972 81.2552 25.7397C78.9202 22.8816 75.8251 20.7415 72.3266 19.5662C70.8487 19.1495 69.3212 18.9349 67.7858 18.9284L67.8049 18.954Z" fill="#8D4AAD"/>
<path d="M52.3494 55.9889C54.1546 55.8408 55.2746 54.0542 55.3119 52.5636C55.3489 51.2309 54.5155 50.305 54.4047 50.1941C54.2378 50.018 53.5343 49.2495 52.5901 49.1756C50.7479 49.0275 48.3318 51.5362 49.0263 53.7579C49.4242 55.0354 50.8129 56.1184 52.3494 55.9889Z" fill="#FF739E"/>
</g>
<path d="M32.3846 9.85466C32.3846 9.85466 32.0863 5.71469 28.8386 6.24641C25.5999 6.7703 24.3877 11.0636 24.3877 11.0636C24.3877 11.0636 23.7092 8.23151 21.0682 8.63711C18.4264 9.04308 16.6895 15.0502 19.2587 16.1055C21.8185 17.1607 45.5019 18.207 45.8091 12.4166C45.8907 10.9371 45.4746 8.93525 44.1175 8.24046C42.5977 7.46471 40.2097 8.36658 38.1109 10.5315C38.1292 10.3151 38.2378 8.80875 37.1248 7.78038C36.9803 7.64531 36.4373 7.14903 35.6955 7.06769C34.4474 6.93261 33.0451 8.04158 32.3846 9.85466ZM17.151 21.1197C17.0604 20.8854 16.4724 19.388 14.8894 18.829C14.7625 18.7839 12.6278 18.0712 11.3883 19.4604C10.4658 20.4884 10.7371 21.8955 10.7734 22.085C10.7734 22.085 10.6376 21.5167 10.2394 20.9936C9.51598 20.0466 8.28584 20.1369 8.12267 20.1458C6.79298 20.2178 6.03288 21.2914 5.88843 21.4895C5.09203 22.6082 4.96554 24.3037 5.75257 25.2597C6.61184 26.297 8.33112 26.1616 9.14473 26.0985C22.9315 25.0254 27.174 25.5395 27.8794 23.1671C28.2417 21.9675 27.6081 20.2902 26.5318 19.8391C25.5456 19.4242 24.1527 20.0104 23.0127 21.2641C22.9948 21.1018 22.8679 19.8843 21.7826 19.1805C20.7602 18.5223 19.6749 18.829 19.4125 18.91C17.7932 19.3522 17.2142 20.9395 17.151 21.1197Z" fill="#F8D478"/>
<path d="M17.1676 21.2361C17.0769 21.0072 16.4881 19.5447 14.9028 18.9987C14.7758 18.9546 12.6381 18.2585 11.3969 19.6154C10.4731 20.6195 10.7448 21.9938 10.7812 22.179C10.7812 22.179 10.6451 21.6239 10.2464 21.1129C9.52196 20.188 8.2901 20.2761 8.1267 20.2849C6.79516 20.3552 6.03401 21.4038 5.88935 21.5973C5.09185 22.6899 4.96518 24.346 5.75331 25.2798C6.61377 26.293 8.33545 26.1607 9.15019 26.0991C22.9562 25.0509 27.2045 25.5531 27.911 23.2359C28.2737 22.0642 27.6393 20.4259 26.5614 19.9853C25.5739 19.58 24.179 20.1526 23.0375 21.3772C23.0195 21.2186 22.8925 20.0294 21.8056 19.342C20.7818 18.6991 19.695 18.9987 19.4323 19.0778C17.8106 19.5097 17.2309 21.0601 17.1676 21.2361Z" fill="#F9A172"/>
<defs>
<clipPath id="clip0_390_6148">
<rect width="67.0409" height="67.4394" fill="white" transform="translate(18.4795 18.7813)"/>
</clipPath>
</defs>
</svg>
