<svg width="104" height="105" viewBox="0 0 104 105" fill="none" xmlns="http://www.w3.org/2000/svg">
<rect y="0.501007" width="104" height="104" rx="4" fill="#F2E5F9"/>
<g clip-path="url(#clip0_390_6209)">
<path d="M32.8142 20.016C32.5027 22.7101 31.5686 24.5831 31.3202 25.066C30.8193 26.0318 29.8672 27.8326 27.9625 29.2858C24.8078 31.6912 21.1568 31.5198 19.3697 31.4385C18.4896 31.3979 15.4072 31.1723 12.1126 29.2858C10.8986 28.5908 9.44538 27.7604 8.2132 26.0815C6.2636 23.4188 6.25905 20.5078 6.25488 18.8741C6.25488 17.7007 6.29091 14.2618 8.55656 10.9221C9.05747 10.1819 9.9825 8.84607 11.675 7.71779C14.3828 5.91248 17.163 5.90338 18.9501 5.89902C20.2769 5.89446 23.7836 5.93068 27.3535 8.15102C28.5675 8.90465 30.4856 10.0963 31.7718 12.4836C33.3468 15.3945 33.0129 18.2875 32.8144 20.016H32.8142Z" fill="#E3B3FA"/>
<path d="M13.3184 24.357C13.3184 24.357 14.2752 21.6492 16.4641 20.4398C18.653 19.2348 20.6117 18.9775 22.2454 20.0381C23.8791 21.1032 23.7978 23.7839 23.7978 23.7839L22.6335 23.9915C22.6335 23.9915 22.6695 21.9562 22.0287 21.5093C21.3879 21.0626 19.5374 20.1283 18.5174 20.7017C17.4974 21.2746 15.0605 22.4345 14.3338 24.6505L13.3184 24.357Z" fill="#FF739E"/>
<path d="M14.8798 15.6246C14.8616 16.3514 14.3155 17.2223 13.4354 17.2946C12.6863 17.3577 12.0093 16.8297 11.8153 16.2069C11.4767 15.1237 12.6547 13.9007 13.5528 13.9729C14.0131 14.0089 14.3561 14.3836 14.4374 14.4694C14.4915 14.5235 14.8978 14.9749 14.8798 15.6246ZM25.7471 15.4487C25.7111 16.1483 25.1469 16.9108 24.2893 16.9696C23.4274 17.0284 22.7233 16.3468 22.6241 15.6021C22.4886 14.5551 23.5943 13.7065 24.4203 13.7968C24.8941 13.851 25.2237 14.2076 25.3048 14.2933C25.3816 14.3745 25.7788 14.8213 25.7471 15.4487Z" fill="#3A2544"/>
<path d="M11.4222 16.6267C10.2577 17.4343 9.4318 18.2467 8.88122 18.8561C8.01932 19.8173 7.67616 20.4627 7.51822 21.135C7.44618 21.4422 7.3783 21.7489 7.44163 22.137C7.59501 23.0803 8.42088 23.8656 9.32354 24.1137C10.1088 24.3304 10.9664 24.1454 11.4807 23.7844C12.8166 22.8412 12.8619 19.9347 11.4222 16.6267ZM10.5421 13.2373C10.5421 13.2373 12.4058 12.3166 13.3175 11.7029C14.2291 11.089 16.224 10.218 16.224 10.218L15.4567 8.95435C15.4567 8.95435 14.2517 9.65395 13.3175 10.164C12.3832 10.674 9.95527 12.109 9.95527 12.109L10.5421 13.2373ZM28.1613 12.849C27.2839 12.391 26.4023 11.9412 25.5166 11.4995C24.5523 11.0149 23.5834 10.5395 22.6101 10.0733C22.8674 9.63101 23.1201 9.19324 23.3774 8.75111C23.3774 8.75111 24.5823 9.45071 25.5166 9.96072C26.4507 10.4705 28.8789 11.9058 28.8789 11.9058C28.6442 12.2216 28.4005 12.5375 28.1613 12.849Z" fill="#3A2544"/>
</g>
<g clip-path="url(#clip1_390_6209)">
<path d="M56.4324 23.4244L42.66 41.7183L23.3073 57.3433C20.6479 60.0327 19.0142 63.5686 18.69 67.337C18.402 71.313 19.5844 75.2564 22.0127 78.418C22.9247 79.6552 26.4196 84.0812 32.7939 85.5321C33.977 85.8032 40.4056 87.2668 45.5841 83.7336C49.3309 81.1826 48.7729 78.5009 52.9789 72.7419C54.6147 70.5098 57.4783 67.9811 63.1384 63.0257C73.7506 53.7337 74.4011 54.0238 77.6664 50.2706C82.0382 45.2388 85.6384 40.9626 85.3195 35.226C85.058 30.4429 82.1945 26.8969 81.257 25.7394C78.922 22.8813 75.8269 20.7412 72.3284 19.5659C69.9716 18.9053 67.4986 18.7693 65.0835 19.1673C61.8498 19.7229 58.8455 21.2012 56.4324 23.4244Z" fill="#E3B3FA" stroke="#8D4AAD" stroke-width="0.237405" stroke-miterlimit="10"/>
<path d="M30.1998 53.3545C29.0167 52.8411 26.6315 51.2276 25.6016 44.7607C28.9012 41.6298 32.0368 38.3303 34.9957 34.8755C39.5716 29.5248 41.9823 25.8226 44.7884 26.2658C45.7451 26.4189 46.0352 26.9323 48.7872 29.3621C51.115 31.4189 53.1143 33.0069 54.4823 34.0592C45.2349 48.1249 35.5218 55.66 30.1998 53.3545Z" fill="#E3B3FA"/>
<path d="M47.8721 70.102C49.4186 72.3341 53.733 77.9209 58.9212 77.551C61.858 77.3405 61.8867 75.4496 70.3434 68.3641C75.2828 64.2187 78.8542 61.8686 78.2898 59.4355C78.1304 58.7468 77.7318 58.4406 76.9218 57.5733C74.8909 55.3625 73.2159 52.8496 71.9569 50.1243L47.8721 70.102Z" fill="#E3B3FA"/>
<path d="M67.8054 21.8106C69.0551 21.8107 70.2991 21.978 71.5044 22.3081C74.4601 23.3087 77.0739 25.1223 79.0458 27.5408C79.843 28.5262 82.2665 31.5205 82.4738 35.3789C82.7129 39.7571 80.0025 43.2137 75.5063 48.3827C73.8067 50.3406 72.9712 51.0198 70.4967 53.0447C68.6472 54.553 65.857 56.8361 61.2493 60.8667C55.6211 65.7934 52.5184 68.5198 50.6657 71.0485C49.2096 73.0474 47.9515 75.1833 46.9093 77.426C45.9527 79.368 45.4839 80.3406 43.9693 81.377C42.1899 82.5887 39.9674 83.2041 37.3653 83.2041C36.0418 83.1996 34.723 83.0467 33.4336 82.7482C28.3698 81.5938 25.3755 78.1531 24.3232 76.7277L24.3009 76.6991L24.2786 76.6671C22.2839 74.0791 21.3112 70.8477 21.5458 67.5887C21.8118 64.5486 23.113 61.6917 25.232 59.4956L34.7824 51.7787L44.4603 43.963L44.7378 43.7398L44.9514 43.4561L58.5579 25.382C60.5302 23.616 62.9626 22.4451 65.5732 22.0052C66.3111 21.8843 67.0577 21.8235 67.8054 21.8234M67.8054 18.9535C66.8994 18.9533 65.995 19.028 65.1013 19.1767C61.8604 19.7296 58.849 21.2093 56.431 23.4369L42.6587 41.7309L23.306 57.3559C20.6465 60.0453 19.0129 63.5812 18.6887 67.3495C18.4038 71.3213 19.5861 75.2596 22.0114 78.4178C22.9233 79.655 26.4182 84.0811 32.7926 85.532C34.2911 85.8792 35.8239 86.0568 37.3621 86.0613C39.8271 86.0613 42.8755 85.5797 45.5828 83.7334C49.3296 81.1824 48.7716 78.5007 52.9776 72.7417C54.6134 70.5096 57.4769 67.9809 63.137 63.0255C73.7493 53.7335 74.3998 54.0236 77.6651 50.2704C82.0369 45.2386 85.637 40.9624 85.3182 35.2258C85.0567 30.4427 82.1932 26.8967 81.2557 25.7392C78.9207 22.8811 75.8256 20.7411 72.3271 19.5657C70.8492 19.149 69.3217 18.9345 67.7863 18.928L67.8054 18.9535Z" fill="#8D4AAD"/>
<path d="M23.858 68.7553C26.1422 76.2596 33.9475 81.3378 39.0517 80.3882C42.4893 77.7439 51.2383 67.6479 59.1127 60.0447C68.9125 50.5825 78.4609 40.0174 78.5797 35.1624C78.7918 27.3337 71.6949 23.1736 68.6087 23.2922C67.0655 23.5296 65.882 23.4555 62.911 24.9541C54.5061 29.1936 49.4976 42.0473 45.5804 44.5399C41.6632 47.0324 21.7605 61.8911 23.858 68.7553Z" fill="#FF739E"/>
</g>
<defs>
<clipPath id="clip0_390_6209">
<rect width="27.3016" height="27.3016" fill="white" transform="translate(5.93555 5.24808)"/>
</clipPath>
<clipPath id="clip1_390_6209">
<rect width="67.0409" height="67.4394" fill="white" transform="translate(18.4795 18.7813)"/>
</clipPath>
</defs>
</svg>
