<svg width="20" height="20" viewBox="0 0 20 20" fill="none" xmlns="http://www.w3.org/2000/svg">
<path opacity="0.2" d="M15 8.75C15 9.98613 14.6334 11.1945 13.9467 12.2223C13.2599 13.2501 12.2838 14.0512 11.1418 14.5242C9.99974 14.9973 8.74307 15.1211 7.53069 14.8799C6.31831 14.6387 5.20466 14.0435 4.33059 13.1694C3.45651 12.2953 2.86125 11.1817 2.62009 9.96931C2.37894 8.75693 2.50271 7.50027 2.97576 6.35823C3.4488 5.21619 4.24988 4.24007 5.27769 3.55331C6.3055 2.86656 7.51387 2.5 8.75 2.5C9.57076 2.5 10.3835 2.66166 11.1418 2.97575C11.9001 3.28984 12.5891 3.75022 13.1694 4.33058C13.7498 4.91095 14.2102 5.59994 14.5243 6.35823C14.8383 7.11651 15 7.92924 15 8.75Z" fill="#3A2544"/>
<path d="M17.9419 17.0578L14.031 13.1469C15.1668 11.7847 15.7337 10.0371 15.6137 8.26762C15.4938 6.49812 14.6962 4.843 13.387 3.64656C12.0778 2.45011 10.3578 1.80448 8.58466 1.84396C6.81155 1.88345 5.12192 2.60501 3.86728 3.85855C2.61264 5.11208 1.88958 6.80107 1.84853 8.57415C1.80748 10.3472 2.45159 12.0679 3.64687 13.3781C4.84216 14.6884 6.49658 15.4874 8.26596 15.6089C10.0353 15.7304 11.7835 15.165 13.1466 14.0305L17.0576 17.9422C17.1156 18.0003 17.1846 18.0463 17.2604 18.0778C17.3363 18.1092 17.4176 18.1254 17.4998 18.1254C17.5819 18.1254 17.6632 18.1092 17.7391 18.0778C17.8149 18.0463 17.8839 18.0003 17.9419 17.9422C18 17.8841 18.0461 17.8152 18.0775 17.7393C18.1089 17.6634 18.1251 17.5821 18.1251 17.5C18.1251 17.4179 18.1089 17.3366 18.0775 17.2607C18.0461 17.1848 18 17.1159 17.9419 17.0578ZM3.12475 8.75001C3.12475 7.63749 3.45465 6.54995 4.07274 5.62493C4.69082 4.6999 5.56933 3.97893 6.59716 3.55319C7.62499 3.12744 8.75599 3.01605 9.84714 3.23309C10.9383 3.45013 11.9406 3.98586 12.7272 4.77253C13.5139 5.5592 14.0496 6.56148 14.2667 7.65263C14.4837 8.74377 14.3723 9.87477 13.9466 10.9026C13.5208 11.9304 12.7999 12.8089 11.8748 13.427C10.9498 14.0451 9.86227 14.375 8.74975 14.375C7.25842 14.3734 5.82864 13.7802 4.77411 12.7257C3.71957 11.6711 3.12641 10.2413 3.12475 8.75001Z" fill="#3A2544"/>
</svg>
