<svg width="28" height="28" viewBox="0 0 28 28" fill="none" xmlns="http://www.w3.org/2000/svg">
<path d="M19.2498 17.5C18.6661 17.4998 18.0883 17.6167 17.5506 17.8439C17.0129 18.071 16.5263 18.4037 16.1195 18.8223L11.0773 15.5816C11.4739 14.5645 11.4739 13.4355 11.0773 12.4184L16.1195 9.17765C16.8768 9.95347 17.8953 10.4204 18.9774 10.488C20.0595 10.5556 21.1281 10.2189 21.9761 9.54334C22.8241 8.86776 23.3911 7.90138 23.567 6.83154C23.743 5.76171 23.5155 4.66465 22.9285 3.75306C22.3416 2.84146 21.437 2.18028 20.3903 1.8977C19.3436 1.61512 18.2292 1.73128 17.2632 2.22365C16.2973 2.71602 15.5485 3.54952 15.1622 4.56256C14.7759 5.5756 14.7795 6.69601 15.1723 7.70656L10.1301 10.9473C9.52291 10.324 8.74364 9.89586 7.89188 9.71768C7.04012 9.53951 6.15458 9.61939 5.34846 9.9471C4.54233 10.2748 3.85225 10.8355 3.36642 11.5574C2.88059 12.2794 2.62109 13.1298 2.62109 14C2.62109 14.8702 2.88059 15.7206 3.36642 16.4426C3.85225 17.1645 4.54233 17.7252 5.34846 18.0529C6.15458 18.3806 7.04012 18.4605 7.89188 18.2823C8.74364 18.1041 9.52291 17.676 10.1301 17.0527L15.1723 20.2934C14.8345 21.1646 14.7845 22.1211 15.0296 23.0228C15.2748 23.9244 15.8022 24.7239 16.5345 25.3042C17.2669 25.8844 18.1659 26.215 19.0997 26.2474C20.0335 26.2798 20.9532 26.0123 21.724 25.4842C22.4949 24.9561 23.0764 24.1951 23.3835 23.3126C23.6905 22.4301 23.7069 21.4725 23.4303 20.58C23.1538 19.6874 22.5987 18.9069 21.8464 18.3527C21.0941 17.7985 20.1842 17.4996 19.2498 17.5ZM19.2498 3.49999C19.769 3.49999 20.2765 3.65395 20.7081 3.94239C21.1398 4.23083 21.4763 4.64079 21.675 5.12045C21.8736 5.60011 21.9256 6.12791 21.8243 6.63711C21.7231 7.14631 21.473 7.61404 21.1059 7.98115C20.7388 8.34826 20.2711 8.59827 19.7619 8.69956C19.2527 8.80084 18.7249 8.74886 18.2452 8.55018C17.7656 8.3515 17.3556 8.01505 17.0672 7.58337C16.7787 7.15169 16.6248 6.64417 16.6248 6.12499C16.6248 5.4288 16.9013 4.76112 17.3936 4.26884C17.8859 3.77656 18.5536 3.49999 19.2498 3.49999ZM6.99977 16.625C6.4806 16.625 5.97308 16.471 5.5414 16.1826C5.10972 15.8942 4.77327 15.4842 4.57459 15.0045C4.37591 14.5249 4.32393 13.9971 4.42521 13.4879C4.5265 12.9787 4.77651 12.511 5.14362 12.1438C5.51073 11.7767 5.97846 11.5267 6.48766 11.4254C6.99686 11.3241 7.52466 11.3761 8.00432 11.5748C8.48397 11.7735 8.89394 12.1099 9.18238 12.5416C9.47082 12.9733 9.62477 13.4808 9.62477 14C9.62477 14.6962 9.34821 15.3639 8.85593 15.8562C8.36365 16.3484 7.69597 16.625 6.99977 16.625ZM19.2498 24.5C18.7306 24.5 18.2231 24.346 17.7914 24.0576C17.3597 23.7692 17.0233 23.3592 16.8246 22.8795C16.6259 22.3999 16.5739 21.8721 16.6752 21.3629C16.7765 20.8537 17.0265 20.386 17.3936 20.0188C17.7607 19.6517 18.2285 19.4017 18.7377 19.3004C19.2469 19.1991 19.7747 19.2511 20.2543 19.4498C20.734 19.6485 21.1439 19.9849 21.4324 20.4166C21.7208 20.8483 21.8748 21.3558 21.8748 21.875C21.8748 22.5712 21.5982 23.2389 21.1059 23.7312C20.6136 24.2234 19.946 24.5 19.2498 24.5Z" fill="#3A2544"/>
</svg>
