<svg width="86" height="86" viewBox="0 0 86 86" fill="none" xmlns="http://www.w3.org/2000/svg">
<g clip-path="url(#clip0_240_3932)">
<path d="M41.5815 8.96383C40.9274 9.03493 40.5434 9.88821 38.1827 19.004C36.9028 23.9245 35.7224 28.6317 35.6086 28.6175C35.6086 28.6175 35.5944 28.6033 35.5944 28.5606C35.5944 27.9064 33.8168 26.6123 28.3131 22.7299C22.8096 18.8476 21.1883 16.0886 20.8613 16.8993C20.5342 17.7099 23.7766 25.3182 24.9143 28.5606C26.052 31.8031 28.7967 38.9136 28.7967 38.9136C28.7967 38.9136 21.999 39.5678 18.273 40.5349C14.5471 41.5019 1.91867 42.6254 2.40219 44.5736C2.88571 46.522 13.4094 51.0443 17.1354 53.3197C20.8612 55.5951 26.1942 57.0457 26.1942 57.0457C26.1942 57.0457 19.0694 63.9998 16.1541 67.8964C13.2387 71.779 8.21865 79.387 9.99628 78.7473C11.7739 78.1071 35.8931 68.7069 41.5673 65.6352C41.5673 65.6352 43.1885 80.852 43.9991 86.0287C44.8097 91.2048 44.9662 94.9309 47.2416 92.186C49.5169 89.4412 53.5558 74.7083 55.0064 71.6225C56.4569 68.5504 59.3722 60.1316 59.3722 60.1316C59.3722 60.1316 66.8242 64.014 71.5172 65.9623C76.2102 67.9108 83.3351 73.2434 83.9747 71.7933C84.6292 70.3426 74.7452 57.0599 72.4841 53.3339C70.223 49.608 64.2359 41.0326 64.2359 41.0326C64.2359 41.0326 75.8972 24.3654 77.6752 19.0182C77.803 18.6342 77.9451 18.0654 77.6465 17.6957C76.5375 16.2593 70.564 19.5159 60.0264 24.0383C56.3715 25.6026 53.4278 26.783 51.7781 27.4371C50.7542 25.5031 49.1472 22.4028 47.2416 18.5347C43.7574 11.4241 42.7761 8.82162 41.5815 8.96383Z" fill="#3A2544"/>
</g>
<defs>
<clipPath id="clip0_240_3932">
<rect width="86" height="86" fill="white"/>
</clipPath>
</defs>
</svg>
