<svg width="91" height="91" viewBox="0 0 91 91" fill="none" xmlns="http://www.w3.org/2000/svg">
<mask id="mask0_240_3958" style="mask-type:luminance" maskUnits="userSpaceOnUse" x="0" y="0" width="91" height="91">
<path d="M90.8855 0H0V90.8855H90.8855V0Z" fill="white"/>
</mask>
<g mask="url(#mask0_240_3958)">
<path d="M89.8785 32.9091C84.6004 31.4569 79.4943 34.1895 73.3114 30.5357C67.1278 26.8975 81.8679 13.9687 80.4157 12.3292C78.9635 10.6896 68.9389 21.2451 58.5711 19.4338C48.1875 17.6068 54.1991 5.95845 52.2004 3.41329C50.2018 0.868121 42.9098 20.1676 36.7265 19.4338C30.5431 18.6999 28.9036 9.97137 25.2498 8.1445C24.9844 8.01958 24.797 7.98834 24.594 8.03517C21.8927 8.75344 27.5608 24.4929 21.8302 29.021C18.395 31.738 8.85459 32.019 7.23066 32.0034C6.6998 32.0034 4.95097 31.941 4.09217 33.0496C4.02971 33.1433 3.60812 33.6742 3.63935 34.2675C3.68619 35.8758 6.8559 36.5004 11.3061 38.7957C17.0678 41.7625 17.7705 43.808 17.9578 44.7136C18.0828 45.307 18.1452 45.9316 17.9578 46.7123C16.4901 52.8175 5.99714 59.6879 6.8559 61.4524C6.96523 61.6866 7.32439 61.952 9.22935 61.8115C16.9273 61.2806 20.5811 56.2059 24.4222 57.58C26.1711 58.2046 27.0298 59.8441 27.0767 59.9222C29.1535 63.9978 23.7977 69.9313 24.9844 76.1765C25.0781 76.6608 25.1874 77.0197 25.4684 77.1451C27.3734 77.9883 31.9953 65.8872 38.1786 66.1525C39.7401 66.2149 40.9112 67.0581 41.2234 67.3075C43.3626 68.9163 44.0653 71.9142 45.1895 77.0197C45.6892 79.2998 46.0015 81.2827 47.2819 81.6735C47.9064 81.8765 48.5154 81.5952 48.6871 81.5169C50.7327 80.5643 50.2642 77.1604 51.5603 72.7415C52.5752 69.3064 53.2935 66.8392 55.1203 66.1678C58.6648 64.8722 65.8322 70.7274 67.7368 74.725C67.9869 75.2398 68.7989 77.0827 69.7668 77.0197C70.2823 76.9885 70.6571 76.4425 70.7818 76.2395C72.64 73.3975 68.5017 62.7171 71.8745 59.2507C77.8862 53.0674 89.1753 59.4381 88.4415 55.4252C87.7078 51.4123 77.5114 48.508 77.8862 43.9485C78.261 39.3891 95.1558 34.3612 89.8785 32.9091ZM72.3746 43.6675C72.1716 49.9757 68.8765 54.2228 67.9398 55.3783C63.3023 61.1869 54.4957 63.0295 54.0117 63.1387C43.5344 65.2623 35.3368 60.3281 33.8846 59.4225C32.0265 58.267 29.0441 56.3464 26.6239 52.6614C26.2023 52.0212 20.6904 43.2927 24.4379 33.7991C24.9687 32.4406 26.3116 29.5207 29.1535 26.8663C36.1332 20.355 46.345 21.3387 48.7028 21.5729C50.7171 21.7603 64.5983 23.3062 70.1569 34.0177C72.4835 38.499 72.4058 42.7618 72.3746 43.6675Z" fill="#FAEBE3"/>
<path d="M72.3739 43.6669C72.1709 49.9752 68.8764 54.2223 67.9391 55.3778C63.3018 61.1864 54.4953 63.0289 54.0112 63.1382C43.5339 65.2616 35.3363 60.3276 33.8841 59.4219C32.026 58.2665 29.0436 56.3459 26.6234 52.6609C26.2018 52.0207 20.6899 43.2921 24.4374 33.7985C24.9682 32.4401 26.3111 29.5201 29.153 26.8657C36.1326 20.3545 46.3445 21.3382 48.7023 21.5724C50.7166 21.7598 64.5982 23.3056 70.1568 34.0171C72.4834 38.4985 72.4051 42.7613 72.3739 43.6669Z" fill="#E3B3FA"/>
<path d="M31.2607 34.7519C31.2607 34.7519 31.4793 37.4845 35.8358 39.5456C40.1922 41.6223 45.9228 34.2054 45.9228 34.2054L44.5643 33.6589C44.5643 33.6589 41.9411 37.2658 40.5202 37.7968C39.0992 38.3433 35.7265 39.0303 34.1963 36.7818C32.6661 34.5334 32.6661 34.5334 32.6661 34.5334L31.2607 34.7519Z" fill="#3A2544"/>
<path d="M63.2704 34.7518C63.1299 35.1734 61.99 38.4525 58.6953 39.5455C56.4468 40.295 54.5106 39.608 53.7299 39.3269C50.2791 38.0465 48.8738 34.8767 48.5928 34.2053C48.9363 34.0648 49.2798 33.9243 49.6233 33.7994C49.7951 34.2522 50.9349 37.094 53.9641 38.187C54.5106 38.3744 57.29 39.3737 59.6634 37.7186C61.178 36.6724 61.6933 35.111 61.8494 34.5332L63.2704 34.7518Z" fill="#3A2544"/>
<path d="M28.9496 43.6044C28.9496 43.6044 36.9443 53.9568 47.7495 52.411C58.5703 50.8808 63.2546 42.527 63.2546 42.527L64.207 43.0422C64.207 43.0422 62.0211 47.4143 59.2573 49.3818C56.4936 51.3335 51.7468 53.8787 48.5926 54.0973C45.4385 54.3315 37.6 53.2854 33.915 49.7253C30.23 46.1495 28.0439 44.0884 28.0439 44.0884L28.9496 43.6044Z" fill="#3A2544"/>
<path d="M14.3349 19.9331C14.3349 19.9331 15.6465 17.4972 17.8013 17.3098C18.4415 17.2474 19.7219 16.7945 20.893 17.4815C21.5487 17.872 21.8767 18.4185 22.1109 18.8244C22.267 19.0899 23.3132 20.9324 22.5949 22.0722C22.1265 22.8217 21.1116 22.9622 20.7056 23.0247C17.1455 23.5868 0.750247 26.1164 0.188123 23.7742C-0.373999 21.432 0.266196 19.9331 2.88943 19.4646C5.51267 18.9962 6.73063 21.3852 6.73063 21.3852C6.73063 21.3852 7.19905 18.4341 9.26017 17.1693C11.3369 15.9045 14.3349 17.2161 14.3349 19.9331Z" fill="#FFB000"/>
<path d="M79.1505 82.1876C79.4159 81.8128 81.227 79.2992 84.3967 79.065C84.8969 79.0338 86.8486 78.9091 88.6286 80.2047C89.0186 80.5013 89.9248 81.1726 90.4396 82.4218C90.9863 83.7652 91.0646 85.7481 90.0025 86.8407C89.1128 87.7622 87.7383 87.7469 87.2235 87.7469C69.0947 87.6216 60.4912 88.6836 59.0391 84.4677C58.6175 83.2338 58.7736 81.4698 59.6637 80.2518C61.0065 78.4248 63.6141 78.3313 64.0204 78.3154C64.4416 78.3154 65.2065 78.3001 66.0497 78.7061C66.8153 79.065 67.2525 79.5805 67.3619 79.6893C68.361 80.8608 68.5169 82.5625 68.5169 82.5625C68.9388 80.0329 70.6093 77.9717 72.8582 77.3316C75.0594 76.7073 78.1355 77.3475 79.0882 79.4398C79.5254 80.5013 79.3224 81.5786 79.1505 82.1876Z" fill="#FFB000"/>
</g>
</svg>
