<svg width="91" height="91" viewBox="0 0 91 91" fill="none" xmlns="http://www.w3.org/2000/svg">
<mask id="mask0_240_3942" style="mask-type:luminance" maskUnits="userSpaceOnUse" x="0" y="0" width="91" height="91">
<path d="M90.8855 0H0V90.8855H90.8855V0Z" fill="white"/>
</mask>
<g mask="url(#mask0_240_3942)">
<path d="M44.612 41.1648C42.3379 42.2557 39.0035 43.8845 34.9776 45.8821C21.6861 52.5048 18.5054 54.5024 17.23 55.3168C9.80824 60.0956 6.0436 62.5848 3.8309 67.3941C3.10871 68.9614 0.511868 74.5856 2.89358 80.6088C5.56725 87.3549 12.4973 89.5058 14.2182 90.0435C15.3092 90.3821 22.1471 92.3949 28.9388 88.7224C32.9954 86.5404 35.1006 83.3751 35.9303 82.1151C38.5579 78.0735 39.0649 74.1554 39.3262 72.296C40.3403 64.9511 42.1843 54.5484 44.612 41.1648Z" fill="#E3B3FA"/>
<path d="M42.1221 0C39.8172 1.36756 36.283 3.33441 31.7961 5.28588C24.0364 8.65098 21.6854 8.40515 15.1088 11.6474C9.33115 14.5054 4.65994 16.9025 2.7392 21.9733C1.50993 25.2309 1.98628 28.135 2.13993 29.0569C2.96969 33.805 6.33483 38.215 10.9139 39.9053C13.2188 40.7504 15.0934 40.6428 17.9822 40.4585C20.9324 40.2741 25.4039 40.0128 29.0303 37.2163C31.3813 35.4184 32.3801 33.1443 34.3162 28.6882C36.2215 24.2782 37.205 20.6672 39.0796 12.9535C39.9247 9.41933 40.9696 5.04002 42.1221 0Z" fill="#E3B3FA"/>
<path d="M88.4199 2.13654C81.4899 7.94487 75.5895 11.8478 71.3641 14.3986C71.1948 14.5061 63.6043 18.7932 58.2723 25.293C56.8586 27.0139 56.0442 28.3815 55.4603 30.4559C54.2464 34.7123 55.5832 38.3693 55.9674 39.3067C56.3976 40.3977 58.2569 44.6233 62.9589 46.7592C68.7213 49.3714 74.2067 46.7592 74.9907 46.3597C80.9522 43.3633 82.9809 36.8635 84.7322 31.2703C85.3011 29.4725 85.8846 27.1676 86.9295 18.0556C87.6824 11.4022 88.1437 5.91655 88.4199 2.13654Z" fill="#E3B3FA"/>
<path d="M16.2621 14.6437C14.0955 13.3376 9.80839 16.5952 7.67256 19.1306C5.92084 21.2357 5.36767 23.1871 5.21401 23.6788C4.99889 24.3703 4.87596 25.1386 4.81449 26.1681C4.66084 29.1645 4.52254 30.2093 7.21158 32.9138C9.9006 35.6028 14.0955 32.9138 13.358 29.9174C12.605 26.9211 10.3616 22.342 12.4667 20.283C14.2645 18.5159 17.1687 18.3622 17.3377 16.5491C17.4145 15.7961 16.8921 15.0125 16.2621 14.6437Z" fill="#3A2544"/>
<path d="M15.8009 61.325C12.1899 61.1253 9.19356 65.4583 8.19479 66.8875C6.96552 68.6547 6.48921 70.1604 6.25869 70.8368C6.25869 70.8368 5.82844 72.2349 5.75161 73.6177C5.62868 75.677 6.32015 80.64 9.33184 81.4545C11.1604 81.9458 12.8968 80.6858 13.3424 80.3326C14.7714 79.1955 15.5397 77.3672 15.4475 75.7228C15.3246 73.8023 14.249 73.5872 14.0339 71.2517C13.957 70.3296 13.8187 68.8234 14.6946 67.5793C15.6472 66.2423 16.8151 66.5649 17.737 65.0745C17.8446 64.9053 18.7666 63.3687 18.1366 62.3085C17.5834 61.3865 16.1697 61.3404 15.8009 61.325Z" fill="#3A2544"/>
<path d="M63.3586 25.3544C61.7145 25.4466 60.6081 27.5978 59.6708 29.411C59.2253 30.2869 58.6874 31.3625 58.4108 32.9144C58.2879 33.6059 58.1189 35.0503 58.4723 36.8174C58.7796 38.3079 59.0562 39.7523 60.3162 40.7049C60.5467 40.8893 61.4072 41.4886 62.5903 41.4886C62.7133 41.4886 64.7569 41.4579 65.3099 40.1825C65.6325 39.4449 65.3099 38.6766 65.049 38.0774C64.3885 36.5408 63.2511 36.4947 62.744 35.2808C62.3445 34.3281 62.6211 33.3908 62.8977 32.4381C63.543 30.2562 64.895 29.6262 65.2641 27.4288C65.3252 27.0447 65.3716 26.553 65.0948 26.1227C64.7416 25.5235 63.9271 25.3237 63.3586 25.3544Z" fill="#3A2544"/>
</g>
</svg>
